STARTFONT 2.3
FONT -FontForge-Monofett-Book-R-Normal--28-280-72-72-P-153-ISO10646-1
SIZE 28 72 72  2
FONTBOUNDINGBOX 18 33 0 -5
COMMENT "Generated by fontforge, http://fontforge.sourceforge.net"
COMMENT "Copyright (c) 2011 by vernon adams. All rights reserved."
STARTPROPERTIES 41
FOUNDRY "FontForge"
FAMILY_NAME "Monofett"
WEIGHT_NAME "Book"
SLANT "R"
SETWIDTH_NAME "Normal"
ADD_STYLE_NAME ""
PIXEL_SIZE 28
POINT_SIZE 280
RESOLUTION_X 72
RESOLUTION_Y 72
SPACING "P"
AVERAGE_WIDTH 153
CHARSET_REGISTRY "ISO10646"
CHARSET_ENCODING "1"
FONTNAME_REGISTRY ""
CHARSET_COLLECTIONS "ISO8859-2 ISO8859-9 ISO8859-4 ISO10646-1"
BITS_PER_PIXEL 2
FONT_NAME "Monofett"
FACE_NAME "Monofett"
COPYRIGHT "Copyright (c) 2011 by vernon adams. All rights reserved."
FONT_VERSION "1.000"
FONT_ASCENT 22
FONT_DESCENT 6
UNDERLINE_POSITION -4
UNDERLINE_THICKNESS 1
X_HEIGHT 18
CAP_HEIGHT 18
RAW_ASCENT 799
RAW_DESCENT 200
NORM_SPACE 4
RELATIVE_WEIGHT 40
RELATIVE_SETWIDTH 50
SUPERSCRIPT_X 0
SUPERSCRIPT_Y 13
SUPERSCRIPT_SIZE 18
SUBSCRIPT_X 0
SUBSCRIPT_Y 3
SUBSCRIPT_SIZE 18
FIGURE_WIDTH 16
AVG_LOWERCASE_WIDTH 160
AVG_UPPERCASE_WIDTH 160
ENDPROPERTIES
CHARS 409
STARTCHAR uni000D
ENCODING 13
SWIDTH 144 0
DWIDTH 4 0
BBX 1 1 0 0
BITMAP
00
ENDCHAR
STARTCHAR space
ENCODING 32
SWIDTH 144 0
DWIDTH 4 0
BBX 1 1 0 0
BITMAP
00
ENDCHAR
STARTCHAR exclam
ENCODING 33
SWIDTH 424 0
DWIDTH 12 0
BBX 12 19 0 0
BITMAP
01AA40
0BEBE0
3FC3FC
BFD3FD
FFD7FE
FFD7FF
FFD7FF
FFD7FF
FFE7FF
FFEBFF
FFFBFF
FFEBFF
FFD3FF
FFFFFF
FFFFFF
BFFFFE
7FFFFC
1FFFF4
02FE80
ENDCHAR
STARTCHAR quotedbl
ENCODING 34
SWIDTH 424 0
DWIDTH 12 0
BBX 12 19 0 0
BITMAP
01AA40
0BAAE0
3F54FC
BF54FD
FF54FE
FFFFFF
FFFFFF
FFFFFF
FFFFFF
FFFFFF
FFFFFF
FFFFFF
FFFFFF
FFFFFF
FFFFFF
BFFFFE
7FFFFC
1FFFF4
02FE80
ENDCHAR
STARTCHAR numbersign
ENCODING 35
SWIDTH 482 0
DWIDTH 14 0
BBX 14 19 0 0
BITMAP
01AA9000
0BFFFE00
3FFFBF80
BFD72FC0
FF851FD0
FF000FE0
FFCA3FE0
FF893FE0
FF8D7FE0
FE001FE0
FE486FE0
FF5CBFE0
FFAEFFE0
FFFFFFE0
FFFFFFE0
BFFFFFD0
7FFFFF80
1FFFFE00
02FFE400
ENDCHAR
STARTCHAR dollar
ENCODING 36
SWIDTH 578 0
DWIDTH 16 0
BBX 17 19 0 0
BITMAP
01AAAA4000
0BFFBFF400
3FF92BFD00
BF8001FE00
FF4E34FF00
FF5E3EFF40
FF4E3FFF40
FF8002FF40
FFE924FF40
FFFE38FF40
FF5E38FF40
FF4510FF40
FFD416FF40
FFFE3FFF40
FFFFBFFF40
BFFFFFFF00
7FFFFFFD00
1FFFFFF800
02FFFF9000
ENDCHAR
STARTCHAR percent
ENCODING 37
SWIDTH 578 0
DWIDTH 16 0
BBX 17 19 0 0
BITMAP
01AAAA4000
0BFFFFF400
3E5BDFFD00
B8438FFE00
F4E35FFF00
F8432FFF40
FD5A2FFF40
FFFD3EBF40
FFFC601F40
FFF8A34F40
FFF4E24F40
FFF5F01F40
FFFFFEBF40
FFFFFFFF40
FFFFFFFF40
BFFFFFFF00
7FFFFFFD00
1FFFFFF800
02FFFF9000
ENDCHAR
STARTCHAR ampersand
ENCODING 38
SWIDTH 578 0
DWIDTH 16 0
BBX 17 19 0 0
BITMAP
01AAAA4000
0BFAABF400
3FD003FD00
BFC7FFFE00
FFCBFFFF00
FFC7FCBF40
FFE1546F40
FFE1547F40
FFC7FCBF40
FFCBFCBF40
FFC7FCBF40
FFD154BF40
FFF556FF40
FFFFFFFF40
FFFFFFFF40
BFFFFFFF00
7FFFFFFD00
1FFFFFF800
02FFFF9000
ENDCHAR
STARTCHAR quotesingle
ENCODING 39
SWIDTH 424 0
DWIDTH 12 0
BBX 12 19 0 0
BITMAP
01AA40
0BEBE0
3FD7FC
BFD7FD
FFD7FE
FFFFFF
FFFFFF
FFFFFF
FFFFFF
FFFFFF
FFFFFF
FFFFFF
FFFFFF
FFFFFF
FFFFFF
BFFFFE
7FFFFC
1FFFF4
02FE80
ENDCHAR
STARTCHAR parenleft
ENCODING 40
SWIDTH 483 0
DWIDTH 14 0
BBX 14 19 0 0
BITMAP
01AA9000
0BE9BE00
3F807F80
BF8FFFC0
FF8FFFD0
FF8FFFE0
FF8FFFE0
FF8FFFE0
FF8FFFE0
FF8FFFE0
FF8FFFE0
FF8FFFE0
FF8FFFE0
FF807FE0
FFE5BFE0
BFFFFFD0
7FFFFF80
1FFFFE00
02FFE400
ENDCHAR
STARTCHAR parenright
ENCODING 41
SWIDTH 483 0
DWIDTH 14 0
BBX 14 19 0 0
BITMAP
01AA9000
0BD6FE00
3FC07F80
BFFD3FC0
FFFE3FD0
FFFE3FE0
FFFE3FE0
FFFE3FE0
FFFE3FE0
FFFE3FE0
FFFE3FE0
FFFE3FE0
FFFE3FE0
FFC07FE0
FFD6FFE0
BFFFFFD0
7FFFFF80
1FFFFE00
02FFE400
ENDCHAR
STARTCHAR asterisk
ENCODING 42
SWIDTH 428 0
DWIDTH 12 0
BBX 12 19 0 0
BITMAP
01AA40
0BEEE0
3F487C
BFC0FE
FD000F
FE806F
FF84BF
FF9DBF
FFFFFF
FFFFFF
FFFFFF
FFFFFF
FFFFFF
FFFFFF
FFFFFF
BFFFFE
7FFFFD
1FFFF4
02FF80
ENDCHAR
STARTCHAR plus
ENCODING 43
SWIDTH 428 0
DWIDTH 12 0
BBX 12 19 0 0
BITMAP
01AA40
0BEBE0
3FD7FC
BFD7FE
F9416F
F9416F
FFD7FF
FFD7FF
FFEBFF
FFFFFF
FFFFFF
FFFFFF
FFFFFF
FFFFFF
FFFFFF
BFFFFE
7FFFFD
1FFFF4
02FF80
ENDCHAR
STARTCHAR comma
ENCODING 44
SWIDTH 428 0
DWIDTH 12 0
BBX 12 19 0 0
BITMAP
01AA40
0BFFE0
3FFFFC
BFFFFE
FFFFFF
FFFFFF
FFFFFF
FFFFFF
FFFFFF
FFFFFF
FFFFFF
FFC3FF
FFD3FF
FFE7FF
FFFBFF
BFFFFE
7FFFFD
1FFFF4
02FF80
ENDCHAR
STARTCHAR hyphen
ENCODING 45
SWIDTH 428 0
DWIDTH 12 0
BBX 12 19 0 0
BITMAP
01AA40
0BFFE0
3FFFFC
BFFFFE
FFFFFF
FD007F
FEAABF
FFFFFF
FFFFFF
FFFFFF
FFFFFF
FFFFFF
FFFFFF
FFFFFF
FFFFFF
BFFFFE
7FFFFD
1FFFF4
02FF80
ENDCHAR
STARTCHAR period
ENCODING 46
SWIDTH 428 0
DWIDTH 12 0
BBX 12 19 0 0
BITMAP
01AA40
0BFFE0
3FFFFC
BFFFFE
FFFFFF
FFFFFF
FFFFFF
FFFFFF
FFFFFF
FFFFFF
FFFFFF
FFC3FF
FFD7FF
FFFFFF
FFFFFF
BFFFFE
7FFFFD
1FFFF4
02FF80
ENDCHAR
STARTCHAR slash
ENCODING 47
SWIDTH 428 0
DWIDTH 12 0
BBX 12 19 0 0
BITMAP
01AA40
0BFFE0
3FF1FC
BFF2FE
FFE2FF
FFE3FF
FFD3FF
FFD7FF
FFC7FF
FFCBFF
FF8BFF
FF8FFF
FF4FFF
FFFFFF
FFFFFF
BFFFFE
7FFFFD
1FFFF4
02FF80
ENDCHAR
STARTCHAR zero
ENCODING 48
SWIDTH 578 0
DWIDTH 16 0
BBX 17 19 0 0
BITMAP
01AAAA4000
0BEAAAF400
3F80007D00
BF4FFD3E00
FF5FFD3F00
FF5FFD3F40
FF5FFD3F40
FF5FFD3F40
FF5FFD3F40
FF5FFD3F40
FF4FFD3F40
FF85547F40
FFD555FF40
FFFFFFFF40
FFFFFFFF40
BFFFFFFF00
7FFFFFFD00
1FFFFFF800
02FFFF9000
ENDCHAR
STARTCHAR one
ENCODING 49
SWIDTH 578 0
DWIDTH 16 0
BBX 17 19 0 0
BITMAP
01AAAA4000
0BFE7FF400
3FF02FFD00
BFFA2FFE00
FFFE2FFF00
FFFE2FFF40
FFFE2FFF40
FFFE2FFF40
FFFE2FFF40
FFFE2FFF40
FFFE2FFF40
FFFE2FFF40
FFFE6FFF40
FFFFFFFF40
FFFFFFFF40
BFFFFFFF00
7FFFFFFD00
1FFFFFF800
02FFFF9000
ENDCHAR
STARTCHAR two
ENCODING 50
SWIDTH 578 0
DWIDTH 16 0
BBX 17 19 0 0
BITMAP
01AAAA4000
0BEAAAF400
3F8000BD00
BF4FFC7E00
FFFFFC7F00
FFFFFC7F40
FFFAA8BF40
FF8001FF40
FF4FFFFF40
FF5FFFFF40
FF5FFFFF40
FF4555FF40
FFD555FF40
FFFFFFFF40
FFFFFFFF40
BFFFFFFF00
7FFFFFFD00
1FFFFFF800
02FFFF9000
ENDCHAR
STARTCHAR three
ENCODING 51
SWIDTH 578 0
DWIDTH 16 0
BBX 17 19 0 0
BITMAP
01AAAA4000
0BEAABF400
3F4000FD00
BF2FFCBE00
FFFFFCBF00
FFFFFCBF40
FFF954BF40
FFF550BF40
FFFFFCBF40
FFFFFCBF40
FF6FFCBF40
FF0554BF40
FF9555FF40
FFFFFFFF40
FFFFFFFF40
BFFFFFFF00
7FFFFFFD00
1FFFFFF800
02FFFF9000
ENDCHAR
STARTCHAR four
ENCODING 52
SWIDTH 578 0
DWIDTH 16 0
BBX 17 19 0 0
BITMAP
01AAAA4000
0BEBFBF400
3FCBE2FD00
BFCBE2FE00
FFCBE2FF00
FFCBE2FF40
FFCBE2FF40
FFCBE2FF40
FFC6A2BF40
FFE0002F40
FFFFE2FF40
FFFFE2FF40
FFFFE7FF40
FFFFFFFF40
FFFFFFFF40
BFFFFFFF00
7FFFFFFD00
1FFFFFF800
02FFFF9000
ENDCHAR
STARTCHAR five
ENCODING 53
SWIDTH 578 0
DWIDTH 16 0
BBX 17 19 0 0
BITMAP
01AAAA4000
0BEAAAF400
3F8000BD00
BF8FFFFE00
FF8FFFFF00
FF8FFFFF40
FF8000BF40
FF9AA87F40
FFFFFD7F40
FFFFFD7F40
FFEFFD7F40
FF85547F40
FFE555FF40
FFFFFFFF40
FFFFFFFF40
BFFFFFFF00
7FFFFFFD00
1FFFFFF800
02FFFF9000
ENDCHAR
STARTCHAR six
ENCODING 54
SWIDTH 578 0
DWIDTH 16 0
BBX 17 19 0 0
BITMAP
01AAAA4000
0BEAAAF400
3FC000FD00
BF8FFEFE00
FF8FFFFF00
FF8FFFFF40
FF80007F40
FF8AA93F40
FF8FFE3F40
FF8FFE3F40
FF8FFE3F40
FF85543F40
FFE555BF40
FFFFFFFF40
FFFFFFFF40
BFFFFFFF00
7FFFFFFD00
1FFFFFF800
02FFFF9000
ENDCHAR
STARTCHAR seven
ENCODING 55
SWIDTH 578 0
DWIDTH 16 0
BBX 17 19 0 0
BITMAP
01AAAA4000
0BFAAAF400
3FE001FD00
BFFFE2FE00
FFFFD3FF00
FFFFC7FF40
FFFF8BFF40
FFFF4FFF40
FFFF1FFF40
FFFE2FFF40
FFFD3FFF40
FFFC7FFF40
FFF9BFFF40
FFFFFFFF40
FFFFFFFF40
BFFFFFFF00
7FFFFFFD00
1FFFFFF800
02FFFF9000
ENDCHAR
STARTCHAR eight
ENCODING 56
SWIDTH 578 0
DWIDTH 16 0
BBX 17 19 0 0
BITMAP
01AAAA4000
0BEAAAF400
3F80007D00
BF5FFD3E00
FF5FFD3F00
FF5FFD3F40
FF45547F40
FF85547F40
FF5FFD3F40
FF5FFD3F40
FF5FFD3F40
FF45547F40
FFD555FF40
FFFFFFFF40
FFFFFFFF40
BFFFFFFF00
7FFFFFFD00
1FFFFFF800
02FFFF9000
ENDCHAR
STARTCHAR nine
ENCODING 57
SWIDTH 578 0
DWIDTH 16 0
BBX 17 19 0 0
BITMAP
01AAAA4000
0BEAAAF400
3F4000BD00
BF1FFC7E00
FF1FFD7F00
FF1FFD7F40
FF1FFC7F40
FF40007F40
FFEAA97F40
FFFFFD7F40
FFFFFD7F40
FFD5547F40
FFD555FF40
FFFFFFFF40
FFFFFFFF40
BFFFFFFF00
7FFFFFFD00
1FFFFFF800
02FFFF9000
ENDCHAR
STARTCHAR colon
ENCODING 58
SWIDTH 428 0
DWIDTH 12 0
BBX 12 19 0 0
BITMAP
01AA40
0BFFE0
3FFFFC
BFFFFE
FFFFFF
FFFFFF
FFFFFF
FFD7FF
FFD7FF
FFFFFF
FFFFFF
FFC3FF
FFD7FF
FFFFFF
FFFFFF
BFFFFE
7FFFFD
1FFFF4
02FF80
ENDCHAR
STARTCHAR semicolon
ENCODING 59
SWIDTH 428 0
DWIDTH 12 0
BBX 12 19 0 0
BITMAP
01AA40
0BFFE0
3FFFFC
BFFFFE
FFFFFF
FFFFFF
FFFFFF
FFD3FF
FFD3FF
FFFFFF
FFFFFF
FFC3FF
FFD3FF
FFE7FF
FFFBFF
BFFFFE
7FFFFD
1FFFF4
02FF80
ENDCHAR
STARTCHAR less
ENCODING 60
SWIDTH 482 0
DWIDTH 14 0
BBX 14 21 0 1
BITMAP
00154000
06FFF800
1FFFFF00
7FFFFF80
BFFFFFD0
FFFFFFD0
FFFE7FE0
FFF9FFE0
FFE3FFE0
FFCFFFE0
FF2FFFE0
FF3FFFE0
FF9FFFE0
FFE7FFE0
FFF5FFE0
FFFDBFE0
FFFFFFD0
7FFFFFC0
2FFFFF40
0BFFFD00
006A9000
ENDCHAR
STARTCHAR equal
ENCODING 61
SWIDTH 482 0
DWIDTH 14 0
BBX 14 21 0 1
BITMAP
00154000
06FFF800
1FFFFF00
7FFFFF80
BFFFFFD0
FFFFFFD0
FFFFFFE0
FFFFFFE0
FFEABFE0
FF956FE0
FFFFFFE0
FFAAAFE0
FFAAAFE0
FFFFFFE0
FFFFFFE0
FFFFFFE0
FFFFFFD0
7FFFFFC0
2FFFFF40
0BFFFD00
006A9000
ENDCHAR
STARTCHAR greater
ENCODING 62
SWIDTH 482 0
DWIDTH 14 0
BBX 14 21 0 1
BITMAP
00154000
06FFF800
1FFFFF00
7FFFFF80
BFFFFFD0
FFFFFFD0
FFCFFFE0
FFE7FFE0
FFF9FFE0
FFFD7FE0
FFFF6FE0
FFFF5FE0
FFFE7FE0
FFF9FFE0
FFE3FFE0
FFCBFFE0
FFEFFFD0
7FFFFFC0
2FFFFF40
0BFFFD00
006A9000
ENDCHAR
STARTCHAR question
ENCODING 63
SWIDTH 578 0
DWIDTH 16 0
BBX 17 19 0 0
BITMAP
01AAAA4000
0BFAABF400
3FE000BD00
BFDBFD7E00
FFFFFD7F00
FFFFFD7F40
FFFFFD7F40
FFFF40BF40
FFFF2BFF40
FFFF3FFF40
FFFFBFFF40
FFFF6FFF40
FFFF6FFF40
FFFFFFFF40
FFFFFFFF40
BFFFFFFF00
7FFFFFFD00
1FFFFFF800
02FFFF9000
ENDCHAR
STARTCHAR at
ENCODING 64
SWIDTH 578 0
DWIDTH 16 0
BBX 17 19 0 0
BITMAP
01AAAA4000
0BE956F400
3E05547D00
BC7FFF5E00
F8F41B8F00
F9FAE2CB40
F5FFF2CB40
F5F952CB40
F9E2A2CB40
F9D7F2CB40
F9E002CB40
F8FEB84F40
FD7FFEBF40
FF403FFF40
FFFABFFF40
BFFFFFFF00
7FFFFFFD00
1FFFFFF800
02FFFF9000
ENDCHAR
STARTCHAR A
ENCODING 65
SWIDTH 578 0
DWIDTH 16 0
BBX 17 19 0 0
BITMAP
01AAAA4000
0BFAABF400
3FD001FD00
BFC7F4FE00
FFCBF8FF00
FFCBF8BF40
FF8BFCBF40
FF8554BF40
FF85547F40
FF4FFC7F40
FF5FFD7F40
FF5FFD3F40
FF5FFE7F40
FFFFFFFF40
FFFFFFFF40
BFFFFFFF00
7FFFFFFD00
1FFFFFF800
02FFFF9000
ENDCHAR
STARTCHAR B
ENCODING 66
SWIDTH 578 0
DWIDTH 16 0
BBX 17 19 0 0
BITMAP
01AAAA4000
0BAAABF400
3F4000FD00
BF5FF8BE00
FF5FFCBF00
FF5FFCBF40
FF4551FF40
FF4551FF40
FF5FFCBF40
FF5FFCBF40
FF5FFCBF40
FF4554BF40
FF5556FF40
FFFFFFFF40
FFFFFFFF40
BFFFFFFF00
7FFFFFFD00
1FFFFFF800
02FFFF9000
ENDCHAR
STARTCHAR C
ENCODING 67
SWIDTH 578 0
DWIDTH 16 0
BBX 17 19 0 0
BITMAP
01AAAA4000
0BEAAAF400
3F8002FD00
BF5FFFFE00
FF5FFFFF00
FF5FFFFF40
FF5FFFFF40
FF5FFFFF40
FF5FFFFF40
FF5FFFFF40
FF5FFFFF40
FF4556FF40
FFD556FF40
FFFFFFFF40
FFFFFFFF40
BFFFFFFF00
7FFFFFFD00
1FFFFFF800
02FFFF9000
ENDCHAR
STARTCHAR D
ENCODING 68
SWIDTH 578 0
DWIDTH 16 0
BBX 17 19 0 0
BITMAP
01AAAA4000
0BAAAAF400
3F40007D00
BF4FFD3E00
FF4FFE3F00
FF4FFE3F40
FF4FFE3F40
FF4FFE3F40
FF4FFE3F40
FF4FFE3F40
FF4FFE3F40
FF45543F40
FF9555BF40
FFFFFFFF40
FFFFFFFF40
BFFFFFFF00
7FFFFFFD00
1FFFFFF800
02FFFF9000
ENDCHAR
STARTCHAR E
ENCODING 69
SWIDTH 578 0
DWIDTH 16 0
BBX 17 19 0 0
BITMAP
01AAAA4000
0BEAAAF400
3FE000BD00
BFE3FFFE00
FFE3FFFF00
FFE3FFFF40
FFE156FF40
FFE002FF40
FFE3FFFF40
FFE3FFFF40
FFE3FFFF40
FFE155BF40
FFE555BF40
FFFFFFFF40
FFFFFFFF40
BFFFFFFF00
7FFFFFFD00
1FFFFFF800
02FFFF9000
ENDCHAR
STARTCHAR F
ENCODING 70
SWIDTH 578 0
DWIDTH 16 0
BBX 17 19 0 0
BITMAP
01AAAA4000
0BEAAAF400
3FD000BD00
BFD3FFFE00
FFD3FFFF00
FFD3FFFF40
FFD156FF40
FFD156FF40
FFD3FFFF40
FFD3FFFF40
FFD3FFFF40
FFD3FFFF40
FFE7FFFF40
FFFFFFFF40
FFFFFFFF40
BFFFFFFF00
7FFFFFFD00
1FFFFFF800
02FFFF9000
ENDCHAR
STARTCHAR G
ENCODING 71
SWIDTH 578 0
DWIDTH 16 0
BBX 17 19 0 0
BITMAP
01AAAA4000
0BFAAAF400
3FC000BD00
BF8BFFFE00
FF8FFFFF00
FF8FFFFF40
FF8FFFFF40
FF8FC03F40
FF8FE93F40
FF8FFE3F40
FF8BFE3F40
FFC5543F40
FFE555BF40
FFFFFFFF40
FFFFFFFF40
BFFFFFFF00
7FFFFFFD00
1FFFFFF800
02FFFF9000
ENDCHAR
STARTCHAR H
ENCODING 72
SWIDTH 578 0
DWIDTH 16 0
BBX 17 19 0 0
BITMAP
01AAAA4000
0BAFFEB400
3F4FFE3D00
BF4FFE3E00
FF4FFE3F00
FF4FFE3F40
FF45553F40
FF45553F40
FF4FFE3F40
FF4FFE3F40
FF4FFE3F40
FF4FFE3F40
FF9FFE7F40
FFFFFFFF40
FFFFFFFF40
BFFFFFFF00
7FFFFFFD00
1FFFFFF800
02FFFF9000
ENDCHAR
STARTCHAR I
ENCODING 73
SWIDTH 578 0
DWIDTH 16 0
BBX 17 19 0 0
BITMAP
01AAAA4000
0BEAAAB400
3FC0007D00
BFFF1FFE00
FFFF1FFF00
FFFF1FFF40
FFFF1FFF40
FFFF1FFF40
FFFF1FFF40
FFFF1FFF40
FFFF1FFF40
FFD5057F40
FFD5557F40
FFFFFFFF40
FFFFFFFF40
BFFFFFFF00
7FFFFFFD00
1FFFFFF800
02FFFF9000
ENDCHAR
STARTCHAR J
ENCODING 74
SWIDTH 578 0
DWIDTH 16 0
BBX 17 19 0 0
BITMAP
01AAAA4000
0BFFEBF400
3FFFD7FD00
BFFFD7FE00
FFFFD7FF00
FFFFD7FF40
FFFFD7FF40
FFFFD7FF40
FFFFD7FF40
FFFFD7FF40
FFFFD7FF40
FFF547FF40
FFF55FFF40
FFFFFFFF40
FFFFFFFF40
BFFFFFFF00
7FFFFFFD00
1FFFFFF800
02FFFF9000
ENDCHAR
STARTCHAR K
ENCODING 75
SWIDTH 578 0
DWIDTH 16 0
BBX 17 19 0 0
BITMAP
01AAAA4000
0BEBFF6400
3FE3FD2D00
BFE3F4BE00
FFE3D2FF00
FFE34BFF40
FFE12FFF40
FFE02FFF40
FFE24BFF40
FFE3D2FF40
FFE3F0FF40
FFE3FC3F40
FFE7FE7F40
FFFFFFFF40
FFFFFFFF40
BFFFFFFF00
7FFFFFFD00
1FFFFFF800
02FFFF9000
ENDCHAR
STARTCHAR L
ENCODING 76
SWIDTH 578 0
DWIDTH 16 0
BBX 17 19 0 0
BITMAP
01AAAA4000
0BFAFFF400
3FF1FFFD00
BFF1FFFE00
FFF1FFFF00
FFF1FFFF40
FFF1FFFF40
FFF1FFFF40
FFF1FFFF40
FFF1FFFF40
FFF1FFFF40
FFF055FF40
FFF555FF40
FFFFFFFF40
FFFFFFFF40
BFFFFFFF00
7FFFFFFD00
1FFFFFF800
02FFFF9000
ENDCHAR
STARTCHAR M
ENCODING 77
SWIDTH 578 0
DWIDTH 16 0
BBX 17 19 0 0
BITMAP
01AAAA4000
0BAAEAB400
3E00402D00
BE3E2F1E00
FE3E2F1F00
FE3E2F1F40
FE3E2F1F40
FE3E2F1F40
FE3E2F1F40
FE3FFF1F40
FE3FFF1F40
FE3FFF1F40
FE7FFF6F40
FFFFFFFF40
FFFFFFFF40
BFFFFFFF00
7FFFFFFD00
1FFFFFF800
02FFFF9000
ENDCHAR
STARTCHAR N
ENCODING 78
SWIDTH 578 0
DWIDTH 16 0
BBX 17 19 0 0
BITMAP
01AAAA4000
0BEAAAF400
3F4000BD00
BF4FFD7E00
FF4FFD7F00
FF4FFD7F40
FF4FFD7F40
FF4FFD7F40
FF4FFD7F40
FF4FFD7F40
FF4FFD7F40
FF4FFD7F40
FF9FFD7F40
FFFFFFFF40
FFFFFFFF40
BFFFFFFF00
7FFFFFFD00
1FFFFFF800
02FFFF9000
ENDCHAR
STARTCHAR O
ENCODING 79
SWIDTH 578 0
DWIDTH 16 0
BBX 17 19 0 0
BITMAP
01AAAA4000
0BEAAAF400
3F80007D00
BF4FFD3E00
FF4FFE3F00
FF4FFE3F40
FF4FFE3F40
FF4FFE3F40
FF4FFE3F40
FF4FFE3F40
FF4FFE3F40
FF85543F40
FFD555BF40
FFFFFFFF40
FFFFFFFF40
BFFFFFFF00
7FFFFFFD00
1FFFFFF800
02FFFF9000
ENDCHAR
STARTCHAR P
ENCODING 80
SWIDTH 578 0
DWIDTH 16 0
BBX 17 19 0 0
BITMAP
01AAAA4000
0BEAAAF400
3FC000BD00
BFC7FD7E00
FFC7FD7F00
FFC7FD7F40
FFC7FD7F40
FFC1547F40
FFC155FF40
FFC7FFFF40
FFC7FFFF40
FFC7FFFF40
FFDBFFFF40
FFFFFFFF40
FFFFFFFF40
BFFFFFFF00
7FFFFFFD00
1FFFFFF800
02FFFF9000
ENDCHAR
STARTCHAR Q
ENCODING 81
SWIDTH 578 0
DWIDTH 16 0
BBX 17 19 0 0
BITMAP
01AAAA4000
0BEAAAF400
3F80007D00
BF8FFD3E00
FF4FFE3F00
FF4FFE3F40
FF4FFE3F40
FF4FFE3F40
FF4FFE3F40
FF4FFE3F40
FF4F5E3F40
FF85443F40
FFD541BF40
FFFFE2FF40
FFFFF6FF40
BFFFFFFF00
7FFFFFFD00
1FFFFFF800
02FFFF9000
ENDCHAR
STARTCHAR R
ENCODING 82
SWIDTH 578 0
DWIDTH 16 0
BBX 17 19 0 0
BITMAP
01AAAA4000
0BEAABF400
3F8001FD00
BF8BF8FE00
FF8BF8BF00
FF8BF8BF40
FF8AA5FF40
FF8007FF40
FF8AA4FF40
FF8BFCBF40
FF8BFCBF40
FF8BFCBF40
FF9FFDBF40
FFFFFFFF40
FFFFFFFF40
BFFFFFFF00
7FFFFFFD00
1FFFFFF800
02FFFF9000
ENDCHAR
STARTCHAR S
ENCODING 83
SWIDTH 578 0
DWIDTH 16 0
BBX 17 19 0 0
BITMAP
01AAAA4000
0BFAAAF400
3FC000BD00
BF8BFFFE00
FF8BFFFF00
FF8BFFFF40
FFC156FF40
FFE5547F40
FFFFFD7F40
FFFFFD7F40
FFFFFD7F40
FFE5547F40
FFD555FF40
FFFFFFFF40
FFFFFFFF40
BFFFFFFF00
7FFFFFFD00
1FFFFFF800
02FFFF9000
ENDCHAR
STARTCHAR T
ENCODING 84
SWIDTH 578 0
DWIDTH 16 0
BBX 17 19 0 0
BITMAP
01AAAA4000
0BEAAAB400
3FC0007D00
BFFF1FFE00
FFFF1FFF00
FFFF1FFF40
FFFF1FFF40
FFFF1FFF40
FFFF1FFF40
FFFF1FFF40
FFFF1FFF40
FFFF1FFF40
FFFF6FFF40
FFFFFFFF40
FFFFFFFF40
BFFFFFFF00
7FFFFFFD00
1FFFFFF800
02FFFF9000
ENDCHAR
STARTCHAR U
ENCODING 85
SWIDTH 578 0
DWIDTH 16 0
BBX 17 19 0 0
BITMAP
01AAAA4000
0BAFFEB400
3F5FFD3D00
BF5FFD3E00
FF5FFD3F00
FF5FFD3F40
FF5FFD3F40
FF5FFD3F40
FF5FFD3F40
FF5FFD3F40
FF4FFD3F40
FF85547F40
FFD555FF40
FFFFFFFF40
FFFFFFFF40
BFFFFFFF00
7FFFFFFD00
1FFFFFF800
02FFFF9000
ENDCHAR
STARTCHAR V
ENCODING 86
SWIDTH 578 0
DWIDTH 16 0
BBX 17 19 0 0
BITMAP
01AAAA4000
0BAFFEB400
3F4FFD7D00
BF8BFC7E00
FFC7F8BF00
FFD7F4FF40
FFD3F1FF40
FFE2F2FF40
FFF1E2FF40
FFF5D3FF40
FFF8C7FF40
FFFC4BFF40
FFFE5FFF40
FFFFFFFF40
FFFFFFFF40
BFFFFFFF00
7FFFFFFD00
1FFFFFF800
02FFFF9000
ENDCHAR
STARTCHAR W
ENCODING 87
SWIDTH 578 0
DWIDTH 16 0
BBX 17 19 0 0
BITMAP
01AAAA4000
0ABFFFA400
3C7E2F4D00
BD7E2F1E00
FD3D1F1F00
FD3D1F1F40
FE3C4F2F40
FE388E2F40
FE288A2F40
FF24CA3F40
FF25C63F40
FF11D03F40
FF97F5BF40
FFFFFFFF40
FFFFFFFF40
BFFFFFFF00
7FFFFFFD00
1FFFFFF800
02FFFF9000
ENDCHAR
STARTCHAR X
ENCODING 88
SWIDTH 578 0
DWIDTH 16 0
BBX 17 19 0 0
BITMAP
01AAAA4000
0BEFFFB400
3F8BFD3D00
BFD3F8BE00
FFF1F1FF00
FFF893FF40
FFFD0BFF40
FFFD0BFF40
FFF847FF40
FFF4E2FF40
FFE2F4FF40
FFC7FC7F40
FF9FFE7F40
FFFFFFFF40
FFFFFFFF40
BFFFFFFF00
7FFFFFFD00
1FFFFFF800
02FFFF9000
ENDCHAR
STARTCHAR Y
ENCODING 89
SWIDTH 578 0
DWIDTH 16 0
BBX 17 19 0 0
BITMAP
01AAAA4000
0BEBFEB400
3FC7F8BD00
BFD3F4FE00
FFE2F1FF00
FFF4E2FF40
FFF887FF40
FFFC0BFF40
FFFE0FFF40
FFFF1FFF40
FFFF2FFF40
FFFF2FFF40
FFFF6FFF40
FFFFFFFF40
FFFFFFFF40
BFFFFFFF00
7FFFFFFD00
1FFFFFF800
02FFFF9000
ENDCHAR
STARTCHAR Z
ENCODING 90
SWIDTH 578 0
DWIDTH 16 0
BBX 17 19 0 0
BITMAP
01AAAA4000
0BEAABF400
3FD001FD00
BFFFE2FE00
FFFFC7FF00
FFFF8BFF40
FFFF1FFF40
FFFD3FFF40
FFFC7FFF40
FFF4FFFF40
FFE2FFFF40
FFD155FF40
FFE555FF40
FFFFFFFF40
FFFFFFFF40
BFFFFFFF00
7FFFFFFD00
1FFFFFF800
02FFFF9000
ENDCHAR
STARTCHAR bracketleft
ENCODING 91
SWIDTH 484 0
DWIDTH 14 0
BBX 14 19 0 0
BITMAP
01AA9000
0BE0FE00
3FE1FF80
BFE2FFD0
FFE2FFE0
FFE2FFE0
FFE2FFE0
FFE2FFE0
FFE2FFE0
FFE2FFE0
FFE2FFE0
FFE2FFE0
FFE2FFE0
FFE0FFE0
FFFFFFE0
BFFFFFD0
7FFFFF80
1FFFFE00
02FFE400
ENDCHAR
STARTCHAR backslash
ENCODING 92
SWIDTH 516 0
DWIDTH 14 0
BBX 15 19 0 0
BITMAP
01AAA400
0BFBFF40
3FF2FFD0
BFF1FFF0
FFF5FFF4
FFF4FFF4
FFF8FFF8
FFF8BFF8
FFFCBFF8
FFFC7FF8
FFFD7FF8
FFFD3FF8
FFFE7FF8
FFFFFFF4
FFFFFFF4
BFFFFFF4
7FFFFFE0
1FFFFF80
02FFF900
ENDCHAR
STARTCHAR bracketright
ENCODING 93
SWIDTH 484 0
DWIDTH 14 0
BBX 14 19 0 0
BITMAP
01AA9000
0BE1FE00
3FE0FF80
BFF4FFD0
FFF4FFE0
FFF4FFE0
FFF4FFE0
FFF4FFE0
FFF4FFE0
FFF4FFE0
FFF4FFE0
FFF4FFE0
FFF4FFE0
FFE0FFE0
FFFFFFE0
BFFFFFD0
7FFFFF80
1FFFFE00
02FFE400
ENDCHAR
STARTCHAR asciicircum
ENCODING 94
SWIDTH 355 0
DWIDTH 10 0
BBX 10 11 0 6
BITMAP
01A400
0BFE00
1FFF40
2F5F80
3F5FC0
7DA7D0
BDF7E0
FAFBF0
FFFFF0
7FFFD0
050500
ENDCHAR
STARTCHAR underscore
ENCODING 95
SWIDTH 428 0
DWIDTH 12 0
BBX 12 19 0 0
BITMAP
01AA40
0BFFE0
3FFFFC
BFFFFE
FFFFFF
FFFFFF
FFFFFF
FFFFFF
FFFFFF
FFFFFF
FFFFFF
FFFFFF
FEAABF
FC003F
FEAABF
BFFFFE
7FFFFD
1FFFF4
02FF80
ENDCHAR
STARTCHAR grave
ENCODING 96
SWIDTH 308 0
DWIDTH 9 0
BBX 9 10 0 0
BITMAP
055000
2FF800
FFFD00
FD7E00
BE3F00
7F2F40
2F9F80
0FEF80
0BFF40
02A900
ENDCHAR
STARTCHAR a
ENCODING 97
SWIDTH 578 0
DWIDTH 16 0
BBX 17 19 0 0
BITMAP
01AAAA4000
0BEAABF400
3FC001FD00
BFFFF4FE00
FFFFF8FF00
FFFFF8FF40
FFFFF8FF40
FF8000FF40
FF1AA4FF40
FF1FF8FF40
FF1FF8FF40
FF4550FF40
FFD555FF40
FFFFFFFF40
FFFFFFFF40
BFFFFFFF00
7FFFFFFD00
1FFFFFF800
02FFFF9000
ENDCHAR
STARTCHAR b
ENCODING 98
SWIDTH 578 0
DWIDTH 16 0
BBX 17 19 0 0
BITMAP
01AAAA4000
0BAAABF400
3F4000FD00
BF5FF8BE00
FF5FFCBF00
FF5FFCBF40
FF4551FF40
FF4551FF40
FF5FFCBF40
FF5FFCBF40
FF5FFCBF40
FF4554BF40
FF5556FF40
FFFFFFFF40
FFFFFFFF40
BFFFFFFF00
7FFFFFFD00
1FFFFFF800
02FFFF9000
ENDCHAR
STARTCHAR c
ENCODING 99
SWIDTH 578 0
DWIDTH 16 0
BBX 17 19 0 0
BITMAP
01AAAA4000
0BEAAAF400
3F8002FD00
BF5FFFFE00
FF5FFFFF00
FF5FFFFF40
FF5FFFFF40
FF5FFFFF40
FF5FFFFF40
FF5FFFFF40
FF5FFFFF40
FF4556FF40
FFD556FF40
FFFFFFFF40
FFFFFFFF40
BFFFFFFF00
7FFFFFFD00
1FFFFFF800
02FFFF9000
ENDCHAR
STARTCHAR d
ENCODING 100
SWIDTH 578 0
DWIDTH 16 0
BBX 17 19 0 0
BITMAP
01AAAA4000
0BAAAAF400
3F40007D00
BF4FFD3E00
FF4FFE3F00
FF4FFE3F40
FF4FFE3F40
FF4FFE3F40
FF4FFE3F40
FF4FFE3F40
FF4FFE3F40
FF45543F40
FF9555BF40
FFFFFFFF40
FFFFFFFF40
BFFFFFFF00
7FFFFFFD00
1FFFFFF800
02FFFF9000
ENDCHAR
STARTCHAR e
ENCODING 101
SWIDTH 578 0
DWIDTH 16 0
BBX 17 19 0 0
BITMAP
01AAAA4000
0BEAABF400
3F4001FD00
BF5FF4FE00
FF1FF8FF00
FF1AA4FF40
FF0000FF40
FF1FFFFF40
FF1FFFFF40
FF1FFFFF40
FF5FFBFF40
FF8002FF40
FFEAABFF40
FFFFFFFF40
FFFFFFFF40
BFFFFFFF00
7FFFFFFD00
1FFFFFF800
02FFFF9000
ENDCHAR
STARTCHAR f
ENCODING 102
SWIDTH 578 0
DWIDTH 16 0
BBX 17 19 0 0
BITMAP
01AAAA4000
0BEAAAF400
3FD000BD00
BFD3FFFE00
FFD3FFFF00
FFD3FFFF40
FFD156FF40
FFD156FF40
FFD3FFFF40
FFD3FFFF40
FFD3FFFF40
FFD3FFFF40
FFE7FFFF40
FFFFFFFF40
FFFFFFFF40
BFFFFFFF00
7FFFFFFD00
1FFFFFF800
02FFFF9000
ENDCHAR
STARTCHAR g
ENCODING 103
SWIDTH 578 0
DWIDTH 16 0
BBX 17 19 0 0
BITMAP
01AAAA4000
0BFAAAF400
3FC000BD00
BF8BFFFE00
FF8FFFFF00
FF8FFFFF40
FF8FFFFF40
FF8FC03F40
FF8FE93F40
FF8FFE3F40
FF8BFE3F40
FFC5543F40
FFE555BF40
FFFFFFFF40
FFFFFFFF40
BFFFFFFF00
7FFFFFFD00
1FFFFFF800
02FFFF9000
ENDCHAR
STARTCHAR h
ENCODING 104
SWIDTH 578 0
DWIDTH 16 0
BBX 17 19 0 0
BITMAP
01AAAA4000
0BAFFEB400
3F4FFE3D00
BF4FFE3E00
FF4FFE3F00
FF4FFE3F40
FF45553F40
FF45553F40
FF4FFE3F40
FF4FFE3F40
FF4FFE3F40
FF4FFE3F40
FF9FFE7F40
FFFFFFFF40
FFFFFFFF40
BFFFFFFF00
7FFFFFFD00
1FFFFFF800
02FFFF9000
ENDCHAR
STARTCHAR i
ENCODING 105
SWIDTH 578 0
DWIDTH 16 0
BBX 17 19 0 0
BITMAP
01AAAA4000
0BEAAAB400
3FC0007D00
BFFF1FFE00
FFFF1FFF00
FFFF1FFF40
FFFF1FFF40
FFFF1FFF40
FFFF1FFF40
FFFF1FFF40
FFFF1FFF40
FFD5057F40
FFD5557F40
FFFFFFFF40
FFFFFFFF40
BFFFFFFF00
7FFFFFFD00
1FFFFFF800
02FFFF9000
ENDCHAR
STARTCHAR j
ENCODING 106
SWIDTH 578 0
DWIDTH 16 0
BBX 17 19 0 0
BITMAP
01AAAA4000
0BFFEBF400
3FFFD7FD00
BFFFD7FE00
FFFFD7FF00
FFFFD7FF40
FFFFD7FF40
FFFFD7FF40
FFFFD7FF40
FFFFD7FF40
FFFFD7FF40
FFF547FF40
FFF55FFF40
FFFFFFFF40
FFFFFFFF40
BFFFFFFF00
7FFFFFFD00
1FFFFFF800
02FFFF9000
ENDCHAR
STARTCHAR k
ENCODING 107
SWIDTH 578 0
DWIDTH 16 0
BBX 17 19 0 0
BITMAP
01AAAA4000
0BEBFF6400
3FE3FD2D00
BFE3F4BE00
FFE3D2FF00
FFE34BFF40
FFE12FFF40
FFE02FFF40
FFE24BFF40
FFE3D2FF40
FFE3F0FF40
FFE3FC3F40
FFE7FE7F40
FFFFFFFF40
FFFFFFFF40
BFFFFFFF00
7FFFFFFD00
1FFFFFF800
02FFFF9000
ENDCHAR
STARTCHAR l
ENCODING 108
SWIDTH 578 0
DWIDTH 16 0
BBX 17 19 0 0
BITMAP
01AAAA4000
0BFAFFF400
3FF1FFFD00
BFF1FFFE00
FFF1FFFF00
FFF1FFFF40
FFF1FFFF40
FFF1FFFF40
FFF1FFFF40
FFF1FFFF40
FFF1FFFF40
FFF055FF40
FFF555FF40
FFFFFFFF40
FFFFFFFF40
BFFFFFFF00
7FFFFFFD00
1FFFFFF800
02FFFF9000
ENDCHAR
STARTCHAR m
ENCODING 109
SWIDTH 578 0
DWIDTH 16 0
BBX 17 19 0 0
BITMAP
01AAAA4000
0BAAEAB400
3E00402D00
BE3E2F1E00
FE3E2F1F00
FE3E2F1F40
FE3E2F1F40
FE3E2F1F40
FE3E2F1F40
FE3FFF1F40
FE3FFF1F40
FE3FFF1F40
FE7FFF6F40
FFFFFFFF40
FFFFFFFF40
BFFFFFFF00
7FFFFFFD00
1FFFFFF800
02FFFF9000
ENDCHAR
STARTCHAR n
ENCODING 110
SWIDTH 578 0
DWIDTH 16 0
BBX 17 19 0 0
BITMAP
01AAAA4000
0BEAAAF400
3F4000BD00
BF4FFD7E00
FF4FFD7F00
FF4FFD7F40
FF4FFD7F40
FF4FFD7F40
FF4FFD7F40
FF4FFD7F40
FF4FFD7F40
FF4FFD7F40
FF9FFD7F40
FFFFFFFF40
FFFFFFFF40
BFFFFFFF00
7FFFFFFD00
1FFFFFF800
02FFFF9000
ENDCHAR
STARTCHAR o
ENCODING 111
SWIDTH 578 0
DWIDTH 16 0
BBX 17 19 0 0
BITMAP
01AAAA4000
0BEAAAF400
3F80007D00
BF4FFD3E00
FF4FFE3F00
FF4FFE3F40
FF4FFE3F40
FF4FFE3F40
FF4FFE3F40
FF4FFE3F40
FF4FFE3F40
FF85543F40
FFD555BF40
FFFFFFFF40
FFFFFFFF40
BFFFFFFF00
7FFFFFFD00
1FFFFFF800
02FFFF9000
ENDCHAR
STARTCHAR p
ENCODING 112
SWIDTH 578 0
DWIDTH 16 0
BBX 17 19 0 0
BITMAP
01AAAA4000
0BEAAAF400
3FC000BD00
BFC7FD7E00
FFC7FD7F00
FFC7FD7F40
FFC7FD7F40
FFC1547F40
FFC155FF40
FFC7FFFF40
FFC7FFFF40
FFC7FFFF40
FFDBFFFF40
FFFFFFFF40
FFFFFFFF40
BFFFFFFF00
7FFFFFFD00
1FFFFFF800
02FFFF9000
ENDCHAR
STARTCHAR q
ENCODING 113
SWIDTH 578 0
DWIDTH 16 0
BBX 17 19 0 0
BITMAP
01AAAA4000
0BEAAAF400
3F80007D00
BF8FFD3E00
FF4FFE3F00
FF4FFE3F40
FF4FFE3F40
FF4FFE3F40
FF4FFE3F40
FF4FFE3F40
FF4F5E3F40
FF85443F40
FFD541BF40
FFFFE2FF40
FFFFF6FF40
BFFFFFFF00
7FFFFFFD00
1FFFFFF800
02FFFF9000
ENDCHAR
STARTCHAR r
ENCODING 114
SWIDTH 578 0
DWIDTH 16 0
BBX 17 19 0 0
BITMAP
01AAAA4000
0BEAABF400
3F8001FD00
BF8BF8FE00
FF8BF8BF00
FF8BF8BF40
FF8AA5FF40
FF8007FF40
FF8AA4FF40
FF8BFCBF40
FF8BFCBF40
FF8BFCBF40
FF9FFDBF40
FFFFFFFF40
FFFFFFFF40
BFFFFFFF00
7FFFFFFD00
1FFFFFF800
02FFFF9000
ENDCHAR
STARTCHAR s
ENCODING 115
SWIDTH 578 0
DWIDTH 16 0
BBX 17 19 0 0
BITMAP
01AAAA4000
0BFAAAF400
3FC000BD00
BF8BFFFE00
FF8BFFFF00
FF8BFFFF40
FFC156FF40
FFE5547F40
FFFFFD7F40
FFFFFD7F40
FFFFFD7F40
FFE5547F40
FFD555FF40
FFFFFFFF40
FFFFFFFF40
BFFFFFFF00
7FFFFFFD00
1FFFFFF800
02FFFF9000
ENDCHAR
STARTCHAR t
ENCODING 116
SWIDTH 578 0
DWIDTH 16 0
BBX 17 19 0 0
BITMAP
01AAAA4000
0BEAAAB400
3FC0007D00
BFFF1FFE00
FFFF1FFF00
FFFF1FFF40
FFFF1FFF40
FFFF1FFF40
FFFF1FFF40
FFFF1FFF40
FFFF1FFF40
FFFF1FFF40
FFFF6FFF40
FFFFFFFF40
FFFFFFFF40
BFFFFFFF00
7FFFFFFD00
1FFFFFF800
02FFFF9000
ENDCHAR
STARTCHAR u
ENCODING 117
SWIDTH 578 0
DWIDTH 16 0
BBX 17 19 0 0
BITMAP
01AAAA4000
0BAFFEB400
3F5FFD3D00
BF5FFD3E00
FF5FFD3F00
FF5FFD3F40
FF5FFD3F40
FF5FFD3F40
FF5FFD3F40
FF5FFD3F40
FF4FFD3F40
FF85547F40
FFD555FF40
FFFFFFFF40
FFFFFFFF40
BFFFFFFF00
7FFFFFFD00
1FFFFFF800
02FFFF9000
ENDCHAR
STARTCHAR v
ENCODING 118
SWIDTH 578 0
DWIDTH 16 0
BBX 17 19 0 0
BITMAP
01AAAA4000
0BAFFEB400
3F4FFD7D00
BF8BFC7E00
FFC7F8BF00
FFD7F4FF40
FFD3F1FF40
FFE2F2FF40
FFF1E2FF40
FFF5D3FF40
FFF8C7FF40
FFFC4BFF40
FFFE5FFF40
FFFFFFFF40
FFFFFFFF40
BFFFFFFF00
7FFFFFFD00
1FFFFFF800
02FFFF9000
ENDCHAR
STARTCHAR w
ENCODING 119
SWIDTH 578 0
DWIDTH 16 0
BBX 17 19 0 0
BITMAP
01AAAA4000
0ABFFFA400
3C7E2F4D00
BD7E2F1E00
FD3D1F1F00
FD3D1F1F40
FE3C4F2F40
FE388E2F40
FE288A2F40
FF24CA3F40
FF25C63F40
FF11D03F40
FF97F5BF40
FFFFFFFF40
FFFFFFFF40
BFFFFFFF00
7FFFFFFD00
1FFFFFF800
02FFFF9000
ENDCHAR
STARTCHAR x
ENCODING 120
SWIDTH 578 0
DWIDTH 16 0
BBX 17 19 0 0
BITMAP
01AAAA4000
0BEFFFB400
3F8BFD3D00
BFD3F8BE00
FFF1F1FF00
FFF893FF40
FFFD0BFF40
FFFD0BFF40
FFF847FF40
FFF4E2FF40
FFE2F4FF40
FFC7FC7F40
FF9FFE7F40
FFFFFFFF40
FFFFFFFF40
BFFFFFFF00
7FFFFFFD00
1FFFFFF800
02FFFF9000
ENDCHAR
STARTCHAR y
ENCODING 121
SWIDTH 578 0
DWIDTH 16 0
BBX 17 19 0 0
BITMAP
01AAAA4000
0BEBFEB400
3FC7F8BD00
BFD3F4FE00
FFE2F1FF00
FFF4E2FF40
FFF887FF40
FFFC0BFF40
FFFE0FFF40
FFFF1FFF40
FFFF2FFF40
FFFF2FFF40
FFFF6FFF40
FFFFFFFF40
FFFFFFFF40
BFFFFFFF00
7FFFFFFD00
1FFFFFF800
02FFFF9000
ENDCHAR
STARTCHAR z
ENCODING 122
SWIDTH 578 0
DWIDTH 16 0
BBX 17 19 0 0
BITMAP
01AAAA4000
0BEAABF400
3FD001FD00
BFFFE2FE00
FFFFC7FF00
FFFF8BFF40
FFFF1FFF40
FFFD3FFF40
FFFC7FFF40
FFF4FFFF40
FFE2FFFF40
FFD155FF40
FFE555FF40
FFFFFFFF40
FFFFFFFF40
BFFFFFFF00
7FFFFFFD00
1FFFFFF800
02FFFF9000
ENDCHAR
STARTCHAR braceleft
ENCODING 123
SWIDTH 484 0
DWIDTH 14 0
BBX 14 19 0 0
BITMAP
01AA9000
0BE57E00
3FC17F80
BFCBFFD0
FFCBFFE0
FFCBFFE0
FF8BFFE0
F40FFFE0
FA4BFFE0
FFCBFFE0
FFCBFFE0
FFCBFFE0
FFC6BFE0
FFD03FE0
FFFEBFE0
BFFFFFD0
7FFFFF80
1FFFFE00
02FFE400
ENDCHAR
STARTCHAR bar
ENCODING 124
SWIDTH 484 0
DWIDTH 14 0
BBX 14 19 0 0
BITMAP
01A19000
0BF6FE00
3FF6FF80
BFF6FFD0
FFF6FFE0
FFF6FFE0
FFF6FFE0
FFF6FFE0
FFF6FFE0
FFF6FFE0
FFF6FFE0
FFF6FFE0
FFF6FFE0
FFF6FFE0
FFFFFFE0
BFFFFFD0
7FFFFF80
1FFFFE00
02FFE400
ENDCHAR
STARTCHAR braceright
ENCODING 125
SWIDTH 484 0
DWIDTH 14 0
BBX 14 19 0 0
BITMAP
01AA9000
0B95FE00
3F94BF80
BFFD7FD0
FFFD7FE0
FFFD7FE0
FFFD7FE0
FFFD02E0
FFFD2BE0
FFFD7FE0
FFFD7FE0
FFFD7FE0
FFE87FE0
FF80BFE0
FFEBFFE0
BFFFFFD0
7FFFFF80
1FFFFE00
02FFE400
ENDCHAR
STARTCHAR asciitilde
ENCODING 126
SWIDTH 578 0
DWIDTH 16 0
BBX 17 19 0 0
BITMAP
01AAAA4000
0BFFFFF400
3FFFFFFD00
BFFFFFFE00
FFEBFDFF00
FF8068FF40
FF5E41FF40
FFFFFFFF40
FFFFFFFF40
FFFFFFFF40
FFFFFFFF40
FFFFFFFF40
FFFFFFFF40
FFFFFFFF40
FFFFFFFF40
BFFFFFFF00
7FFFFFFD00
1FFFFFF800
02FFFF9000
ENDCHAR
STARTCHAR uni00A0
ENCODING 160
SWIDTH 151 0
DWIDTH 4 0
BBX 1 1 0 0
BITMAP
00
ENDCHAR
STARTCHAR exclamdown
ENCODING 161
SWIDTH 424 0
DWIDTH 12 0
BBX 12 19 0 0
BITMAP
01AA40
0BEBE0
3FD7FC
BFFFFD
FFE7FE
FFE7FF
FFE7FF
FFE7FF
FFE7FF
FFE7FF
FFE7FF
FFE7FF
FFE7FF
FFFFFF
FFFFFF
BFFFFE
7FFFFC
1FFFF4
02FE80
ENDCHAR
STARTCHAR cent
ENCODING 162
SWIDTH 578 0
DWIDTH 16 0
BBX 17 19 0 0
BITMAP
01AAAA4000
0BFF3FF400
3FFE3FFD00
BFE002FE00
FFC62BFF00
FFCB3FFF40
FFCB3FFF40
FFCB3FFF40
FFCB3FFF40
FFCB3FFF40
FFC62BFF40
FFD002FF40
FFFA2BFF40
FFFF3FFF40
FFFFBFFF40
BFFFFFFF00
7FFFFFFD00
1FFFFFF800
02FFFF9000
ENDCHAR
STARTCHAR sterling
ENCODING 163
SWIDTH 578 0
DWIDTH 16 0
BBX 17 19 0 0
BITMAP
01AAAA4000
0BFEABF400
3FF002FD00
BFF2F1FE00
FFF2F6FF00
FFF2FFFF40
FFE2FFFF40
FFC007FF40
FFF2FFFF40
FFF2FFFF40
FFF2FFFF40
FFF156FF40
FFF556FF40
FFFFFFFF40
FFFFFFFF40
BFFFFFFF00
7FFFFFFD00
1FFFFFF800
02FFFF9000
ENDCHAR
STARTCHAR currency
ENCODING 164
SWIDTH 578 0
DWIDTH 16 0
BBX 17 19 0 0
BITMAP
01AAAA4000
0BFFFFF400
3F8AA97D00
BFD150FE00
FFD7F8FF00
FFD7F8FF40
FFD7F8FF40
FFD7F8FF40
FFD2A5FF40
FF8404BF40
FFDFFEBF40
FFFFFFFF40
FFFFFFFF40
FFFFFFFF40
FFFFFFFF40
BFFFFFFF00
7FFFFFFD00
1FFFFFF800
02FFFF9000
ENDCHAR
STARTCHAR yen
ENCODING 165
SWIDTH 578 0
DWIDTH 16 0
BBX 17 19 0 0
BITMAP
01AAAA4000
0BAFFAF400
3F8BF4FD00
BFC7F1FE00
FFD3E3FF00
FFE2C7FF40
FFF58BFF40
FFF80FFF40
FFE417FF40
FFE517FF40
FFE003FF40
FFFD3FFF40
FFFE7FFF40
FFFFFFFF40
FFFFFFFF40
BFFFFFFF00
7FFFFFFD00
1FFFFFF800
02FFFF9000
ENDCHAR
STARTCHAR brokenbar
ENCODING 166
SWIDTH 484 0
DWIDTH 14 0
BBX 14 19 0 0
BITMAP
01AA9000
0BFAFE00
3FF1FF80
BFF1FFD0
FFF1FFE0
FFF1FFE0
FFFBFFE0
FFFBFFE0
FFF1FFE0
FFF1FFE0
FFF1FFE0
FFF1FFE0
FFF6FFE0
FFFFFFE0
FFFFFFE0
BFFFFFD0
7FFFFF80
1FFFFE00
02FFE400
ENDCHAR
STARTCHAR section
ENCODING 167
SWIDTH 578 0
DWIDTH 16 0
BBX 17 19 0 0
BITMAP
01AAAA4000
0BFAAAF400
3FD154FD00
BFCFFFFE00
FFCFFFFF00
FFC55FFF40
FFF157FF40
FFF3E3FF40
FFF2E7FF40
FFF802FF40
FFFFF8FF40
FFFFF8FF40
FFFFF9FF40
FF8002FF40
FFFFFFFF40
BFFFFFFF00
7FFFFFFD00
1FFFFFF800
02FFFF9000
ENDCHAR
STARTCHAR dieresis
ENCODING 168
SWIDTH 388 0
DWIDTH 11 0
BBX 11 8 0 0
BITMAP
06FE40
2FFFE0
BFFFF8
F9B9FC
F8B4FC
BEFEF8
7FFFF0
155540
ENDCHAR
STARTCHAR copyright
ENCODING 169
SWIDTH 578 0
DWIDTH 16 0
BBX 17 19 0 0
BITMAP
01AAAA4000
0BFA6BF400
3F96A5FD00
BE2FFE2E00
FCF0038F00
F6F3FFDB40
F3E3FFE740
F3E3FFF340
F3E3FFF340
F7E3FFE740
F9F2ABDB40
FCB5579F40
FE2FFD3F40
FFD151FF40
FFFEAFFF40
BFFFFFFF00
7FFFFFFD00
1FFFFFF800
02FFFF9000
ENDCHAR
STARTCHAR ordfeminine
ENCODING 170
SWIDTH 578 0
DWIDTH 16 0
BBX 17 19 0 0
BITMAP
01AAAA4000
0BFAABF400
3FF001FD00
BFFFF4FE00
FFFFF8FF00
FFFAA4FF40
FFD000FF40
FFC7F4FF40
FFC7F8FF40
FFD150FF40
FFF506FF40
FFFFFFFF40
FFFFFFFF40
FFFFFFFF40
FFFFFFFF40
BFFFFFFF00
7FFFFFFD00
1FFFFFF800
02FFFF9000
ENDCHAR
STARTCHAR guillemotleft
ENCODING 171
SWIDTH 578 0
DWIDTH 16 0
BBX 17 19 0 0
BITMAP
01AAAA4000
0BFFFFF400
3FFFFFFD00
BFFDF6FE00
FFF5E7FF00
FFE7CFFF40
FFCB6FFF40
FF6D7FFF40
FF6DBFFF40
FFCF2FFF40
FFE78FFF40
FFF6E7FF40
FFFCF6FF40
FFFFFFFF40
FFFFFFFF40
BFFFFFFF00
7FFFFFFD00
1FFFFFF800
02FFFF9000
ENDCHAR
STARTCHAR uni00AD
ENCODING 173
SWIDTH 428 0
DWIDTH 12 0
BBX 12 19 0 0
BITMAP
01AA40
0BFFE0
3FFFFC
BFFFFE
FFFFFF
FD007F
FEAABF
FFFFFF
FFFFFF
FFFFFF
FFFFFF
FFFFFF
FFFFFF
FFFFFF
FFFFFF
BFFFFE
7FFFFD
1FFFF4
02FF80
ENDCHAR
STARTCHAR registered
ENCODING 174
SWIDTH 578 0
DWIDTH 16 0
BBX 17 19 0 0
BITMAP
01AAAA4000
0BFA6BF400
3F96A5FD00
BE2ABE2E00
FCF1438F00
F6F3F2DB40
F3F3F6E740
F3F297F340
F3F157F340
F7F3F6E740
F9F3F6DB40
FCB7F69F40
FE2FFD3F40
FFD151FF40
FFFEAFFF40
BFFFFFFF00
7FFFFFFD00
1FFFFFF800
02FFFF9000
ENDCHAR
STARTCHAR macron
ENCODING 175
SWIDTH 428 0
DWIDTH 12 0
BBX 12 8 0 0
BITMAP
06FF90
2FFFF8
BFFFFE
FEAAFF
FD00BF
BFFFFE
7FFFFD
1FFFF4
ENDCHAR
STARTCHAR degree
ENCODING 176
SWIDTH 428 0
DWIDTH 12 0
BBX 12 19 0 0
BITMAP
01AA40
0BEBE0
3E00BC
BE7DBE
FE7DBF
FE00BF
FFEBFF
FFFFFF
FFFFFF
FFFFFF
FFFFFF
FFFFFF
FFFFFF
FFFFFF
FFFFFF
BFFFFE
7FFFFD
1FFFF4
02FF80
ENDCHAR
STARTCHAR plusminus
ENCODING 177
SWIDTH 428 0
DWIDTH 12 0
BBX 12 19 0 0
BITMAP
01AA40
0BEBE0
3FD7FC
BFD7FE
F9416F
F9416F
FFD7FF
FFD7FF
FFEBFF
FE55BF
FE00BF
FFFFFF
FFFFFF
FFFFFF
FFFFFF
BFFFFE
7FFFFD
1FFFF4
02FF80
ENDCHAR
STARTCHAR uni00B2
ENCODING 178
SWIDTH 578 0
DWIDTH 16 0
BBX 17 19 0 0
BITMAP
01AAAA4000
0BFAAFF400
3FE003FD00
BFE7E2FE00
FFFE53FF00
FFE01BFF40
FFD3FFFF40
FFD15BFF40
FFE007FF40
FFFFFFFF40
FFFFFFFF40
FFFFFFFF40
FFFFFFFF40
FFFFFFFF40
FFFFFFFF40
BFFFFFFF00
7FFFFFFD00
1FFFFFF800
02FFFF9000
ENDCHAR
STARTCHAR uni00B3
ENCODING 179
SWIDTH 578 0
DWIDTH 16 0
BBX 17 19 0 0
BITMAP
01AAAA4000
0BFEABF400
3FF001FD00
BFE7F8FE00
FFFF54FF00
FFFF50FF40
FFFBF8FF40
FFE150FF40
FFF906FF40
FFFFFFFF40
FFFFFFFF40
FFFFFFFF40
FFFFFFFF40
FFFFFFFF40
FFFFFFFF40
BFFFFFFF00
7FFFFFFD00
1FFFFFF800
02FFFF9000
ENDCHAR
STARTCHAR acute
ENCODING 180
SWIDTH 308 0
DWIDTH 9 0
BBX 9 10 0 0
BITMAP
015000
1FFE00
2FFF40
3F2F80
7E3F40
BD7F00
FCFD00
FEF800
BFF000
2A9000
ENDCHAR
STARTCHAR uni00B5
ENCODING 181
SWIDTH 578 0
DWIDTH 16 0
BBX 17 19 0 0
BITMAP
01AAAA4000
0BAFFEB400
3F2FFC7D00
BF2FFC7E00
FF2FFC7F00
FF2FFC7F40
FF2FFC7F40
FF2FFC7F40
FF2FFC7F40
FF2FFC7F40
FF2FFC7F40
FF0554BF40
FF1555FF40
FF2FFFFF40
FF6FFFFF40
BFFFFFFF00
7FFFFFFD00
1FFFFFF800
02FFFF9000
ENDCHAR
STARTCHAR paragraph
ENCODING 182
SWIDTH 578 0
DWIDTH 16 0
BBX 17 19 0 0
BITMAP
01AAAA4000
0BFAAAF400
3F8005FD00
BF401DFE00
FF401DFF00
FF401DFF40
FF801DFF40
FFE55DFF40
FFFF9DFF40
FFFF9DFF40
FFFF9DFF40
FFFF9DFF40
FFFFEEFF40
FFFFFFFF40
FFFFFFFF40
BFFFFFFF00
7FFFFFFD00
1FFFFFF800
02FFFF9000
ENDCHAR
STARTCHAR periodcentered
ENCODING 183
SWIDTH 428 0
DWIDTH 12 0
BBX 12 19 0 0
BITMAP
01AA40
0BFFE0
3FFFFC
BFFFFE
FFFFFF
FFC3FF
FFD7FF
FFFFFF
FFFFFF
FFFFFF
FFFFFF
FFFFFF
FFFFFF
FFFFFF
FFFFFF
BFFFFE
7FFFFD
1FFFF4
02FF80
ENDCHAR
STARTCHAR cedilla
ENCODING 184
SWIDTH 101 0
DWIDTH 3 0
BBX 3 5 0 -5
BITMAP
68
E4
D0
BC
14
ENDCHAR
STARTCHAR uni00B9
ENCODING 185
SWIDTH 578 0
DWIDTH 16 0
BBX 17 19 0 0
BITMAP
01AAAA4000
0BFE7FF400
3FF02FFD00
BFFA2FFE00
FFFE2FFF00
FFFE2FFF40
FFFE2FFF40
FFFE2FFF40
FFFE2FFF40
FFFFFFFF40
FFFFFFFF40
FFFFFFFF40
FFFFFFFF40
FFFFFFFF40
FFFFFFFF40
BFFFFFFF00
7FFFFFFD00
1FFFFFF800
02FFFF9000
ENDCHAR
STARTCHAR ordmasculine
ENCODING 186
SWIDTH 578 0
DWIDTH 16 0
BBX 17 19 0 0
BITMAP
01AAAA4000
0BFAAAF400
3FD000BD00
BFCBFD7E00
FFCBFD7F00
FFCBFD7F40
FFCBFD7F40
FFCBFD7F40
FFCBFD7F40
FFC1547F40
FFE405FF40
FFFFFFFF40
FFFFFFFF40
FFFFFFFF40
FFFFFFFF40
BFFFFFFF00
7FFFFFFD00
1FFFFFF800
02FFFF9000
ENDCHAR
STARTCHAR guillemotright
ENCODING 187
SWIDTH 578 0
DWIDTH 16 0
BBX 17 19 0 0
BITMAP
01AAAA4000
0BFFFFF400
3FFFFFFD00
BF9F3FFE00
FFDB9FFF00
FFF2DBFF40
FFF8F2FF40
FFFE79FF40
FFFE38FF40
FFFCF6FF40
FFF6D7FF40
FFE79FFF40
FF9F2FFF40
FFFFFFFF40
FFFFFFFF40
BFFFFFFF00
7FFFFFFD00
1FFFFFF800
02FFFF9000
ENDCHAR
STARTCHAR onequarter
ENCODING 188
SWIDTH 578 0
DWIDTH 16 0
BBX 17 19 0 0
BITMAP
01AAAA4000
0A7FBFF400
302E3FFD00
BA2D3FFE00
FF2C7FFF00
FF2CBFFF40
FF289F6F40
FF248B5F40
FF218B5F40
FFF28B5F40
FFE3C61B40
FFD3D00240
FFD7FF5F40
FFFFFF5F40
FFFFFFFF40
BFFFFFFF00
7FFFFFFD00
1FFFFFF800
02FFFF9000
ENDCHAR
STARTCHAR onehalf
ENCODING 189
SWIDTH 578 0
DWIDTH 16 0
BBX 17 19 0 0
BITMAP
01AAAA4000
0A7FBFF400
302E3FFD00
BA2D3FFE00
FF2C7FFF00
FF2CB96F40
FF28C00B40
FF24DBD740
FF21F94740
FFF2C05F40
FFE3CBFF40
FFD3C55F40
FFD7D55F40
FFFFFFFF40
FFFFFFFF40
BFFFFFFF00
7FFFFFFD00
1FFFFFF800
02FFFF9000
ENDCHAR
STARTCHAR threequarters
ENCODING 190
SWIDTH 578 0
DWIDTH 16 0
BBX 17 19 0 0
BITMAP
01AAAA4000
0A7FBFF400
302E3FFD00
BA2D3FFE00
FF2C7FFF00
FF2CB96F40
FF28800340
FF24DFE240
FF21FD5340
FFF2FD5340
FFE3EFE240
FFD3855340
FFD7E55B40
FFFFFFFF40
FFFFFFFF40
BFFFFFFF00
7FFFFFFD00
1FFFFFF800
02FFFF9000
ENDCHAR
STARTCHAR questiondown
ENCODING 191
SWIDTH 578 0
DWIDTH 16 0
BBX 17 19 0 0
BITMAP
01AAAA4000
0BFFAFF400
3FFF5FFD00
BFFFAFFE00
FFFF9FFF00
FFFF5FFF40
FFE01FFF40
FFCBFFFF40
FFCBFFFF40
FFCBFFFF40
FFCBFDBF40
FFD154BF40
FFFAAAFF40
FFFFFFFF40
FFFFFFFF40
BFFFFFFF00
7FFFFFFD00
1FFFFFF800
02FFFF9000
ENDCHAR
STARTCHAR Agrave
ENCODING 192
SWIDTH 578 0
DWIDTH 16 0
BBX 17 27 0 0
BITMAP
0015000000
01FFD00000
07FFF00000
07E2F40000
03F5F80000
02F8FC0000
00FDBD0000
007EBD0000
01BFFE4000
0BFFFFF400
3FD001FD00
BFC7F4FE00
FFCBF8FF00
FFCBF8BF40
FF8BFCBF40
FF8554BF40
FF85547F40
FF4FFC7F40
FF5FFD7F40
FF5FFD3F40
FF5FFE7F40
FFFFFFFF40
FFFFFFFF40
BFFFFFFF00
7FFFFFFD00
1FFFFFF800
02FFFF9000
ENDCHAR
STARTCHAR Aacute
ENCODING 193
SWIDTH 578 0
DWIDTH 16 0
BBX 17 27 0 0
BITMAP
0000540000
0003FF8000
000BFFE000
000FC7E000
001F8FD000
002F5FC000
003F3F4000
003FBE0000
01BFFE4000
0BFFFFF400
3FD001FD00
BFC7F4FE00
FFCBF8FF00
FFCBF8BF40
FF8BFCBF40
FF8554BF40
FF85547F40
FF4FFC7F40
FF5FFD7F40
FF5FFD3F40
FF5FFE7F40
FFFFFFFF40
FFFFFFFF40
BFFFFFFF00
7FFFFFFD00
1FFFFFF800
02FFFF9000
ENDCHAR
STARTCHAR Acircumflex
ENCODING 194
SWIDTH 578 0
DWIDTH 16 0
BBX 17 27 0 0
BITMAP
0007F40000
001FFD0000
003FBE0000
007E2F4000
00BC9F8000
00F9CFC000
01F6D7D000
02FBFBD000
02FFFFD000
0BFFFFF400
3FD001FD00
BFC7F4FE00
FFCBF8FF00
FFCBF8BF40
FF8BFCBF40
FF8554BF40
FF85547F40
FF4FFC7F40
FF5FFD7F40
FF5FFD3F40
FF5FFE7F40
FFFFFFFF40
FFFFFFFF40
BFFFFFFF00
7FFFFFFD00
1FFFFFF800
02FFFF9000
ENDCHAR
STARTCHAR Atilde
ENCODING 195
SWIDTH 578 0
DWIDTH 16 0
BBX 17 27 0 0
BITMAP
001BF90000
00BFFF8000
02FFFFE000
07FFFFF400
07FFFFF400
0BE5B2F800
07D102F400
03EBEBF000
02FFFFD000
0BFAABF400
3FD001FD00
BFC7F4FE00
FFCBF8FF00
FFCBF8BF40
FF8BFCBF40
FF8554BF40
FF85547F40
FF4FFC7F40
FF5FFD7F40
FF5FFD3F40
FF5FFE7F40
FFFFFFFF40
FFFFFFFF40
BFFFFFFF00
7FFFFFFD00
1FFFFFF800
02FFFF9000
ENDCHAR
STARTCHAR Adieresis
ENCODING 196
SWIDTH 578 0
DWIDTH 16 0
BBX 17 25 0 0
BITMAP
001BF90000
00BFFF8000
02FFFFE000
03F6E7F000
03E1D3F000
02FBFBE000
01FFFFD000
0BFFFFF400
3FD001FD00
BFC7F4FE00
FFCBF8FF00
FFCBF8BF40
FF8BFCBF40
FF8554BF40
FF85547F40
FF4FFC7F40
FF5FFD7F40
FF5FFD3F40
FF5FFE7F40
FFFFFFFF40
FFFFFFFF40
BFFFFFFF00
7FFFFFFD00
1FFFFFF800
02FFFF9000
ENDCHAR
STARTCHAR Aring
ENCODING 197
SWIDTH 578 0
DWIDTH 16 0
BBX 17 27 0 0
BITMAP
0006A40000
003FFE0000
00FFBF8000
01F40BD000
02F3E7D000
02F2E7E000
02F40BD000
01FFFFD000
01FFFFC000
0BFAABF400
3FD001FD00
BFC7F4FE00
FFCBF8FF00
FFCBF8BF40
FF8BFCBF40
FF8554BF40
FF85547F40
FF4FFC7F40
FF5FFD7F40
FF5FFD3F40
FF5FFE7F40
FFFFFFFF40
FFFFFFFF40
BFFFFFFF00
7FFFFFFD00
1FFFFFF800
02FFFF9000
ENDCHAR
STARTCHAR AE
ENCODING 198
SWIDTH 578 0
DWIDTH 16 0
BBX 17 19 0 0
BITMAP
01AAAA4000
0BE955B400
3F80003D00
BF4F2FFE00
FF5F2FFF00
FF5F2FFF40
FF1F157F40
FF2F057F40
FF2F2FFF40
FE152FFF40
FE002FFF40
FE3F157F40
FE7F557F40
FFFFFFFF40
FFFFFFFF40
BFFFFFFF00
7FFFFFFD00
1FFFFFF800
02FFFF9000
ENDCHAR
STARTCHAR Ccedilla
ENCODING 199
SWIDTH 578 0
DWIDTH 16 0
BBX 17 19 0 0
BITMAP
01AAAA4000
0BEAAAF400
3F8002FD00
BF5FFFFE00
FF5FFFFF00
FF5FFFFF40
FF5FFFFF40
FF5FFFFF40
FF5FFFFF40
FF5FFFFF40
FF5FFFFF40
FF4556FF40
FFD516FF40
FFFD3FFF40
FFF5BFFF40
BFF5FFFF00
7FF83FFD00
1FFFFFF800
02FFFF9000
ENDCHAR
STARTCHAR Egrave
ENCODING 200
SWIDTH 578 0
DWIDTH 16 0
BBX 17 27 0 0
BITMAP
0015400000
01FFE00000
03FFF40000
03F1F80000
03F8FC0000
01FCBD0000
00BD7D0000
007FBE0000
01BFFF4000
0BEFFAF400
3FE000BD00
BFE3FFFE00
FFE3FFFF00
FFE3FFFF40
FFE156FF40
FFE002FF40
FFE3FFFF40
FFE3FFFF40
FFE3FFFF40
FFE155BF40
FFE555BF40
FFFFFFFF40
FFFFFFFF40
BFFFFFFF00
7FFFFFFD00
1FFFFFF800
02FFFF9000
ENDCHAR
STARTCHAR Eacute
ENCODING 201
SWIDTH 578 0
DWIDTH 16 0
BBX 17 27 0 0
BITMAP
0000550000
0002FF8000
0007FFE000
000BD7F000
000FCBE000
001F8FD000
002F6F8000
002FBF0000
01BFFF4000
0BEFFEF400
3FE000BD00
BFE3FFFE00
FFE3FFFF00
FFE3FFFF40
FFE156FF40
FFE002FF40
FFE3FFFF40
FFE3FFFF40
FFE3FFFF40
FFE155BF40
FFE555BF40
FFFFFFFF40
FFFFFFFF40
BFFFFFFF00
7FFFFFFD00
1FFFFFF800
02FFFF9000
ENDCHAR
STARTCHAR Ecircumflex
ENCODING 202
SWIDTH 578 0
DWIDTH 16 0
BBX 17 27 0 0
BITMAP
0006F80000
000FFE0000
002FBF0000
003E1F8000
007D8FC000
00FCDBD000
00F9E7E000
01FBFBE000
01FFFFE000
0BFFFFF400
3FE000BD00
BFE3FFFE00
FFE3FFFF00
FFE3FFFF40
FFE156FF40
FFE002FF40
FFE3FFFF40
FFE3FFFF40
FFE3FFFF40
FFE155BF40
FFE555BF40
FFFFFFFF40
FFFFFFFF40
BFFFFFFF00
7FFFFFFD00
1FFFFFF800
02FFFF9000
ENDCHAR
STARTCHAR Edieresis
ENCODING 203
SWIDTH 578 0
DWIDTH 16 0
BBX 17 25 0 0
BITMAP
001BFE0000
00BFFFD000
01FFFFF000
02F6E6F400
02F1E2F400
01FBFBF000
01FFFFD000
0BFFFFF400
3FE000BD00
BFE3FFFE00
FFE3FFFF00
FFE3FFFF40
FFE156FF40
FFE002FF40
FFE3FFFF40
FFE3FFFF40
FFE3FFFF40
FFE155BF40
FFE555BF40
FFFFFFFF40
FFFFFFFF40
BFFFFFFF00
7FFFFFFD00
1FFFFFF800
02FFFF9000
ENDCHAR
STARTCHAR Igrave
ENCODING 204
SWIDTH 578 0
DWIDTH 16 0
BBX 17 27 0 0
BITMAP
0015400000
00BFE00000
03FFF40000
03F5F80000
02F8FC0000
01FCBD0000
00BE7E0000
003FBE0000
01BFFF4000
0BEFFEB400
3FC0007D00
BFFF1FFE00
FFFF1FFF00
FFFF1FFF40
FFFF1FFF40
FFFF1FFF40
FFFF1FFF40
FFFF1FFF40
FFFF1FFF40
FFD5057F40
FFD5557F40
FFFFFFFF40
FFFFFFFF40
BFFFFFFF00
7FFFFFFD00
1FFFFFF800
02FFFF9000
ENDCHAR
STARTCHAR Iacute
ENCODING 205
SWIDTH 578 0
DWIDTH 16 0
BBX 17 27 0 0
BITMAP
0000550000
0002FFD000
0007FFF000
000BD3F000
000FCBF000
001F8FD000
001F5F8000
002FBF4000
01BFFF4000
0BEBFEB400
3FC0007D00
BFFF1FFE00
FFFF1FFF00
FFFF1FFF40
FFFF1FFF40
FFFF1FFF40
FFFF1FFF40
FFFF1FFF40
FFFF1FFF40
FFD5057F40
FFD5557F40
FFFFFFFF40
FFFFFFFF40
BFFFFFFF00
7FFFFFFD00
1FFFFFF800
02FFFF9000
ENDCHAR
STARTCHAR Icircumflex
ENCODING 206
SWIDTH 578 0
DWIDTH 16 0
BBX 17 27 0 0
BITMAP
0006F80000
000FFE0000
001FAF4000
003F1F8000
007E9BC000
00BCE7D000
00F9F3E000
00FEFBF000
01FFFFE000
0BFFFFF400
3FC0007D00
BFFF1FFE00
FFFF1FFF00
FFFF1FFF40
FFFF1FFF40
FFFF1FFF40
FFFF1FFF40
FFFF1FFF40
FFFF1FFF40
FFD5057F40
FFD5557F40
FFFFFFFF40
FFFFFFFF40
BFFFFFFF00
7FFFFFFD00
1FFFFFF800
02FFFF9000
ENDCHAR
STARTCHAR Idieresis
ENCODING 207
SWIDTH 578 0
DWIDTH 16 0
BBX 17 25 0 0
BITMAP
001BFE0000
007FFFD000
01FFFFF000
02F5E6F400
02F0E2F400
01FFFBF000
01FFFFE000
0BFFFFF400
3FC0007D00
BFFF1FFE00
FFFF1FFF00
FFFF1FFF40
FFFF1FFF40
FFFF1FFF40
FFFF1FFF40
FFFF1FFF40
FFFF1FFF40
FFD5057F40
FFD5557F40
FFFFFFFF40
FFFFFFFF40
BFFFFFFF00
7FFFFFFD00
1FFFFFF800
02FFFF9000
ENDCHAR
STARTCHAR Eth
ENCODING 208
SWIDTH 578 0
DWIDTH 16 0
BBX 17 19 0 0
BITMAP
01AAAA4000
0BAAAAF400
3F40007D00
BF4FFD3E00
FF4FFE3F00
FF4FFE3F40
FE4BFE3F40
FE4BFE3F40
FF4FFE3F40
FF4FFE3F40
FF4FFE3F40
FF45543F40
FF9555BF40
FFFFFFFF40
FFFFFFFF40
BFFFFFFF00
7FFFFFFD00
1FFFFFF800
02FFFF9000
ENDCHAR
STARTCHAR Ntilde
ENCODING 209
SWIDTH 578 0
DWIDTH 16 0
BBX 17 27 0 0
BITMAP
001BF90000
01FFFF8000
03FFFFD000
07FFFFF000
0BFFFFF400
0BE5E3F400
0BC503F000
07EFEFE000
02FFFFC000
0BEAAAF400
3F4000BD00
BF4FFD7E00
FF4FFD7F00
FF4FFD7F40
FF4FFD7F40
FF4FFD7F40
FF4FFD7F40
FF4FFD7F40
FF4FFD7F40
FF4FFD7F40
FF9FFD7F40
FFFFFFFF40
FFFFFFFF40
BFFFFFFF00
7FFFFFFD00
1FFFFFF800
02FFFF9000
ENDCHAR
STARTCHAR Ograve
ENCODING 210
SWIDTH 578 0
DWIDTH 16 0
BBX 17 27 0 0
BITMAP
0015000000
01FFE00000
03FFF40000
07F1F80000
03F4F80000
01FCBC0000
00FDBD0000
007FBD0000
01BFFE4000
0BFFFAF400
3F80007D00
BF4FFD3E00
FF4FFE3F00
FF4FFE3F40
FF4FFE3F40
FF4FFE3F40
FF4FFE3F40
FF4FFE3F40
FF4FFE3F40
FF85543F40
FFD555BF40
FFFFFFFF40
FFFFFFFF40
BFFFFFFF00
7FFFFFFD00
1FFFFFF800
02FFFF9000
ENDCHAR
STARTCHAR Oacute
ENCODING 211
SWIDTH 578 0
DWIDTH 16 0
BBX 17 27 0 0
BITMAP
0000540000
0002FF8000
0007FFE000
000BC7F000
000FCBE000
001F9FD000
002F6F8000
002FBF0000
01BFFF4000
0BEFFEF400
3F80007D00
BF4FFD3E00
FF4FFE3F00
FF4FFE3F40
FF4FFE3F40
FF4FFE3F40
FF4FFE3F40
FF4FFE3F40
FF4FFE3F40
FF85543F40
FFD555BF40
FFFFFFFF40
FFFFFFFF40
BFFFFFFF00
7FFFFFFD00
1FFFFFF800
02FFFF9000
ENDCHAR
STARTCHAR Ocircumflex
ENCODING 212
SWIDTH 578 0
DWIDTH 16 0
BBX 17 27 0 0
BITMAP
0007F80000
001FFE0000
002FBF0000
003E1F4000
00BD8FC000
00FCDBD000
01F9E7E000
01FBFBE000
01FFFFD000
0BFFFFF400
3F80007D00
BF4FFD3E00
FF4FFE3F00
FF4FFE3F40
FF4FFE3F40
FF4FFE3F40
FF4FFE3F40
FF4FFE3F40
FF4FFE3F40
FF85543F40
FFD555BF40
FFFFFFFF40
FFFFFFFF40
BFFFFFFF00
7FFFFFFD00
1FFFFFF800
02FFFF9000
ENDCHAR
STARTCHAR Otilde
ENCODING 213
SWIDTH 578 0
DWIDTH 16 0
BBX 17 27 0 0
BITMAP
001BF90000
00BFFFC000
02FFFFF000
03FFFFF400
07FFFFF800
07F5B6F800
03E102F800
02FBEBF400
01FFFFD000
0BEAAAF400
3F80007D00
BF4FFD3E00
FF4FFE3F00
FF4FFE3F40
FF4FFE3F40
FF4FFE3F40
FF4FFE3F40
FF4FFE3F40
FF4FFE3F40
FF85543F40
FFD555BF40
FFFFFFFF40
FFFFFFFF40
BFFFFFFF00
7FFFFFFD00
1FFFFFF800
02FFFF9000
ENDCHAR
STARTCHAR Odieresis
ENCODING 214
SWIDTH 578 0
DWIDTH 16 0
BBX 17 25 0 0
BITMAP
001BFE0000
00BFFFC000
01FFFFE000
02F6E6F000
02F1E2F000
01FBFBF000
01FFFFD000
0BFFFFF400
3F80007D00
BF4FFD3E00
FF4FFE3F00
FF4FFE3F40
FF4FFE3F40
FF4FFE3F40
FF4FFE3F40
FF4FFE3F40
FF4FFE3F40
FF85543F40
FFD555BF40
FFFFFFFF40
FFFFFFFF40
BFFFFFFF00
7FFFFFFD00
1FFFFFF800
02FFFF9000
ENDCHAR
STARTCHAR multiply
ENCODING 215
SWIDTH 578 0
DWIDTH 16 0
BBX 17 19 0 0
BITMAP
01AAAA4000
0BFFFFF400
3FFFFFFD00
BFFFFFFE00
FFFBFBFF00
FFF4D3FF40
FFFD0FFF40
FFFD0FFF40
FFF4D3FF40
FFFBFBFF40
FFFFFFFF40
FFFFFFFF40
FFFFFFFF40
FFFFFFFF40
FFFFFFFF40
BFFFFFFF00
7FFFFFFD00
1FFFFFF800
02FFFF9000
ENDCHAR
STARTCHAR Oslash
ENCODING 216
SWIDTH 578 0
DWIDTH 16 0
BBX 17 19 0 0
BITMAP
01AAAA4000
0BE95AF400
3F80007D00
BF5FF47E00
FF5FE13F00
FF5FC93F40
FF5F5D3F40
FF5E3D3F40
FF5CBD3F40
FF55FD3F40
FF43FD3F40
FF41547F40
FFD555FF40
FFFFFFFF40
FFFFFFFF40
BFFFFFFF00
7FFFFFFD00
1FFFFFF800
02FFFF9000
ENDCHAR
STARTCHAR Ugrave
ENCODING 217
SWIDTH 578 0
DWIDTH 16 0
BBX 17 27 0 0
BITMAP
0015400000
01FFE00000
03FFF40000
03F1F80000
03F8FC0000
01FCBD0000
00BD7D0000
007FBE0000
01BFFF4000
0BAFFEB400
3F5FFD3D00
BF5FFD3E00
FF5FFD3F00
FF5FFD3F40
FF5FFD3F40
FF5FFD3F40
FF5FFD3F40
FF5FFD3F40
FF4FFD3F40
FF85547F40
FFD555FF40
FFFFFFFF40
FFFFFFFF40
BFFFFFFF00
7FFFFFFD00
1FFFFFF800
02FFFF9000
ENDCHAR
STARTCHAR Uacute
ENCODING 218
SWIDTH 578 0
DWIDTH 16 0
BBX 17 27 0 0
BITMAP
0000550000
0002FF8000
0007FFE000
000BD7F000
000FCBE000
001F8FD000
002F6F8000
002FBF0000
01BFFF4000
0BAFFEB400
3F5FFD3D00
BF5FFD3E00
FF5FFD3F00
FF5FFD3F40
FF5FFD3F40
FF5FFD3F40
FF5FFD3F40
FF5FFD3F40
FF4FFD3F40
FF85547F40
FFD555FF40
FFFFFFFF40
FFFFFFFF40
BFFFFFFF00
7FFFFFFD00
1FFFFFF800
02FFFF9000
ENDCHAR
STARTCHAR Ucircumflex
ENCODING 219
SWIDTH 578 0
DWIDTH 16 0
BBX 17 27 0 0
BITMAP
0006F80000
000FFE0000
002FBF0000
003E1F8000
007D8FC000
00FCDBD000
00F9E7E000
01FBFBE000
01FFFFE000
0BFFFFF400
3F5FFD3D00
BF5FFD3E00
FF5FFD3F00
FF5FFD3F40
FF5FFD3F40
FF5FFD3F40
FF5FFD3F40
FF5FFD3F40
FF4FFD3F40
FF85547F40
FFD555FF40
FFFFFFFF40
FFFFFFFF40
BFFFFFFF00
7FFFFFFD00
1FFFFFF800
02FFFF9000
ENDCHAR
STARTCHAR Udieresis
ENCODING 220
SWIDTH 578 0
DWIDTH 16 0
BBX 17 25 0 0
BITMAP
001BFE0000
00BFFFD000
01FFFFF000
02F6E6F400
02F1E2F400
01FBFBF000
01FFFFD000
0BBFFFF400
3F5FFD3D00
BF5FFD3E00
FF5FFD3F00
FF5FFD3F40
FF5FFD3F40
FF5FFD3F40
FF5FFD3F40
FF5FFD3F40
FF4FFD3F40
FF85547F40
FFD555FF40
FFFFFFFF40
FFFFFFFF40
BFFFFFFF00
7FFFFFFD00
1FFFFFF800
02FFFF9000
ENDCHAR
STARTCHAR Yacute
ENCODING 221
SWIDTH 578 0
DWIDTH 16 0
BBX 17 27 0 0
BITMAP
0000540000
0002FF8000
0007FFE000
000BD7F000
000FCBE000
001F9FD000
002F6F8000
002FBF0000
01BFFF4000
0BEFFEB400
3FC7F8BD00
BFD3F4FE00
FFE2F1FF00
FFF4E2FF40
FFF887FF40
FFFC0BFF40
FFFE0FFF40
FFFF1FFF40
FFFF2FFF40
FFFF2FFF40
FFFF6FFF40
FFFFFFFF40
FFFFFFFF40
BFFFFFFF00
7FFFFFFD00
1FFFFFF800
02FFFF9000
ENDCHAR
STARTCHAR Thorn
ENCODING 222
SWIDTH 578 0
DWIDTH 16 0
BBX 17 19 0 0
BITMAP
01AAAA4000
0BD7FFF400
3FC7FFFD00
BFC55AFE00
FFC000BF00
FFC7FD7F40
FFC7FD7F40
FFC7FD7F40
FFC150BF40
FFC156FF40
FFC7FFFF40
FFC7FFFF40
FFDBFFFF40
FFFFFFFF40
FFFFFFFF40
BFFFFFFF00
7FFFFFFD00
1FFFFFF800
02FFFF9000
ENDCHAR
STARTCHAR germandbls
ENCODING 223
SWIDTH 578 0
DWIDTH 16 0
BBX 17 19 0 0
BITMAP
01AAAA4000
0BEAABF400
3F8000FD00
BF4FF8BE00
FF5FFCBF00
FF5FF8FF40
FF5FD1FF40
FF5FE47F40
FF5FFD3F40
FF5FFD3F40
FF5FFD3F40
FF5E547F40
FF5E55FF40
FFFFFFFF40
FFFFFFFF40
BFFFFFFF00
7FFFFFFD00
1FFFFFF800
02FFFF9000
ENDCHAR
STARTCHAR agrave
ENCODING 224
SWIDTH 578 0
DWIDTH 16 0
BBX 17 27 0 0
BITMAP
0015400000
01FFE00000
03FFF40000
03F1F80000
03F8FC0000
01FCBC0000
00BD7D0000
007FBE0000
01BFFF4000
0BEFFFF400
3FC001FD00
BFFFF4FE00
FFFFF8FF00
FFFFF8FF40
FFFFF8FF40
FF8000FF40
FF1AA4FF40
FF1FF8FF40
FF1FF8FF40
FF4550FF40
FFD555FF40
FFFFFFFF40
FFFFFFFF40
BFFFFFFF00
7FFFFFFD00
1FFFFFF800
02FFFF9000
ENDCHAR
STARTCHAR aacute
ENCODING 225
SWIDTH 578 0
DWIDTH 16 0
BBX 17 27 0 0
BITMAP
0000550000
0002FF8000
0007FFE000
000BD7F000
000FCBE000
001F8FD000
002F6F8000
002FBF0000
01BFFF4000
0BEFFFF400
3FC001FD00
BFFFF4FE00
FFFFF8FF00
FFFFF8FF40
FFFFF8FF40
FF8000FF40
FF1AA4FF40
FF1FF8FF40
FF1FF8FF40
FF4550FF40
FFD555FF40
FFFFFFFF40
FFFFFFFF40
BFFFFFFF00
7FFFFFFD00
1FFFFFF800
02FFFF9000
ENDCHAR
STARTCHAR acircumflex
ENCODING 226
SWIDTH 578 0
DWIDTH 16 0
BBX 17 27 0 0
BITMAP
0006F80000
001FFE0000
002FBF0000
003E1F8000
00BD8FC000
00FCDBD000
01F9E7E000
01FBFBE000
01FFFFD000
0BFFFFF400
3FC001FD00
BFFFF4FE00
FFFFF8FF00
FFFFF8FF40
FFFFF8FF40
FF8000FF40
FF1AA4FF40
FF1FF8FF40
FF1FF8FF40
FF4550FF40
FFD555FF40
FFFFFFFF40
FFFFFFFF40
BFFFFFFF00
7FFFFFFD00
1FFFFFF800
02FFFF9000
ENDCHAR
STARTCHAR atilde
ENCODING 227
SWIDTH 578 0
DWIDTH 16 0
BBX 17 27 0 0
BITMAP
001BF90000
00BFFFD000
01FFFFF000
03FFFFF800
07FFFFF800
07F5B5F800
03E102F800
02FBEBF400
01FFFFE000
0BEAABF400
3FC001FD00
BFFFF4FE00
FFFFF8FF00
FFFFF8FF40
FFFFF8FF40
FF8000FF40
FF1AA4FF40
FF1FF8FF40
FF1FF8FF40
FF4550FF40
FFD555FF40
FFFFFFFF40
FFFFFFFF40
BFFFFFFF00
7FFFFFFD00
1FFFFFF800
02FFFF9000
ENDCHAR
STARTCHAR adieresis
ENCODING 228
SWIDTH 578 0
DWIDTH 16 0
BBX 17 25 0 0
BITMAP
001BFE0000
00BFFFD000
01FFFFF000
02F6E6F400
02F1E2F400
01FBFBF000
01FFFFD000
0BFFFFF400
3FC001FD00
BFFFF4FE00
FFFFF8FF00
FFFFF8FF40
FFFFF8FF40
FF8000FF40
FF1AA4FF40
FF1FF8FF40
FF1FF8FF40
FF4550FF40
FFD555FF40
FFFFFFFF40
FFFFFFFF40
BFFFFFFF00
7FFFFFFD00
1FFFFFF800
02FFFF9000
ENDCHAR
STARTCHAR aring
ENCODING 229
SWIDTH 578 0
DWIDTH 16 0
BBX 17 27 0 0
BITMAP
0006A40000
002FFF0000
00BFBFC000
01F807D000
01F6E3E000
02F6E3E000
01F807E000
01FFFFD000
01FFFFC000
0BEAABF400
3FC001FD00
BFFFF4FE00
FFFFF8FF00
FFFFF8FF40
FFFFF8FF40
FF8000FF40
FF1AA4FF40
FF1FF8FF40
FF1FF8FF40
FF4550FF40
FFD555FF40
FFFFFFFF40
FFFFFFFF40
BFFFFFFF00
7FFFFFFD00
1FFFFFF800
02FFFF9000
ENDCHAR
STARTCHAR ae
ENCODING 230
SWIDTH 578 0
DWIDTH 16 0
BBX 17 19 0 0
BITMAP
01AAAA4000
0BE955B400
3F80003D00
BF4F2FFE00
FF5F2FFF00
FF5F2FFF40
FF1F157F40
FF2F057F40
FF2F2FFF40
FE152FFF40
FE002FFF40
FE3F157F40
FE7F557F40
FFFFFFFF40
FFFFFFFF40
BFFFFFFF00
7FFFFFFD00
1FFFFFF800
02FFFF9000
ENDCHAR
STARTCHAR ccedilla
ENCODING 231
SWIDTH 578 0
DWIDTH 16 0
BBX 17 19 0 0
BITMAP
01AAAA4000
0BEAAAF400
3F8002FD00
BF5FFFFE00
FF5FFFFF00
FF5FFFFF40
FF5FFFFF40
FF5FFFFF40
FF5FFFFF40
FF5FFFFF40
FF5FFFFF40
FF4556FF40
FFD516FF40
FFF93FFF40
FFF5BFFF40
BFF2FFFF00
7FF83FFD00
1FFFFFF800
02FFFF9000
ENDCHAR
STARTCHAR egrave
ENCODING 232
SWIDTH 578 0
DWIDTH 16 0
BBX 17 28 0 0
BITMAP
0015000000
01FFE00000
03FFF40000
07F1F40000
03F4F80000
01FCFC0000
00FDBD0000
007FBD0000
002FFC0000
01AFFE4000
0BEAABF400
3F4001FD00
BF5FF4FE00
FF1FF8FF00
FF1AA4FF40
FF0000FF40
FF1FFFFF40
FF1FFFFF40
FF1FFFFF40
FF5FFBFF40
FF8002FF40
FFEAABFF40
FFFFFFFF40
FFFFFFFF40
BFFFFFFF00
7FFFFFFD00
1FFFFFF800
02FFFF9000
ENDCHAR
STARTCHAR eacute
ENCODING 233
SWIDTH 578 0
DWIDTH 16 0
BBX 17 28 0 0
BITMAP
0000540000
0007FF8000
000BFFD000
000F8BE000
001F8FD000
002F6F8000
003F3F4000
003FBE0000
002FFC0000
01AFFE4000
0BEAABF400
3F4001FD00
BF5FF4FE00
FF1FF8FF00
FF1AA4FF40
FF0000FF40
FF1FFFFF40
FF1FFFFF40
FF1FFFFF40
FF5FFBFF40
FF8002FF40
FFEAABFF40
FFFFFFFF40
FFFFFFFF40
BFFFFFFF00
7FFFFFFD00
1FFFFFF800
02FFFF9000
ENDCHAR
STARTCHAR ecircumflex
ENCODING 234
SWIDTH 578 0
DWIDTH 16 0
BBX 17 27 0 0
BITMAP
000BE40000
002FFC0000
007EBD0000
00BD3F0000
00F96F4000
01F69F8000
02F3CBC000
03FBEFC000
03FFFFC000
0BFFFFF400
3F4001FD00
BF5FF4FE00
FF1FF8FF00
FF1AA4FF40
FF0000FF40
FF1FFFFF40
FF1FFFFF40
FF1FFFFF40
FF5FFBFF40
FF8002FF40
FFEAABFF40
FFFFFFFF40
FFFFFFFF40
BFFFFFFF00
7FFFFFFD00
1FFFFFF800
02FFFF9000
ENDCHAR
STARTCHAR edieresis
ENCODING 235
SWIDTH 578 0
DWIDTH 16 0
BBX 17 25 0 0
BITMAP
006FF90000
01FFFF4000
03FFFFC000
07E7DBD000
07D387D000
07FBEFD000
03FFFFC000
0BFFFFF400
3F4001FD00
BF5FF4FE00
FF1FF8FF00
FF1AA4FF40
FF0000FF40
FF1FFFFF40
FF1FFFFF40
FF1FFFFF40
FF5FFBFF40
FF8002FF40
FFEAABFF40
FFFFFFFF40
FFFFFFFF40
BFFFFFFF00
7FFFFFFD00
1FFFFFF800
02FFFF9000
ENDCHAR
STARTCHAR igrave
ENCODING 236
SWIDTH 578 0
DWIDTH 16 0
BBX 17 27 0 0
BITMAP
0015400000
01FFE00000
03FFF40000
03F1F80000
03F8FC0000
01FCBD0000
00BD7D0000
007FBE0000
01BFFF4000
0BEFFEB400
3FC0007D00
BFFF1FFE00
FFFF1FFF00
FFFF1FFF40
FFFF1FFF40
FFFF1FFF40
FFFF1FFF40
FFFF1FFF40
FFFF1FFF40
FFD5057F40
FFD5557F40
FFFFFFFF40
FFFFFFFF40
BFFFFFFF00
7FFFFFFD00
1FFFFFF800
02FFFF9000
ENDCHAR
STARTCHAR iacute
ENCODING 237
SWIDTH 578 0
DWIDTH 16 0
BBX 17 27 0 0
BITMAP
0000550000
0002FF8000
0007FFF000
000BD7F000
000FCBE000
001F8FD000
002F6F8000
002FBF0000
01BFFF4000
0BEFFEB400
3FC0007D00
BFFF1FFE00
FFFF1FFF00
FFFF1FFF40
FFFF1FFF40
FFFF1FFF40
FFFF1FFF40
FFFF1FFF40
FFFF1FFF40
FFD5057F40
FFD5557F40
FFFFFFFF40
FFFFFFFF40
BFFFFFFF00
7FFFFFFD00
1FFFFFF800
02FFFF9000
ENDCHAR
STARTCHAR icircumflex
ENCODING 238
SWIDTH 578 0
DWIDTH 16 0
BBX 17 27 0 0
BITMAP
0006F80000
000FFE0000
002FBF0000
003F1F8000
007D8FC000
00BCDBD000
00F9E3E000
01FBFBE000
01FFFFE000
0BFFFFF400
3FC0007D00
BFFF1FFE00
FFFF1FFF00
FFFF1FFF40
FFFF1FFF40
FFFF1FFF40
FFFF1FFF40
FFFF1FFF40
FFFF1FFF40
FFD5057F40
FFD5557F40
FFFFFFFF40
FFFFFFFF40
BFFFFFFF00
7FFFFFFD00
1FFFFFF800
02FFFF9000
ENDCHAR
STARTCHAR idieresis
ENCODING 239
SWIDTH 578 0
DWIDTH 16 0
BBX 17 25 0 0
BITMAP
001BFE0000
00BFFFD000
01FFFFF000
02F6E6F400
02F1E2F400
01FFFBF000
01FFFFD000
0BFFFFF400
3FC0007D00
BFFF1FFE00
FFFF1FFF00
FFFF1FFF40
FFFF1FFF40
FFFF1FFF40
FFFF1FFF40
FFFF1FFF40
FFFF1FFF40
FFD5057F40
FFD5557F40
FFFFFFFF40
FFFFFFFF40
BFFFFFFF00
7FFFFFFD00
1FFFFFF800
02FFFF9000
ENDCHAR
STARTCHAR eth
ENCODING 240
SWIDTH 578 0
DWIDTH 16 0
BBX 17 19 0 0
BITMAP
01AAAA4000
0BAAAAF400
3F40007D00
BF4FFD3E00
FF4FFE3F00
FF4FFE3F40
FE4BFE3F40
FE4BFE3F40
FF4FFE3F40
FF4FFE3F40
FF4FFE3F40
FF45543F40
FF9555BF40
FFFFFFFF40
FFFFFFFF40
BFFFFFFF00
7FFFFFFD00
1FFFFFF800
02FFFF9000
ENDCHAR
STARTCHAR ntilde
ENCODING 241
SWIDTH 578 0
DWIDTH 16 0
BBX 17 27 0 0
BITMAP
001BF90000
01FFFF8000
03FFFFD000
0BFFFFF000
0BFFFFF400
0BE5E3F400
0BC503F000
07EFEFE000
02FFFFC000
0BEAAAF400
3F4000BD00
BF4FFD7E00
FF4FFD7F00
FF4FFD7F40
FF4FFD7F40
FF4FFD7F40
FF4FFD7F40
FF4FFD7F40
FF4FFD7F40
FF4FFD7F40
FF9FFD7F40
FFFFFFFF40
FFFFFFFF40
BFFFFFFF00
7FFFFFFD00
1FFFFFF800
02FFFF9000
ENDCHAR
STARTCHAR oacute
ENCODING 243
SWIDTH 578 0
DWIDTH 16 0
BBX 17 27 0 0
BITMAP
0000540000
0007FF8000
000BFFD000
000FCBE000
001F8FD000
002F5FC000
003F3F4000
003FBE0000
01BFFE4000
0BFFFEF400
3F80007D00
BF4FFD3E00
FF4FFE3F00
FF4FFE3F40
FF4FFE3F40
FF4FFE3F40
FF4FFE3F40
FF4FFE3F40
FF4FFE3F40
FF85543F40
FFD555BF40
FFFFFFFF40
FFFFFFFF40
BFFFFFFF00
7FFFFFFD00
1FFFFFF800
02FFFF9000
ENDCHAR
STARTCHAR ocircumflex
ENCODING 244
SWIDTH 578 0
DWIDTH 16 0
BBX 17 27 0 0
BITMAP
0006F80000
000FFE0000
002FBF0000
003E1F8000
00BD8FC000
00FCDBD000
00F9E7E000
01FBFBE000
01FFFFD000
0BFFFFF400
3F80007D00
BF4FFD3E00
FF4FFE3F00
FF4FFE3F40
FF4FFE3F40
FF4FFE3F40
FF4FFE3F40
FF4FFE3F40
FF4FFE3F40
FF85543F40
FFD555BF40
FFFFFFFF40
FFFFFFFF40
BFFFFFFF00
7FFFFFFD00
1FFFFFF800
02FFFF9000
ENDCHAR
STARTCHAR otilde
ENCODING 245
SWIDTH 578 0
DWIDTH 16 0
BBX 17 27 0 0
BITMAP
001BF90000
00BFFF8000
02FFFFE000
03FFFFF400
07FFFFF800
07F5B6F800
07D102F400
03EBEBF000
01FFFFD000
0BEAAAF400
3F80007D00
BF4FFD3E00
FF4FFE3F00
FF4FFE3F40
FF4FFE3F40
FF4FFE3F40
FF4FFE3F40
FF4FFE3F40
FF4FFE3F40
FF85543F40
FFD555BF40
FFFFFFFF40
FFFFFFFF40
BFFFFFFF00
7FFFFFFD00
1FFFFFF800
02FFFF9000
ENDCHAR
STARTCHAR odieresis
ENCODING 246
SWIDTH 578 0
DWIDTH 16 0
BBX 17 25 0 0
BITMAP
001BFE0000
00BFFFD000
01FFFFF000
02F6E6F400
02F1E2F400
01FBFBF000
01FFFFD000
0BFFFFF400
3F80007D00
BF4FFD3E00
FF4FFE3F00
FF4FFE3F40
FF4FFE3F40
FF4FFE3F40
FF4FFE3F40
FF4FFE3F40
FF4FFE3F40
FF85543F40
FFD555BF40
FFFFFFFF40
FFFFFFFF40
BFFFFFFF00
7FFFFFFD00
1FFFFFF800
02FFFF9000
ENDCHAR
STARTCHAR divide
ENCODING 247
SWIDTH 428 0
DWIDTH 12 0
BBX 12 19 0 0
BITMAP
01AA40
0BFFE0
3FEBFC
BFC3FE
FFEBFF
FD007F
FEAABF
FFD7FF
FFD7FF
FFFFFF
FFFFFF
FFFFFF
FFFFFF
FFFFFF
FFFFFF
BFFFFE
7FFFFD
1FFFF4
02FF80
ENDCHAR
STARTCHAR oslash
ENCODING 248
SWIDTH 578 0
DWIDTH 16 0
BBX 17 19 0 0
BITMAP
01AAAA4000
0BE95AF400
3F80007D00
BF5FF47E00
FF5FE13F00
FF5FC93F40
FF5F5D3F40
FF5E3D3F40
FF5CBD3F40
FF55FD3F40
FF43FD3F40
FF41547F40
FFD555FF40
FFFFFFFF40
FFFFFFFF40
BFFFFFFF00
7FFFFFFD00
1FFFFFF800
02FFFF9000
ENDCHAR
STARTCHAR ugrave
ENCODING 249
SWIDTH 578 0
DWIDTH 16 0
BBX 17 27 0 0
BITMAP
0015400000
01FFE00000
03FFF40000
03F1F80000
03F8FC0000
01FCBD0000
00BD7D0000
007FBE0000
01BFFF4000
0BAFFEB400
3F5FFD3D00
BF5FFD3E00
FF5FFD3F00
FF5FFD3F40
FF5FFD3F40
FF5FFD3F40
FF5FFD3F40
FF5FFD3F40
FF4FFD3F40
FF85547F40
FFD555FF40
FFFFFFFF40
FFFFFFFF40
BFFFFFFF00
7FFFFFFD00
1FFFFFF800
02FFFF9000
ENDCHAR
STARTCHAR uacute
ENCODING 250
SWIDTH 578 0
DWIDTH 16 0
BBX 17 27 0 0
BITMAP
0000550000
0002FF8000
0007FFF000
000BD7F000
000FCBE000
001F8FD000
002F6F8000
002FBF0000
01BFFF4000
0BAFFEB400
3F5FFD3D00
BF5FFD3E00
FF5FFD3F00
FF5FFD3F40
FF5FFD3F40
FF5FFD3F40
FF5FFD3F40
FF5FFD3F40
FF4FFD3F40
FF85547F40
FFD555FF40
FFFFFFFF40
FFFFFFFF40
BFFFFFFF00
7FFFFFFD00
1FFFFFF800
02FFFF9000
ENDCHAR
STARTCHAR ucircumflex
ENCODING 251
SWIDTH 578 0
DWIDTH 16 0
BBX 17 27 0 0
BITMAP
0006F80000
000FFE0000
002FBF0000
003F1F8000
007D8FC000
00BCDBD000
00F9E3E000
01FBFBE000
01FFFFE000
0BFFFFF400
3F5FFD3D00
BF5FFD3E00
FF5FFD3F00
FF5FFD3F40
FF5FFD3F40
FF5FFD3F40
FF5FFD3F40
FF5FFD3F40
FF4FFD3F40
FF85547F40
FFD555FF40
FFFFFFFF40
FFFFFFFF40
BFFFFFFF00
7FFFFFFD00
1FFFFFF800
02FFFF9000
ENDCHAR
STARTCHAR udieresis
ENCODING 252
SWIDTH 578 0
DWIDTH 16 0
BBX 17 25 0 0
BITMAP
001BFE0000
00BFFFD000
01FFFFF000
02F6E6F400
02F1E2F400
01FFFBF000
01FFFFD000
0BBFFFF400
3F5FFD3D00
BF5FFD3E00
FF5FFD3F00
FF5FFD3F40
FF5FFD3F40
FF5FFD3F40
FF5FFD3F40
FF5FFD3F40
FF4FFD3F40
FF85547F40
FFD555FF40
FFFFFFFF40
FFFFFFFF40
BFFFFFFF00
7FFFFFFD00
1FFFFFF800
02FFFF9000
ENDCHAR
STARTCHAR yacute
ENCODING 253
SWIDTH 578 0
DWIDTH 16 0
BBX 17 27 0 0
BITMAP
0000540000
0002FF8000
0007FFE000
000BD7F000
000FCBE000
001F9FD000
002F6F8000
002FBF0000
01BFFF4000
0BEFFEB400
3FC7F8BD00
BFD3F4FE00
FFE2F1FF00
FFF4E2FF40
FFF887FF40
FFFC0BFF40
FFFE0FFF40
FFFF1FFF40
FFFF2FFF40
FFFF2FFF40
FFFF6FFF40
FFFFFFFF40
FFFFFFFF40
BFFFFFFF00
7FFFFFFD00
1FFFFFF800
02FFFF9000
ENDCHAR
STARTCHAR thorn
ENCODING 254
SWIDTH 578 0
DWIDTH 16 0
BBX 17 19 0 0
BITMAP
01AAAA4000
0BD7FFF400
3FC7FFFD00
BFC55AFE00
FFC000BF00
FFC7FD7F40
FFC7FD7F40
FFC7FD7F40
FFC150BF40
FFC156FF40
FFC7FFFF40
FFC7FFFF40
FFDBFFFF40
FFFFFFFF40
FFFFFFFF40
BFFFFFFF00
7FFFFFFD00
1FFFFFF800
02FFFF9000
ENDCHAR
STARTCHAR ydieresis
ENCODING 255
SWIDTH 578 0
DWIDTH 16 0
BBX 17 25 0 0
BITMAP
001BFE0000
00BFFFD000
01FFFFE000
02F6E6F000
02F1E2F400
01FBFBF000
01FFFFD000
0BFFFFF400
3FC7F8BD00
BFD3F4FE00
FFE2F1FF00
FFF4E2FF40
FFF887FF40
FFFC0BFF40
FFFE0FFF40
FFFF1FFF40
FFFF2FFF40
FFFF2FFF40
FFFF6FFF40
FFFFFFFF40
FFFFFFFF40
BFFFFFFF00
7FFFFFFD00
1FFFFFF800
02FFFF9000
ENDCHAR
STARTCHAR Amacron
ENCODING 256
SWIDTH 578 0
DWIDTH 16 0
BBX 17 25 0 0
BITMAP
002FFE0000
01FFFFD000
03FFFFF000
07FAABF400
0BE003F800
07FFFFF400
03FFFFE000
0BFFFFF400
3FD001FD00
BFC7F4FE00
FFCBF8FF00
FFCBF8BF40
FF8BFCBF40
FF8554BF40
FF85547F40
FF4FFC7F40
FF5FFD7F40
FF5FFD3F40
FF5FFE7F40
FFFFFFFF40
FFFFFFFF40
BFFFFFFF00
7FFFFFFD00
1FFFFFF800
02FFFF9000
ENDCHAR
STARTCHAR amacron
ENCODING 257
SWIDTH 578 0
DWIDTH 16 0
BBX 17 25 0 0
BITMAP
002FFE4000
00FFFFE000
02FFFFF400
07FAABF800
07F003F800
03FFFFF800
02FFFFF000
0BFFFFF400
3FC001FD00
BFFFF4FE00
FFFFF8FF00
FFFFF8FF40
FFFFF8FF40
FF8000FF40
FF1AA4FF40
FF1FF8FF40
FF1FF8FF40
FF4550FF40
FFD555FF40
FFFFFFFF40
FFFFFFFF40
BFFFFFFF00
7FFFFFFD00
1FFFFFF800
02FFFF9000
ENDCHAR
STARTCHAR Abreve
ENCODING 258
SWIDTH 578 0
DWIDTH 16 0
BBX 17 26 0 0
BITMAP
002FFE0000
01FFFFD000
03FFFFF000
07FFFFF400
0BF2E3F800
07F407F400
02FFBFE000
01FFFFC000
0BFAABF400
3FD001FD00
BFC7F4FE00
FFCBF8FF00
FFCBF8BF40
FF8BFCBF40
FF8554BF40
FF85547F40
FF4FFC7F40
FF5FFD7F40
FF5FFD3F40
FF5FFE7F40
FFFFFFFF40
FFFFFFFF40
BFFFFFFF00
7FFFFFFD00
1FFFFFF800
02FFFF9000
ENDCHAR
STARTCHAR abreve
ENCODING 259
SWIDTH 578 0
DWIDTH 16 0
BBX 17 26 0 0
BITMAP
002FFE4000
00FFFFE000
02FFFFF400
07FFFFF800
07F5F2F800
03F807F800
02FFAFF000
01FFFFD000
0BEAABF400
3FC001FD00
BFFFF4FE00
FFFFF8FF00
FFFFF8FF40
FFFFF8FF40
FF8000FF40
FF1AA4FF40
FF1FF8FF40
FF1FF8FF40
FF4550FF40
FFD555FF40
FFFFFFFF40
FFFFFFFF40
BFFFFFFF00
7FFFFFFD00
1FFFFFF800
02FFFF9000
ENDCHAR
STARTCHAR Aogonek
ENCODING 260
SWIDTH 578 0
DWIDTH 16 0
BBX 17 19 0 0
BITMAP
01AAAA4000
0BFAABF400
3FD001FD00
BFC7F4FE00
FFCBF8FF00
FFCBF8BF40
FF8BFCBF40
FF8554BF40
FF85547F40
FF4FFC7F40
FF5FFD7F40
FF5FFD3F40
FF5FFD3F40
FFFFF8BF40
FFFFF2FF40
BFFFF2FF00
7FFFF43D00
1FFFFFF800
02FFFF9000
ENDCHAR
STARTCHAR aogonek
ENCODING 261
SWIDTH 578 0
DWIDTH 16 0
BBX 17 19 0 0
BITMAP
01AAAA4000
0BEAABF400
3FC001FD00
BFFFF4FE00
FFFFF8FF00
FFFFF8FF40
FFFFF8FF40
FF8000FF40
FF1AA4FF40
FF1FF8FF40
FF1FF8FF40
FF4550FF40
FFD505FF40
FFFE3FFF40
FFF8BFFF40
BFF8BFFF00
7FFD1FFD00
1FFFFFF800
02FFFF9000
ENDCHAR
STARTCHAR Cacute
ENCODING 262
SWIDTH 578 0
DWIDTH 16 0
BBX 17 27 0 0
BITMAP
0000550000
0002FFD000
0007FFF000
000BD3F000
000FCBF000
001F8FD000
001F5F8000
002FBF4000
01BFFF4000
0BEFFFF400
3F8002FD00
BF5FFFFE00
FF5FFFFF00
FF5FFFFF40
FF5FFFFF40
FF5FFFFF40
FF5FFFFF40
FF5FFFFF40
FF5FFFFF40
FF4556FF40
FFD556FF40
FFFFFFFF40
FFFFFFFF40
BFFFFFFF00
7FFFFFFD00
1FFFFFF800
02FFFF9000
ENDCHAR
STARTCHAR cacute
ENCODING 263
SWIDTH 578 0
DWIDTH 16 0
BBX 17 27 0 0
BITMAP
0000550000
0002FF8000
0007FFE000
000BD7F000
000FCBE000
001F8FD000
002F6F8000
002FBF0000
01BFFF4000
0BEFFEF400
3F8002FD00
BF5FFFFE00
FF5FFFFF00
FF5FFFFF40
FF5FFFFF40
FF5FFFFF40
FF5FFFFF40
FF5FFFFF40
FF5FFFFF40
FF4556FF40
FFD556FF40
FFFFFFFF40
FFFFFFFF40
BFFFFFFF00
7FFFFFFD00
1FFFFFF800
02FFFF9000
ENDCHAR
STARTCHAR Ccircumflex
ENCODING 264
SWIDTH 578 0
DWIDTH 16 0
BBX 17 27 0 0
BITMAP
0007F40000
001FFD0000
002FBF0000
007E2F4000
00BD9F8000
00F9DBC000
01F6E7D000
01FBFBD000
02FFFFD000
0BFFFFF400
3F8002FD00
BF5FFFFE00
FF5FFFFF00
FF5FFFFF40
FF5FFFFF40
FF5FFFFF40
FF5FFFFF40
FF5FFFFF40
FF5FFFFF40
FF4556FF40
FFD556FF40
FFFFFFFF40
FFFFFFFF40
BFFFFFFF00
7FFFFFFD00
1FFFFFF800
02FFFF9000
ENDCHAR
STARTCHAR ccircumflex
ENCODING 265
SWIDTH 578 0
DWIDTH 16 0
BBX 17 27 0 0
BITMAP
0007F40000
001FFD0000
003FBE0000
007E2F4000
00BC9F8000
00F9CFC000
01F6D7D000
02FBFBD000
02FFFFD000
0BFFFFF400
3F8002FD00
BF5FFFFE00
FF5FFFFF00
FF5FFFFF40
FF5FFFFF40
FF5FFFFF40
FF5FFFFF40
FF5FFFFF40
FF5FFFFF40
FF4556FF40
FFD556FF40
FFFFFFFF40
FFFFFFFF40
BFFFFFFF00
7FFFFFFD00
1FFFFFF800
02FFFF9000
ENDCHAR
STARTCHAR Cdotaccent
ENCODING 266
SWIDTH 578 0
DWIDTH 16 0
BBX 17 25 0 0
BITMAP
007FF90000
03FFFF8000
0BFFFFD000
0FFEBFE000
0FFC7FF000
0FFEBFE000
0BFFFFD000
0FFFFFF400
3F8002FD00
BF5FFFFE00
FF5FFFFF00
FF5FFFFF40
FF5FFFFF40
FF5FFFFF40
FF5FFFFF40
FF5FFFFF40
FF5FFFFF40
FF4556FF40
FFD556FF40
FFFFFFFF40
FFFFFFFF40
BFFFFFFF00
7FFFFFFD00
1FFFFFF800
02FFFF9000
ENDCHAR
STARTCHAR cdotaccent
ENCODING 267
SWIDTH 578 0
DWIDTH 16 0
BBX 17 25 0 0
BITMAP
006FFD0000
02FFFFC000
07FFFFE000
0BFEBFF000
0FFD3FF000
0BFEBFF000
07FFFFE000
0FFFFFF400
3F8002FD00
BF5FFFFE00
FF5FFFFF00
FF5FFFFF40
FF5FFFFF40
FF5FFFFF40
FF5FFFFF40
FF5FFFFF40
FF5FFFFF40
FF4556FF40
FFD556FF40
FFFFFFFF40
FFFFFFFF40
BFFFFFFF00
7FFFFFFD00
1FFFFFF800
02FFFF9000
ENDCHAR
STARTCHAR Ccaron
ENCODING 268
SWIDTH 578 0
DWIDTH 16 0
BBX 17 26 0 0
BITMAP
01FEBF4000
03FFFF8000
03E7DFC000
03F38FC000
02F66F8000
01F97F4000
00FD7F0000
01FFFF4000
0BFFFFF400
3F8002FD00
BF5FFFFE00
FF5FFFFF00
FF5FFFFF40
FF5FFFFF40
FF5FFFFF40
FF5FFFFF40
FF5FFFFF40
FF5FFFFF40
FF4556FF40
FFD556FF40
FFFFFFFF40
FFFFFFFF40
BFFFFFFF00
7FFFFFFD00
1FFFFFF800
02FFFF9000
ENDCHAR
STARTCHAR ccaron
ENCODING 269
SWIDTH 578 0
DWIDTH 16 0
BBX 17 26 0 0
BITMAP
00BFBF4000
02FFFFC000
03F7EBC000
02F6CFC000
02F99FC000
01FC6F8000
00FD7F4000
01FFFF4000
0BFFFFF400
3F8002FD00
BF5FFFFE00
FF5FFFFF00
FF5FFFFF40
FF5FFFFF40
FF5FFFFF40
FF5FFFFF40
FF5FFFFF40
FF5FFFFF40
FF4556FF40
FFD556FF40
FFFFFFFF40
FFFFFFFF40
BFFFFFFF00
7FFFFFFD00
1FFFFFF800
02FFFF9000
ENDCHAR
STARTCHAR Dcaron
ENCODING 270
SWIDTH 578 0
DWIDTH 16 0
BBX 17 27 0 0
BITMAP
00BEBF4000
02FFFFC000
03F7DBC000
02F6CFC000
02F99F8000
01FD6F8000
00FD7F4000
00BFFF0000
01BFFF4000
0BAAAAF400
3F40007D00
BF4FFD3E00
FF4FFE3F00
FF4FFE3F40
FF4FFE3F40
FF4FFE3F40
FF4FFE3F40
FF4FFE3F40
FF4FFE3F40
FF45543F40
FF9555BF40
FFFFFFFF40
FFFFFFFF40
BFFFFFFF00
7FFFFFFD00
1FFFFFF800
02FFFF9000
ENDCHAR
STARTCHAR dcaron
ENCODING 271
SWIDTH 578 0
DWIDTH 16 0
BBX 17 19 0 0
BITMAP
01AAAA4000
0AAAAEA400
3D00021D00
BD7FE25E00
FD7FF27F00
FD7FF2FF40
FD7FF2FF40
FD7FF2FF40
FD7FF2FF40
FD7FF2FF40
FD7FE2FF40
FD1553FF40
FD555BFF40
FFFFFFFF40
FFFFFFFF40
BFFFFFFF00
7FFFFFFD00
1FFFFFF800
02FFFF9000
ENDCHAR
STARTCHAR Dcroat
ENCODING 272
SWIDTH 578 0
DWIDTH 16 0
BBX 17 19 0 0
BITMAP
01AAAA4000
0BAAAAF400
3F40007D00
BF4FFD3E00
FF4FFE3F00
FF4FFE3F40
F800FE3F40
FE4AFE3F40
FF4FFE3F40
FF4FFE3F40
FF4FFE3F40
FF45543F40
FF9555BF40
FFFFFFFF40
FFFFFFFF40
BFFFFFFF00
7FFFFFFD00
1FFFFFF800
02FFFF9000
ENDCHAR
STARTCHAR dcroat
ENCODING 273
SWIDTH 578 0
DWIDTH 16 0
BBX 17 19 0 0
BITMAP
01AAAA4000
0BAAAAF400
3F40007D00
BF4FFD3E00
FF4FFE3F00
FF4FFE3F40
F800FE3F40
FE4AFE3F40
FF4FFE3F40
FF4FFE3F40
FF4FFE3F40
FF45543F40
FF9555BF40
FFFFFFFF40
FFFFFFFF40
BFFFFFFF00
7FFFFFFD00
1FFFFFF800
02FFFF9000
ENDCHAR
STARTCHAR Emacron
ENCODING 274
SWIDTH 578 0
DWIDTH 16 0
BBX 17 25 0 0
BITMAP
002FFE4000
00FFFFE000
02FFFFF400
07FAABF800
07F002F800
03FFFFF800
02FFFFF000
0BFFFFF400
3FE000BD00
BFE3FFFE00
FFE3FFFF00
FFE3FFFF40
FFE156FF40
FFE002FF40
FFE3FFFF40
FFE3FFFF40
FFE3FFFF40
FFE155BF40
FFE555BF40
FFFFFFFF40
FFFFFFFF40
BFFFFFFF00
7FFFFFFD00
1FFFFFF800
02FFFF9000
ENDCHAR
STARTCHAR emacron
ENCODING 275
SWIDTH 578 0
DWIDTH 16 0
BBX 17 25 0 0
BITMAP
006FFD0000
02FFFF8000
07FFFFE000
0FEAAFF000
0FD00BF000
0BFFFFF000
07FFFFD000
0BFFFFF400
3F4001FD00
BF5FF4FE00
FF1FF8FF00
FF1AA4FF40
FF0000FF40
FF1FFFFF40
FF1FFFFF40
FF1FFFFF40
FF5FFBFF40
FF8002FF40
FFEAABFF40
FFFFFFFF40
FFFFFFFF40
BFFFFFFF00
7FFFFFFD00
1FFFFFF800
02FFFF9000
ENDCHAR
STARTCHAR Ebreve
ENCODING 276
SWIDTH 578 0
DWIDTH 16 0
BBX 17 26 0 0
BITMAP
002FFE4000
00FFFFE000
02FFFFF400
07FFFFF800
07F5F2F800
03F803F800
02FFAFF000
01FFFFD000
0BEAAAF400
3FE000BD00
BFE3FFFE00
FFE3FFFF00
FFE3FFFF40
FFE156FF40
FFE002FF40
FFE3FFFF40
FFE3FFFF40
FFE3FFFF40
FFE155BF40
FFE555BF40
FFFFFFFF40
FFFFFFFF40
BFFFFFFF00
7FFFFFFD00
1FFFFFF800
02FFFF9000
ENDCHAR
STARTCHAR ebreve
ENCODING 277
SWIDTH 578 0
DWIDTH 16 0
BBX 17 26 0 0
BITMAP
006FFD0000
02FFFF8000
07FFFFE000
0FFFFFF000
0FE3D7F000
0BF00BF000
07FEBFD000
02FFFF8000
0BEAABF400
3F4001FD00
BF5FF4FE00
FF1FF8FF00
FF1AA4FF40
FF0000FF40
FF1FFFFF40
FF1FFFFF40
FF1FFFFF40
FF5FFBFF40
FF8002FF40
FFEAABFF40
FFFFFFFF40
FFFFFFFF40
BFFFFFFF00
7FFFFFFD00
1FFFFFF800
02FFFF9000
ENDCHAR
STARTCHAR Edotaccent
ENCODING 278
SWIDTH 578 0
DWIDTH 16 0
BBX 17 26 0 0
BITMAP
002FFE4000
00FFFFE000
02FFFFF400
07FFAFF800
07FF1FF800
03FFAFF800
02FFFFF400
01FFFFE000
0BEAAAF400
3FE000BD00
BFE3FFFE00
FFE3FFFF00
FFE3FFFF40
FFE156FF40
FFE002FF40
FFE3FFFF40
FFE3FFFF40
FFE3FFFF40
FFE155BF40
FFE555BF40
FFFFFFFF40
FFFFFFFF40
BFFFFFFF00
7FFFFFFD00
1FFFFFF800
02FFFF9000
ENDCHAR
STARTCHAR edotaccent
ENCODING 279
SWIDTH 578 0
DWIDTH 16 0
BBX 17 26 0 0
BITMAP
006FFD0000
02FFFF8000
07FFFFE000
0FFEBFF000
0FFC3FF000
0BFEBFF000
07FFFFE000
03FFFFC000
0BEAABF400
3F4001FD00
BF5FF4FE00
FF1FF8FF00
FF1AA4FF40
FF0000FF40
FF1FFFFF40
FF1FFFFF40
FF1FFFFF40
FF5FFBFF40
FF8002FF40
FFEAABFF40
FFFFFFFF40
FFFFFFFF40
BFFFFFFF00
7FFFFFFD00
1FFFFFF800
02FFFF9000
ENDCHAR
STARTCHAR Eogonek
ENCODING 280
SWIDTH 578 0
DWIDTH 16 0
BBX 17 19 0 0
BITMAP
01AAAA4000
0BEAAAF400
3FE000BD00
BFE3FFFE00
FFE3FFFF00
FFE3FFFF40
FFE156FF40
FFE002FF40
FFE3FFFF40
FFE3FFFF40
FFE3FFFF40
FFE155BF40
FFE554BF40
FFFFF5FF40
FFFFD7FF40
BFFFD7FF00
7FFFE0BD00
1FFFFFF800
02FFFF9000
ENDCHAR
STARTCHAR eogonek
ENCODING 281
SWIDTH 578 0
DWIDTH 16 0
BBX 17 19 0 0
BITMAP
01AAAA4000
0BEAABF400
3F4001FD00
BF5FF4FE00
FF1FF8FF00
FF1AA4FF40
FF0000FF40
FF1FFFFF40
FF1FFFFF40
FF1FFFFF40
FF5FFBFF40
FF8002FF40
FFEA4BFF40
FFFE2FFF40
FFFD7FFF40
BFFD1FFF00
7FFF5FFD00
1FFFFFF800
02FFFF9000
ENDCHAR
STARTCHAR Ecaron
ENCODING 282
SWIDTH 578 0
DWIDTH 16 0
BBX 17 26 0 0
BITMAP
007FAFC000
00FFFFE000
00F9F7F000
00FCE7E000
00BD9BE000
00BE4FD000
007F5FC000
01BFFFC000
0BFFFFF400
3FE000BD00
BFE3FFFE00
FFE3FFFF00
FFE3FFFF40
FFE156FF40
FFE002FF40
FFE3FFFF40
FFE3FFFF40
FFE3FFFF40
FFE155BF40
FFE555BF40
FFFFFFFF40
FFFFFFFF40
BFFFFFFF00
7FFFFFFD00
1FFFFFF800
02FFFF9000
ENDCHAR
STARTCHAR ecaron
ENCODING 283
SWIDTH 578 0
DWIDTH 16 0
BBX 17 26 0 0
BITMAP
00BEBF4000
02FFFFC000
03F7DBC000
02F6CFC000
02F99F8000
01FD6F8000
00FD7F4000
01FFFF4000
0BFFFFF400
3F4001FD00
BF5FF4FE00
FF1FF8FF00
FF1AA4FF40
FF0000FF40
FF1FFFFF40
FF1FFFFF40
FF1FFFFF40
FF5FFBFF40
FF8002FF40
FFEAABFF40
FFFFFFFF40
FFFFFFFF40
BFFFFFFF00
7FFFFFFD00
1FFFFFF800
02FFFF9000
ENDCHAR
STARTCHAR Gcircumflex
ENCODING 284
SWIDTH 578 0
DWIDTH 16 0
BBX 17 27 0 0
BITMAP
000BF40000
001FFD0000
003FBE0000
007D2F4000
00FC9F8000
01F9CFC000
02F6DBD000
02FBFBD000
02FFFFD000
0BFFFFF400
3FC000BD00
BF8BFFFE00
FF8FFFFF00
FF8FFFFF40
FF8FFFFF40
FF8FC03F40
FF8FE93F40
FF8FFE3F40
FF8BFE3F40
FFC5543F40
FFE555BF40
FFFFFFFF40
FFFFFFFF40
BFFFFFFF00
7FFFFFFD00
1FFFFFF800
02FFFF9000
ENDCHAR
STARTCHAR gcircumflex
ENCODING 285
SWIDTH 578 0
DWIDTH 16 0
BBX 17 27 0 0
BITMAP
000BF40000
001FFD0000
003FBE0000
007D2F4000
00FC9F8000
01F9CFC000
02F6DBD000
02FBFBD000
02FFFFD000
0BFFFFF400
3FC000BD00
BF8BFFFE00
FF8FFFFF00
FF8FFFFF40
FF8FFFFF40
FF8FC03F40
FF8FE93F40
FF8FFE3F40
FF8BFE3F40
FFC5543F40
FFE555BF40
FFFFFFFF40
FFFFFFFF40
BFFFFFFF00
7FFFFFFD00
1FFFFFF800
02FFFF9000
ENDCHAR
STARTCHAR Gbreve
ENCODING 286
SWIDTH 578 0
DWIDTH 16 0
BBX 17 26 0 0
BITMAP
006FFE0000
01FFFFD000
07FFFFF000
0BFFFFF400
0BF2E3F400
07F40BF400
03FEBFE000
01FFFFC000
0BFAAAF400
3FC000BD00
BF8BFFFE00
FF8FFFFF00
FF8FFFFF40
FF8FFFFF40
FF8FC03F40
FF8FE93F40
FF8FFE3F40
FF8BFE3F40
FFC5543F40
FFE555BF40
FFFFFFFF40
FFFFFFFF40
BFFFFFFF00
7FFFFFFD00
1FFFFFF800
02FFFF9000
ENDCHAR
STARTCHAR gbreve
ENCODING 287
SWIDTH 578 0
DWIDTH 16 0
BBX 17 26 0 0
BITMAP
006FFD0000
02FFFF8000
07FFFFE000
0FFFFFF000
0FE3D7F000
0BF00BF000
07FEBFD000
02FFFF8000
0BFAAAF400
3FC000BD00
BF8BFFFE00
FF8FFFFF00
FF8FFFFF40
FF8FFFFF40
FF8FC03F40
FF8FE93F40
FF8FFE3F40
FF8BFE3F40
FFC5543F40
FFE555BF40
FFFFFFFF40
FFFFFFFF40
BFFFFFFF00
7FFFFFFD00
1FFFFFF800
02FFFF9000
ENDCHAR
STARTCHAR Gdotaccent
ENCODING 288
SWIDTH 578 0
DWIDTH 16 0
BBX 17 26 0 0
BITMAP
006FFD0000
02FFFF8000
07FFFFE000
0FFEBFF000
0FFC3FF000
0BFEBFF000
07FFFFE000
03FFFFC000
0BFAAAF400
3FC000BD00
BF8BFFFE00
FF8FFFFF00
FF8FFFFF40
FF8FFFFF40
FF8FC03F40
FF8FE93F40
FF8FFE3F40
FF8BFE3F40
FFC5543F40
FFE555BF40
FFFFFFFF40
FFFFFFFF40
BFFFFFFF00
7FFFFFFD00
1FFFFFF800
02FFFF9000
ENDCHAR
STARTCHAR gdotaccent
ENCODING 289
SWIDTH 578 0
DWIDTH 16 0
BBX 17 26 0 0
BITMAP
006FFD0000
02FFFF8000
07FFFFE000
0FFEBFF000
0FFC3FF000
0BFEBFF000
07FFFFE000
03FFFFC000
0BFAAAF400
3FC000BD00
BF8BFFFE00
FF8FFFFF00
FF8FFFFF40
FF8FFFFF40
FF8FC03F40
FF8FE93F40
FF8FFE3F40
FF8BFE3F40
FFC5543F40
FFE555BF40
FFFFFFFF40
FFFFFFFF40
BFFFFFFF00
7FFFFFFD00
1FFFFFF800
02FFFF9000
ENDCHAR
STARTCHAR Gcommaaccent
ENCODING 290
SWIDTH 578 0
DWIDTH 16 0
BBX 17 19 0 0
BITMAP
01AAAA4000
0BFAAAF400
3FC000BD00
BF8BFFFE00
FF8FFFFF00
FF8FFFFF40
FF8FFFFF40
FF8FC03F40
FF8FE93F40
FF8FFE3F40
FF8BFE3F40
FFC5543F40
FFE555BF40
FFFFFFFF40
FFFF0FFF40
BFFF4FFF00
7FFF5FFD00
1FFFFFF800
02FFFF9000
ENDCHAR
STARTCHAR gcommaaccent
ENCODING 291
SWIDTH 578 0
DWIDTH 16 0
BBX 17 19 0 0
BITMAP
01AAAA4000
0BFAAAF400
3FC000BD00
BF8BFFFE00
FF8FFFFF00
FF8FFFFF40
FF8FFFFF40
FF8FC03F40
FF8FE93F40
FF8FFE3F40
FF8BFE3F40
FFC5543F40
FFE555BF40
FFFFFFFF40
FFFF0FFF40
BFFF4FFF00
7FFF5FFD00
1FFFFFF800
02FFFF9000
ENDCHAR
STARTCHAR Hcircumflex
ENCODING 292
SWIDTH 578 0
DWIDTH 16 0
BBX 17 27 0 0
BITMAP
000BF40000
001FFD0000
003FBE0000
007E2F4000
00BC9F8000
00F9CFC000
01F6D7D000
02FBFBD000
02FFFFD000
0BFFFFB400
3F4FFE3D00
BF4FFE3E00
FF4FFE3F00
FF4FFE3F40
FF45553F40
FF45553F40
FF4FFE3F40
FF4FFE3F40
FF4FFE3F40
FF4FFE3F40
FF9FFE7F40
FFFFFFFF40
FFFFFFFF40
BFFFFFFF00
7FFFFFFD00
1FFFFFF800
02FFFF9000
ENDCHAR
STARTCHAR hcircumflex
ENCODING 293
SWIDTH 578 0
DWIDTH 16 0
BBX 17 27 0 0
BITMAP
0007F40000
001FFD0000
002FBF0000
007E2F4000
00BD8F8000
00FDDBC000
01F5E7D000
01FBFBE000
02FFFFD000
0BFFFFF400
3F4FFE3D00
BF4FFE3E00
FF4FFE3F00
FF4FFE3F40
FF45553F40
FF45553F40
FF4FFE3F40
FF4FFE3F40
FF4FFE3F40
FF4FFE3F40
FF9FFE7F40
FFFFFFFF40
FFFFFFFF40
BFFFFFFF00
7FFFFFFD00
1FFFFFF800
02FFFF9000
ENDCHAR
STARTCHAR Hbar
ENCODING 294
SWIDTH 578 0
DWIDTH 16 0
BBX 17 26 0 0
BITMAP
006FFE0000
01FFFFD000
07FFFFF000
0BFAABF400
0BE007F400
07FFFFF400
03FFFFE000
01FFFFC000
0BAFFEB400
3F4FFE3D00
BF4FFE3E00
FF4FFE3F00
FF4FFE3F40
FF45553F40
FF45553F40
FF4FFE3F40
FF4FFE3F40
FF4FFE3F40
FF4FFE3F40
FF9FFE7F40
FFFFFFFF40
FFFFFFFF40
BFFFFFFF00
7FFFFFFD00
1FFFFFF800
02FFFF9000
ENDCHAR
STARTCHAR hbar
ENCODING 295
SWIDTH 578 0
DWIDTH 16 0
BBX 17 19 0 0
BITMAP
01AAAA4000
0BAFFEB400
3F4FFE3D00
BF05551E00
FF45552F00
FF4FFE3F40
FF45553F40
FF45553F40
FF4FFE3F40
FF4FFE3F40
FF4FFE3F40
FF4FFE3F40
FF9FFE7F40
FFFFFFFF40
FFFFFFFF40
BFFFFFFF00
7FFFFFFD00
1FFFFFF800
02FFFF9000
ENDCHAR
STARTCHAR Itilde
ENCODING 296
SWIDTH 578 0
DWIDTH 16 0
BBX 17 27 0 0
BITMAP
001BFA0000
007FFFD000
01FFFFF000
03FFFFF800
03FFFFFC00
03F5B5FC00
03E101F800
02FBEBF400
01FFFFE000
0BEAAAB400
3FC0007D00
BFFF1FFE00
FFFF1FFF00
FFFF1FFF40
FFFF1FFF40
FFFF1FFF40
FFFF1FFF40
FFFF1FFF40
FFFF1FFF40
FFD5057F40
FFD5557F40
FFFFFFFF40
FFFFFFFF40
BFFFFFFF00
7FFFFFFD00
1FFFFFF800
02FFFF9000
ENDCHAR
STARTCHAR itilde
ENCODING 297
SWIDTH 578 0
DWIDTH 16 0
BBX 17 27 0 0
BITMAP
001BFA0000
00BFFFD000
01FFFFF000
03FFFFF800
03FFFFF800
07F5B5FC00
03E102F800
02FBEBF400
01FFFFE000
0BEAAAB400
3FC0007D00
BFFF1FFE00
FFFF1FFF00
FFFF1FFF40
FFFF1FFF40
FFFF1FFF40
FFFF1FFF40
FFFF1FFF40
FFFF1FFF40
FFD5057F40
FFD5557F40
FFFFFFFF40
FFFFFFFF40
BFFFFFFF00
7FFFFFFD00
1FFFFFF800
02FFFF9000
ENDCHAR
STARTCHAR Imacron
ENCODING 298
SWIDTH 578 0
DWIDTH 16 0
BBX 17 26 0 0
BITMAP
002FFE4000
01FFFFE000
03FFFFF400
07FAABF800
07F003F800
03FFFFF800
02FFFFF000
01FFFFD000
0BEAAAB400
3FC0007D00
BFFF1FFE00
FFFF1FFF00
FFFF1FFF40
FFFF1FFF40
FFFF1FFF40
FFFF1FFF40
FFFF1FFF40
FFFF1FFF40
FFD5057F40
FFD5557F40
FFFFFFFF40
FFFFFFFF40
BFFFFFFF00
7FFFFFFD00
1FFFFFF800
02FFFF9000
ENDCHAR
STARTCHAR imacron
ENCODING 299
SWIDTH 578 0
DWIDTH 16 0
BBX 17 26 0 0
BITMAP
002FFE4000
01FFFFE000
03FFFFF400
07FAABF800
07F003F800
03FFFFF400
02FFFFF000
01FFFFD000
0BEAAAB400
3FC0007D00
BFFF1FFE00
FFFF1FFF00
FFFF1FFF40
FFFF1FFF40
FFFF1FFF40
FFFF1FFF40
FFFF1FFF40
FFFF1FFF40
FFD5057F40
FFD5557F40
FFFFFFFF40
FFFFFFFF40
BFFFFFFF00
7FFFFFFD00
1FFFFFF800
02FFFF9000
ENDCHAR
STARTCHAR Ibreve
ENCODING 300
SWIDTH 578 0
DWIDTH 16 0
BBX 17 26 0 0
BITMAP
001FFE4000
00BFFFE000
02FFFFF400
03FFFFFC00
03F5F2FC00
03F803F800
01FFAFF400
01FFFFD000
0BEAAAB400
3FC0007D00
BFFF1FFE00
FFFF1FFF00
FFFF1FFF40
FFFF1FFF40
FFFF1FFF40
FFFF1FFF40
FFFF1FFF40
FFFF1FFF40
FFD5057F40
FFD5557F40
FFFFFFFF40
FFFFFFFF40
BFFFFFFF00
7FFFFFFD00
1FFFFFF800
02FFFF9000
ENDCHAR
STARTCHAR ibreve
ENCODING 301
SWIDTH 578 0
DWIDTH 16 0
BBX 17 26 0 0
BITMAP
002FFE4000
00FFFFE000
02FFFFF400
03FFFFF800
07F5F2F800
03F803F800
01FFAFF000
01FFFFD000
0BEAAAB400
3FC0007D00
BFFF1FFE00
FFFF1FFF00
FFFF1FFF40
FFFF1FFF40
FFFF1FFF40
FFFF1FFF40
FFFF1FFF40
FFFF1FFF40
FFD5057F40
FFD5557F40
FFFFFFFF40
FFFFFFFF40
BFFFFFFF00
7FFFFFFD00
1FFFFFF800
02FFFF9000
ENDCHAR
STARTCHAR Iogonek
ENCODING 302
SWIDTH 578 0
DWIDTH 16 0
BBX 17 19 0 0
BITMAP
01AAAA4000
0BEAAAB400
3FC0007D00
BFFF1FFE00
FFFF1FFF00
FFFF1FFF40
FFFF1FFF40
FFFF1FFF40
FFFF1FFF40
FFFF1FFF40
FFFF1FFF40
FFD5057F40
FFD5547F40
FFFFF8BF40
FFFFF2FF40
BFFFF2FF00
7FFFF47D00
1FFFFFF800
02FFFF9000
ENDCHAR
STARTCHAR iogonek
ENCODING 303
SWIDTH 578 0
DWIDTH 16 0
BBX 17 19 0 0
BITMAP
01AAAA4000
0BEAAAB400
3FC0007D00
BFFF1FFE00
FFFF1FFF00
FFFF1FFF40
FFFF1FFF40
FFFF1FFF40
FFFF1FFF40
FFFF1FFF40
FFFF1FFF40
FFD5057F40
FFD5547F40
FFFFF8BF40
FFFFF2FF40
BFFFF2FF00
7FFFF47D00
1FFFFFF800
02FFFF9000
ENDCHAR
STARTCHAR Idotaccent
ENCODING 304
SWIDTH 578 0
DWIDTH 16 0
BBX 17 26 0 0
BITMAP
006FFE0000
01FFFFD000
07FFFFF000
0BFEBFF400
0BFD2FF400
07FEBFF400
03FFFFF000
02FFFFD000
0BEAAAB400
3FC0007D00
BFFF1FFE00
FFFF1FFF00
FFFF1FFF40
FFFF1FFF40
FFFF1FFF40
FFFF1FFF40
FFFF1FFF40
FFFF1FFF40
FFD5057F40
FFD5557F40
FFFFFFFF40
FFFFFFFF40
BFFFFFFF00
7FFFFFFD00
1FFFFFF800
02FFFF9000
ENDCHAR
STARTCHAR dotlessi
ENCODING 305
SWIDTH 578 0
DWIDTH 16 0
BBX 17 19 0 0
BITMAP
01AAAA4000
0BEAAAB400
3FC0007D00
BFFF1FFE00
FFFF1FFF00
FFFF1FFF40
FFFF1FFF40
FFFF1FFF40
FFFF1FFF40
FFFF1FFF40
FFFF1FFF40
FFD5057F40
FFD5557F40
FFFFFFFF40
FFFFFFFF40
BFFFFFFF00
7FFFFFFD00
1FFFFFF800
02FFFF9000
ENDCHAR
STARTCHAR IJ
ENCODING 306
SWIDTH 578 0
DWIDTH 16 0
BBX 17 19 0 0
BITMAP
01AAAA4000
0AAAFFA400
3400FF1D00
BF8FFF1E00
FF8FFF1F00
FF8FFF1F40
FF8FFF1F40
FF8FFF1F40
FF8FFF1F40
FF8FFF1F40
FF8FFF1F40
F945D51F40
F955D57F40
FFFFFFFF40
FFFFFFFF40
BFFFFFFF00
7FFFFFFD00
1FFFFFF800
02FFFF9000
ENDCHAR
STARTCHAR ij
ENCODING 307
SWIDTH 578 0
DWIDTH 16 0
BBX 17 19 0 0
BITMAP
01AAAA4000
0AAAFFA400
3400FF1D00
BF8FFF1E00
FF8FFF1F00
FF8FFF1F40
FF8FFF1F40
FF8FFF1F40
FF8FFF1F40
FF8FFF1F40
FF8FFF1F40
F945D51F40
F955D57F40
FFFFFFFF40
FFFFFFFF40
BFFFFFFF00
7FFFFFFD00
1FFFFFF800
02FFFF9000
ENDCHAR
STARTCHAR Jcircumflex
ENCODING 308
SWIDTH 578 0
DWIDTH 16 0
BBX 17 27 0 0
BITMAP
0007F80000
001FFE0000
002FBF0000
003E1F4000
00BD8FC000
00FCDBD000
01F9E7E000
01FBFBE000
01FFFFD000
0BFFFFF400
3FFFD7FD00
BFFFD7FE00
FFFFD7FF00
FFFFD7FF40
FFFFD7FF40
FFFFD7FF40
FFFFD7FF40
FFFFD7FF40
FFFFD7FF40
FFF547FF40
FFF55FFF40
FFFFFFFF40
FFFFFFFF40
BFFFFFFF00
7FFFFFFD00
1FFFFFF800
02FFFF9000
ENDCHAR
STARTCHAR jcircumflex
ENCODING 309
SWIDTH 578 0
DWIDTH 16 0
BBX 17 27 0 0
BITMAP
0007F80000
001FFE0000
002FBF0000
003E1F4000
00BD8FC000
00FCDBD000
01F9E7E000
01FBFBE000
01FFFFD000
0BFFFFF400
3FFFD7FD00
BFFFD7FE00
FFFFD7FF00
FFFFD7FF40
FFFFD7FF40
FFFFD7FF40
FFFFD7FF40
FFFFD7FF40
FFFFD7FF40
FFF547FF40
FFF55FFF40
FFFFFFFF40
FFFFFFFF40
BFFFFFFF00
7FFFFFFD00
1FFFFFF800
02FFFF9000
ENDCHAR
STARTCHAR Kcommaaccent
ENCODING 310
SWIDTH 578 0
DWIDTH 16 0
BBX 17 19 0 0
BITMAP
01AAAA4000
0BEBFF6400
3FE3FD2D00
BFE3F4BE00
FFE3D2FF00
FFE34BFF40
FFE12FFF40
FFE02FFF40
FFE24BFF40
FFE3D2FF40
FFE3F0FF40
FFE3FC3F40
FFE7FE7F40
FFFFFFFF40
FFFF0FFF40
BFFF4FFF00
7FFF5FFD00
1FFFFFF800
02FFFF9000
ENDCHAR
STARTCHAR kcommaaccent
ENCODING 311
SWIDTH 578 0
DWIDTH 16 0
BBX 17 19 0 0
BITMAP
01AAAA4000
0BEBFF6400
3FE3FD2D00
BFE3F4BE00
FFE3D2FF00
FFE34BFF40
FFE12FFF40
FFE02FFF40
FFE24BFF40
FFE3D2FF40
FFE3F0FF40
FFE3FC3F40
FFE7FE7F40
FFFFFFFF40
FFFF0FFF40
BFFF4FFF00
7FFF5FFD00
1FFFFFF800
02FFFF9000
ENDCHAR
STARTCHAR kgreenlandic
ENCODING 312
SWIDTH 578 0
DWIDTH 16 0
BBX 17 19 0 0
BITMAP
01AAAA4000
0BEBFF6400
3FE3FD2D00
BFE3F4BE00
FFE3D2FF00
FFE34BFF40
FFE12FFF40
FFE02FFF40
FFE24BFF40
FFE3D2FF40
FFE3F0FF40
FFE3FC3F40
FFE7FE7F40
FFFFFFFF40
FFFFFFFF40
BFFFFFFF00
7FFFFFFD00
1FFFFFF800
02FFFF9000
ENDCHAR
STARTCHAR Lacute
ENCODING 313
SWIDTH 578 0
DWIDTH 16 0
BBX 17 28 0 0
BITMAP
0001500000
001FFD0000
003FFF4000
007E2F4000
00BD7F4000
00FCBE0000
00F8FC0000
01FAF80000
00FFF00000
01BFFA4000
0BFAFFF400
3FF1FFFD00
BFF1FFFE00
FFF1FFFF00
FFF1FFFF40
FFF1FFFF40
FFF1FFFF40
FFF1FFFF40
FFF1FFFF40
FFF1FFFF40
FFF055FF40
FFF555FF40
FFFFFFFF40
FFFFFFFF40
BFFFFFFF00
7FFFFFFD00
1FFFFFF800
02FFFF9000
ENDCHAR
STARTCHAR lacute
ENCODING 314
SWIDTH 578 0
DWIDTH 16 0
BBX 17 28 0 0
BITMAP
0001500000
001FFD0000
003FFF4000
007E2F4000
00BD7F4000
00FCBE0000
00F8FC0000
01FAF80000
00FFF00000
01BFFA4000
0BFAFFF400
3FF1FFFD00
BFF1FFFE00
FFF1FFFF00
FFF1FFFF40
FFF1FFFF40
FFF1FFFF40
FFF1FFFF40
FFF1FFFF40
FFF1FFFF40
FFF055FF40
FFF555FF40
FFFFFFFF40
FFFFFFFF40
BFFFFFFF00
7FFFFFFD00
1FFFFFF800
02FFFF9000
ENDCHAR
STARTCHAR Lcommaaccent
ENCODING 315
SWIDTH 578 0
DWIDTH 16 0
BBX 17 19 0 0
BITMAP
01AAAA4000
0BFAFFF400
3FF1FFFD00
BFF1FFFE00
FFF1FFFF00
FFF1FFFF40
FFF1FFFF40
FFF1FFFF40
FFF1FFFF40
FFF1FFFF40
FFF1FFFF40
FFF055FF40
FFF555FF40
FFFFFFFF40
FFFF0FFF40
BFFF4FFF00
7FFF5FFD00
1FFFFFF800
02FFFF9000
ENDCHAR
STARTCHAR lcommaaccent
ENCODING 316
SWIDTH 578 0
DWIDTH 16 0
BBX 17 19 0 0
BITMAP
01AAAA4000
0BFAFFF400
3FF1FFFD00
BFF1FFFE00
FFF1FFFF00
FFF1FFFF40
FFF1FFFF40
FFF1FFFF40
FFF1FFFF40
FFF1FFFF40
FFF1FFFF40
FFF055FF40
FFF555FF40
FFFFFFFF40
FFFF0FFF40
BFFF4FFF00
7FFF5FFD00
1FFFFFF800
02FFFF9000
ENDCHAR
STARTCHAR Lcaron
ENCODING 317
SWIDTH 578 0
DWIDTH 16 0
BBX 17 19 0 0
BITMAP
01AAAA4000
0BFAEAF400
3FF1D1FD00
BFF1F2FE00
FFF1F7FF00
FFF1FFFF40
FFF1FFFF40
FFF1FFFF40
FFF1FFFF40
FFF1FFFF40
FFF1FFFF40
FFF055FF40
FFF555FF40
FFFFFFFF40
FFFFFFFF40
BFFFFFFF00
7FFFFFFD00
1FFFFFF800
02FFFF9000
ENDCHAR
STARTCHAR lcaron
ENCODING 318
SWIDTH 578 0
DWIDTH 16 0
BBX 17 19 0 0
BITMAP
01AAAA4000
0BFAEAF400
3FF1D1FD00
BFF1F2FE00
FFF1F7FF00
FFF1FFFF40
FFF1FFFF40
FFF1FFFF40
FFF1FFFF40
FFF1FFFF40
FFF1FFFF40
FFF055FF40
FFF555FF40
FFFFFFFF40
FFFFFFFF40
BFFFFFFF00
7FFFFFFD00
1FFFFFF800
02FFFF9000
ENDCHAR
STARTCHAR Ldot
ENCODING 319
SWIDTH 578 0
DWIDTH 16 0
BBX 17 19 0 0
BITMAP
01AAAA4000
0BFAFFF400
3FF1FFFD00
BFF1FFFE00
FFF1FFFF00
FFF1C7FF40
FFF1DBFF40
FFF1FFFF40
FFF1FFFF40
FFF1FFFF40
FFF1FFFF40
FFF055FF40
FFF555FF40
FFFFFFFF40
FFFFFFFF40
BFFFFFFF00
7FFFFFFD00
1FFFFFF800
02FFFF9000
ENDCHAR
STARTCHAR ldot
ENCODING 320
SWIDTH 578 0
DWIDTH 16 0
BBX 17 19 0 0
BITMAP
01AAAA4000
0BFAFFF400
3FF1FFFD00
BFF1FFFE00
FFF1FFFF00
FFF1C7FF40
FFF1DBFF40
FFF1FFFF40
FFF1FFFF40
FFF1FFFF40
FFF1FFFF40
FFF055FF40
FFF555FF40
FFFFFFFF40
FFFFFFFF40
BFFFFFFF00
7FFFFFFD00
1FFFFFF800
02FFFF9000
ENDCHAR
STARTCHAR Lslash
ENCODING 321
SWIDTH 578 0
DWIDTH 16 0
BBX 17 19 0 0
BITMAP
01AAAA4000
0BFAFFF400
3FF1FFFD00
BFF1FFFE00
FFF1FFFF00
FFF17FFF40
FFF0BFFF40
FF81FFFF40
FFF1FFFF40
FFF1FFFF40
FFF1FFFF40
FFF055FF40
FFF555FF40
FFFFFFFF40
FFFFFFFF40
BFFFFFFF00
7FFFFFFD00
1FFFFFF800
02FFFF9000
ENDCHAR
STARTCHAR lslash
ENCODING 322
SWIDTH 578 0
DWIDTH 16 0
BBX 17 19 0 0
BITMAP
01AAAA4000
0BFAFFF400
3FF1FFFD00
BFF1FFFE00
FFF1FFFF00
FFF17FFF40
FFF0BFFF40
FF81FFFF40
FFF1FFFF40
FFF1FFFF40
FFF1FFFF40
FFF055FF40
FFF555FF40
FFFFFFFF40
FFFFFFFF40
BFFFFFFF00
7FFFFFFD00
1FFFFFF800
02FFFF9000
ENDCHAR
STARTCHAR Nacute
ENCODING 323
SWIDTH 578 0
DWIDTH 16 0
BBX 17 28 0 0
BITMAP
0000540000
0007FF8000
000BFFD000
000F8BE000
001F8FD000
002F6F8000
003F3F4000
003FBE0000
002FFC0000
01AFFE4000
0BEAAAF400
3F4000BD00
BF4FFD7E00
FF4FFD7F00
FF4FFD7F40
FF4FFD7F40
FF4FFD7F40
FF4FFD7F40
FF4FFD7F40
FF4FFD7F40
FF4FFD7F40
FF9FFD7F40
FFFFFFFF40
FFFFFFFF40
BFFFFFFF00
7FFFFFFD00
1FFFFFF800
02FFFF9000
ENDCHAR
STARTCHAR nacute
ENCODING 324
SWIDTH 578 0
DWIDTH 16 0
BBX 17 28 0 0
BITMAP
0000540000
0007FF8000
000BFFD000
000F8BE000
001F8FD000
002F6F8000
003F3F4000
003FBE0000
002FFC0000
01AFFE4000
0BEAAAF400
3F4000BD00
BF4FFD7E00
FF4FFD7F00
FF4FFD7F40
FF4FFD7F40
FF4FFD7F40
FF4FFD7F40
FF4FFD7F40
FF4FFD7F40
FF4FFD7F40
FF9FFD7F40
FFFFFFFF40
FFFFFFFF40
BFFFFFFF00
7FFFFFFD00
1FFFFFF800
02FFFF9000
ENDCHAR
STARTCHAR Ncommaaccent
ENCODING 325
SWIDTH 578 0
DWIDTH 16 0
BBX 17 19 0 0
BITMAP
01AAAA4000
0BEAAAF400
3F4000BD00
BF4FFD7E00
FF4FFD7F00
FF4FFD7F40
FF4FFD7F40
FF4FFD7F40
FF4FFD7F40
FF4FFD7F40
FF4FFD7F40
FF4FFD7F40
FF9FFD7F40
FFFFFFFF40
FFFF0FFF40
BFFF4FFF00
7FFF5FFD00
1FFFFFF800
02FFFF9000
ENDCHAR
STARTCHAR ncommaaccent
ENCODING 326
SWIDTH 578 0
DWIDTH 16 0
BBX 17 19 0 0
BITMAP
01AAAA4000
0BEAAAF400
3F4000BD00
BF4FFD7E00
FF4FFD7F00
FF4FFD7F40
FF4FFD7F40
FF4FFD7F40
FF4FFD7F40
FF4FFD7F40
FF4FFD7F40
FF4FFD7F40
FF9FFD7F40
FFFFFFFF40
FFFF0FFF40
BFFF4FFF00
7FFF5FFD00
1FFFFFF800
02FFFF9000
ENDCHAR
STARTCHAR Ncaron
ENCODING 327
SWIDTH 578 0
DWIDTH 16 0
BBX 17 26 0 0
BITMAP
00BEBF4000
02FFFFC000
03F7DBC000
02F6CFC000
02F99F8000
01FD6F8000
00FD7F4000
01FFFF4000
0BFFFFF400
3F4000BD00
BF4FFD7E00
FF4FFD7F00
FF4FFD7F40
FF4FFD7F40
FF4FFD7F40
FF4FFD7F40
FF4FFD7F40
FF4FFD7F40
FF4FFD7F40
FF9FFD7F40
FFFFFFFF40
FFFFFFFF40
BFFFFFFF00
7FFFFFFD00
1FFFFFF800
02FFFF9000
ENDCHAR
STARTCHAR ncaron
ENCODING 328
SWIDTH 578 0
DWIDTH 16 0
BBX 17 26 0 0
BITMAP
00BEBF4000
02FFFFC000
03F7DBC000
02F6CFC000
02F99F8000
01FD6F8000
00FD7F4000
01FFFF4000
0BFFFFF400
3F4000BD00
BF4FFD7E00
FF4FFD7F00
FF4FFD7F40
FF4FFD7F40
FF4FFD7F40
FF4FFD7F40
FF4FFD7F40
FF4FFD7F40
FF4FFD7F40
FF9FFD7F40
FFFFFFFF40
FFFFFFFF40
BFFFFFFF00
7FFFFFFD00
1FFFFFF800
02FFFF9000
ENDCHAR
STARTCHAR napostrophe
ENCODING 329
SWIDTH 578 0
DWIDTH 16 0
BBX 17 19 0 0
BITMAP
01AAAA4000
0BEAAAF400
2B4000BD00
924FFD7E00
E24FFD7F00
F34FFD7F40
FF4FFD7F40
FF4FFD7F40
FF4FFD7F40
FF4FFD7F40
FF4FFD7F40
FF4FFD7F40
FF9FFD7F40
FFFFFFFF40
FFFFFFFF40
BFFFFFFF00
7FFFFFFD00
1FFFFFF800
02FFFF9000
ENDCHAR
STARTCHAR Eng
ENCODING 330
SWIDTH 578 0
DWIDTH 16 0
BBX 17 19 0 0
BITMAP
01AAAA4000
0BEAAAF400
3F4000BD00
BF4FFD7E00
FF4FFD7F00
FF4FFD7F40
FF4FFD7F40
FF4FFD7F40
FF4FFD7F40
FF4FFD7F40
FF4FFD7F40
FF4FFD7F40
FF9FFD7F40
FFFFFD7F40
FFFFFD7F40
BFFF547F00
7FFF55FD00
1FFFFFF800
02FFFF9000
ENDCHAR
STARTCHAR eng
ENCODING 331
SWIDTH 578 0
DWIDTH 16 0
BBX 17 19 0 0
BITMAP
01AAAA4000
0BEAAAF400
3F4000BD00
BF4FFD7E00
FF4FFD7F00
FF4FFD7F40
FF4FFD7F40
FF4FFD7F40
FF4FFD7F40
FF4FFD7F40
FF4FFD7F40
FF4FFD7F40
FF9FFD7F40
FFFFFD7F40
FFFFFD7F40
BFFF547F00
7FFF55FD00
1FFFFFF800
02FFFF9000
ENDCHAR
STARTCHAR Omacron
ENCODING 332
SWIDTH 578 0
DWIDTH 16 0
BBX 17 26 0 0
BITMAP
002FFE4000
01FFFFE000
03FFFFF400
07FAABF800
07F003F800
03FFFFF800
02FFFFF000
01FFFFD000
0BEAAAF400
3F80007D00
BF4FFD3E00
FF4FFE3F00
FF4FFE3F40
FF4FFE3F40
FF4FFE3F40
FF4FFE3F40
FF4FFE3F40
FF4FFE3F40
FF85543F40
FFD555BF40
FFFFFFFF40
FFFFFFFF40
BFFFFFFF00
7FFFFFFD00
1FFFFFF800
02FFFF9000
ENDCHAR
STARTCHAR omacron
ENCODING 333
SWIDTH 578 0
DWIDTH 16 0
BBX 17 26 0 0
BITMAP
002FFE4000
01FFFFE000
03FFFFF400
07FAABF800
07F003F800
03FFFFF800
02FFFFF000
01FFFFD000
0BEAAAF400
3F80007D00
BF4FFD3E00
FF4FFE3F00
FF4FFE3F40
FF4FFE3F40
FF4FFE3F40
FF4FFE3F40
FF4FFE3F40
FF4FFE3F40
FF85543F40
FFD555BF40
FFFFFFFF40
FFFFFFFF40
BFFFFFFF00
7FFFFFFD00
1FFFFFF800
02FFFF9000
ENDCHAR
STARTCHAR Obreve
ENCODING 334
SWIDTH 578 0
DWIDTH 16 0
BBX 17 26 0 0
BITMAP
002FFE4000
01FFFFE000
03FFFFF400
07FFFFF800
07F5F2F800
03F807F800
02FFAFF000
01FFFFD000
0BEAAAF400
3F80007D00
BF4FFD3E00
FF4FFE3F00
FF4FFE3F40
FF4FFE3F40
FF4FFE3F40
FF4FFE3F40
FF4FFE3F40
FF4FFE3F40
FF85543F40
FFD555BF40
FFFFFFFF40
FFFFFFFF40
BFFFFFFF00
7FFFFFFD00
1FFFFFF800
02FFFF9000
ENDCHAR
STARTCHAR obreve
ENCODING 335
SWIDTH 578 0
DWIDTH 16 0
BBX 17 26 0 0
BITMAP
002FFE4000
01FFFFE000
03FFFFF400
07FFFFF800
07F5F2F800
03F807F800
02FFAFF000
01FFFFD000
0BEAAAF400
3F80007D00
BF4FFD3E00
FF4FFE3F00
FF4FFE3F40
FF4FFE3F40
FF4FFE3F40
FF4FFE3F40
FF4FFE3F40
FF4FFE3F40
FF85543F40
FFD555BF40
FFFFFFFF40
FFFFFFFF40
BFFFFFFF00
7FFFFFFD00
1FFFFFF800
02FFFF9000
ENDCHAR
STARTCHAR Ohungarumlaut
ENCODING 336
SWIDTH 578 0
DWIDTH 16 0
BBX 17 27 0 0
BITMAP
000069A400
0002FFF800
0007FFFD00
000BDB5E00
001F9F3F00
003F7DBD00
007EB9F800
00BEFBF000
01FFFFD000
0BFFFFF400
3F80007D00
BF4FFD3E00
FF4FFE3F00
FF4FFE3F40
FF4FFE3F40
FF4FFE3F40
FF4FFE3F40
FF4FFE3F40
FF4FFE3F40
FF85543F40
FFD555BF40
FFFFFFFF40
FFFFFFFF40
BFFFFFFF00
7FFFFFFD00
1FFFFFF800
02FFFF9000
ENDCHAR
STARTCHAR ohungarumlaut
ENCODING 337
SWIDTH 578 0
DWIDTH 16 0
BBX 17 27 0 0
BITMAP
000069A400
0002FFF800
0007FFFD00
000BDB5E00
001F9F3F00
003F7DBD00
007EB9F800
00BEFBF000
01FFFFD000
0BFFFFF400
3F80007D00
BF4FFD3E00
FF4FFE3F00
FF4FFE3F40
FF4FFE3F40
FF4FFE3F40
FF4FFE3F40
FF4FFE3F40
FF4FFE3F40
FF85543F40
FFD555BF40
FFFFFFFF40
FFFFFFFF40
BFFFFFFF00
7FFFFFFD00
1FFFFFF800
02FFFF9000
ENDCHAR
STARTCHAR OE
ENCODING 338
SWIDTH 578 0
DWIDTH 16 0
BBX 17 19 0 0
BITMAP
01AAAA4000
0BAAAAA400
3D00002D00
BC7F1FFE00
FC7F1FFF00
FC7F1FFF40
FC7F15BF40
FC7F007F40
FC7F1FFF40
FC7F1FFF40
FC7F1FFF40
FD15056F40
FF55556F40
FFFFFFFF40
FFFFFFFF40
BFFFFFFF00
7FFFFFFD00
1FFFFFF800
02FFFF9000
ENDCHAR
STARTCHAR oe
ENCODING 339
SWIDTH 578 0
DWIDTH 16 0
BBX 17 19 0 0
BITMAP
01AAAA4000
0BAAAAA400
3D00002D00
BC7F1FFE00
FC7F1FFF00
FC7F1FFF40
FC7F15BF40
FC7F007F40
FC7F1FFF40
FC7F1FFF40
FC7F1FFF40
FD15056F40
FF55556F40
FFFFFFFF40
FFFFFFFF40
BFFFFFFF00
7FFFFFFD00
1FFFFFF800
02FFFF9000
ENDCHAR
STARTCHAR Racute
ENCODING 340
SWIDTH 578 0
DWIDTH 16 0
BBX 17 27 0 0
BITMAP
0000540000
0007FF8000
000BFFD000
000F8BE000
001F8FD000
002F6F8000
003F3F4000
003FBE0000
01BFFE4000
0BEFFFF400
3F8001FD00
BF8BF8FE00
FF8BF8BF00
FF8BF8BF40
FF8AA5FF40
FF8007FF40
FF8AA4FF40
FF8BFCBF40
FF8BFCBF40
FF8BFCBF40
FF9FFDBF40
FFFFFFFF40
FFFFFFFF40
BFFFFFFF00
7FFFFFFD00
1FFFFFF800
02FFFF9000
ENDCHAR
STARTCHAR racute
ENCODING 341
SWIDTH 578 0
DWIDTH 16 0
BBX 17 27 0 0
BITMAP
0000540000
0007FF8000
000BFFD000
000F8BE000
001F8FD000
002F6F8000
003F3F4000
003FBE0000
01BFFE4000
0BEFFFF400
3F8001FD00
BF8BF8FE00
FF8BF8BF00
FF8BF8BF40
FF8AA5FF40
FF8007FF40
FF8AA4FF40
FF8BFCBF40
FF8BFCBF40
FF8BFCBF40
FF9FFDBF40
FFFFFFFF40
FFFFFFFF40
BFFFFFFF00
7FFFFFFD00
1FFFFFF800
02FFFF9000
ENDCHAR
STARTCHAR Rcommaaccent
ENCODING 342
SWIDTH 578 0
DWIDTH 16 0
BBX 17 19 0 0
BITMAP
01AAAA4000
0BEAABF400
3F8001FD00
BF8BF8FE00
FF8BF8BF00
FF8BF8BF40
FF8AA5FF40
FF8007FF40
FF8AA4FF40
FF8BFCBF40
FF8BFCBF40
FF8BFCBF40
FF9FFDBF40
FFFFFFFF40
FFFF0FFF40
BFFF4FFF00
7FFF5FFD00
1FFFFFF800
02FFFF9000
ENDCHAR
STARTCHAR rcommaaccent
ENCODING 343
SWIDTH 578 0
DWIDTH 16 0
BBX 17 19 0 0
BITMAP
01AAAA4000
0BEAABF400
3F8001FD00
BF8BF8FE00
FF8BF8BF00
FF8BF8BF40
FF8AA5FF40
FF8007FF40
FF8AA4FF40
FF8BFCBF40
FF8BFCBF40
FF8BFCBF40
FF9FFDBF40
FFFFFFFF40
FFFF0FFF40
BFFF4FFF00
7FFF5FFD00
1FFFFFF800
02FFFF9000
ENDCHAR
STARTCHAR Rcaron
ENCODING 344
SWIDTH 578 0
DWIDTH 16 0
BBX 17 26 0 0
BITMAP
00BEBF4000
02FFFFC000
03F7DBC000
02F6CFC000
02F99F8000
01FD6F8000
00FD7F4000
01FFFF4000
0BFFFFF400
3F8001FD00
BF8BF8FE00
FF8BF8BF00
FF8BF8BF40
FF8AA5FF40
FF8007FF40
FF8AA4FF40
FF8BFCBF40
FF8BFCBF40
FF8BFCBF40
FF9FFDBF40
FFFFFFFF40
FFFFFFFF40
BFFFFFFF00
7FFFFFFD00
1FFFFFF800
02FFFF9000
ENDCHAR
STARTCHAR rcaron
ENCODING 345
SWIDTH 578 0
DWIDTH 16 0
BBX 17 26 0 0
BITMAP
00BEBF4000
02FFFFC000
03F7DBC000
02F6CFC000
02F99F8000
01FD6F8000
00FD7F4000
01FFFF4000
0BFFFFF400
3F8001FD00
BF8BF8FE00
FF8BF8BF00
FF8BF8BF40
FF8AA5FF40
FF8007FF40
FF8AA4FF40
FF8BFCBF40
FF8BFCBF40
FF8BFCBF40
FF9FFDBF40
FFFFFFFF40
FFFFFFFF40
BFFFFFFF00
7FFFFFFD00
1FFFFFF800
02FFFF9000
ENDCHAR
STARTCHAR Sacute
ENCODING 346
SWIDTH 578 0
DWIDTH 16 0
BBX 17 27 0 0
BITMAP
0000550000
0002FFD000
0007FFF000
000BD3F000
000FCBF000
001F8FD000
001F5F8000
002FBF4000
01BFFF4000
0BFFFEF400
3FC000BD00
BF8BFFFE00
FF8BFFFF00
FF8BFFFF40
FFC156FF40
FFE5547F40
FFFFFD7F40
FFFFFD7F40
FFFFFD7F40
FFE5547F40
FFD555FF40
FFFFFFFF40
FFFFFFFF40
BFFFFFFF00
7FFFFFFD00
1FFFFFF800
02FFFF9000
ENDCHAR
STARTCHAR sacute
ENCODING 347
SWIDTH 578 0
DWIDTH 16 0
BBX 17 27 0 0
BITMAP
0000550000
0002FFD000
0007FFF000
000BD3F000
000FCBF000
001F8FD000
001F5F8000
002FBF4000
01BFFF4000
0BFFFEF400
3FC000BD00
BF8BFFFE00
FF8BFFFF00
FF8BFFFF40
FFC156FF40
FFE5547F40
FFFFFD7F40
FFFFFD7F40
FFFFFD7F40
FFE5547F40
FFD555FF40
FFFFFFFF40
FFFFFFFF40
BFFFFFFF00
7FFFFFFD00
1FFFFFF800
02FFFF9000
ENDCHAR
STARTCHAR Scircumflex
ENCODING 348
SWIDTH 578 0
DWIDTH 16 0
BBX 17 27 0 0
BITMAP
0006F80000
000FFE0000
001FAF4000
003F1F8000
007E9BC000
00BDE7D000
00F8F3E000
00FEFBF000
01FFFFE000
0BFFFFF400
3FC000BD00
BF8BFFFE00
FF8BFFFF00
FF8BFFFF40
FFC156FF40
FFE5547F40
FFFFFD7F40
FFFFFD7F40
FFFFFD7F40
FFE5547F40
FFD555FF40
FFFFFFFF40
FFFFFFFF40
BFFFFFFF00
7FFFFFFD00
1FFFFFF800
02FFFF9000
ENDCHAR
STARTCHAR scircumflex
ENCODING 349
SWIDTH 578 0
DWIDTH 16 0
BBX 17 27 0 0
BITMAP
0006F80000
000FFE0000
001FAF4000
003F1F8000
007E9BC000
00BDE7D000
00F8F3E000
00FEFBF000
01FFFFE000
0BFFFFF400
3FC000BD00
BF8BFFFE00
FF8BFFFF00
FF8BFFFF40
FFC156FF40
FFE5547F40
FFFFFD7F40
FFFFFD7F40
FFFFFD7F40
FFE5547F40
FFD555FF40
FFFFFFFF40
FFFFFFFF40
BFFFFFFF00
7FFFFFFD00
1FFFFFF800
02FFFF9000
ENDCHAR
STARTCHAR Scedilla
ENCODING 350
SWIDTH 578 0
DWIDTH 16 0
BBX 17 19 0 0
BITMAP
01AAAA4000
0BFAAAF400
3FC000BD00
BF8BFFFE00
FF8BFFFF00
FF8BFFFF40
FFC156FF40
FFE5547F40
FFFFFD7F40
FFFFFD7F40
FFFFFD7F40
FFE5547F40
FFD505FF40
FFFD2FFF40
FFF8AFFF40
BFF8FFFF00
7FFC1FFD00
1FFFFFF800
02FFFF9000
ENDCHAR
STARTCHAR scedilla
ENCODING 351
SWIDTH 578 0
DWIDTH 16 0
BBX 17 19 0 0
BITMAP
01AAAA4000
0BFAAAF400
3FC000BD00
BF8BFFFE00
FF8BFFFF00
FF8BFFFF40
FFC156FF40
FFE5547F40
FFFFFD7F40
FFFFFD7F40
FFFFFD7F40
FFE5547F40
FFD505FF40
FFFD2FFF40
FFF8AFFF40
BFF8FFFF00
7FFC1FFD00
1FFFFFF800
02FFFF9000
ENDCHAR
STARTCHAR Scaron
ENCODING 352
SWIDTH 578 0
DWIDTH 16 0
BBX 17 26 0 0
BITMAP
006FAFD000
00FFFFE000
00F9F6F000
00FCF3F000
00BDA7E000
007F5FD000
003F5FC000
01BFFFC000
0BFFFFF400
3FC000BD00
BF8BFFFE00
FF8BFFFF00
FF8BFFFF40
FFC156FF40
FFE5547F40
FFFFFD7F40
FFFFFD7F40
FFFFFD7F40
FFE5547F40
FFD555FF40
FFFFFFFF40
FFFFFFFF40
BFFFFFFF00
7FFFFFFD00
1FFFFFF800
02FFFF9000
ENDCHAR
STARTCHAR scaron
ENCODING 353
SWIDTH 578 0
DWIDTH 16 0
BBX 17 26 0 0
BITMAP
006FAFD000
00FFFFE000
00F9F6F000
00FCF3F000
00BDA7E000
007F5FD000
003F5FC000
01BFFFC000
0BFFFFF400
3FC000BD00
BF8BFFFE00
FF8BFFFF00
FF8BFFFF40
FFC156FF40
FFE5547F40
FFFFFD7F40
FFFFFD7F40
FFFFFD7F40
FFE5547F40
FFD555FF40
FFFFFFFF40
FFFFFFFF40
BFFFFFFF00
7FFFFFFD00
1FFFFFF800
02FFFF9000
ENDCHAR
STARTCHAR Tcommaaccent
ENCODING 354
SWIDTH 578 0
DWIDTH 16 0
BBX 17 19 0 0
BITMAP
01AAAA4000
0BEAAAB400
3FC0007D00
BFFF1FFE00
FFFF1FFF00
FFFF1FFF40
FFFF1FFF40
FFFF1FFF40
FFFF1FFF40
FFFF1FFF40
FFFF1FFF40
FFFF1FFF40
FFFF6FFF40
FFFFFFFF40
FFFF0FFF40
BFFF4FFF00
7FFF5FFD00
1FFFFFF800
02FFFF9000
ENDCHAR
STARTCHAR tcommaaccent
ENCODING 355
SWIDTH 578 0
DWIDTH 16 0
BBX 17 19 0 0
BITMAP
01AAAA4000
0BEAAAB400
3FC0007D00
BFFF1FFE00
FFFF1FFF00
FFFF1FFF40
FFFF1FFF40
FFFF1FFF40
FFFF1FFF40
FFFF1FFF40
FFFF1FFF40
FFFF1FFF40
FFFF6FFF40
FFFFFFFF40
FFFF0FFF40
BFFF4FFF00
7FFF5FFD00
1FFFFFF800
02FFFF9000
ENDCHAR
STARTCHAR Tcaron
ENCODING 356
SWIDTH 578 0
DWIDTH 16 0
BBX 17 26 0 0
BITMAP
007FBF8000
01FFFFD000
01FAF7E000
01F9E7E000
00FCDFD000
00BD5FC000
007F2F8000
01BFFF8000
0BFFFFB400
3FC0007D00
BFFF1FFE00
FFFF1FFF00
FFFF1FFF40
FFFF1FFF40
FFFF1FFF40
FFFF1FFF40
FFFF1FFF40
FFFF1FFF40
FFFF1FFF40
FFFF6FFF40
FFFFFFFF40
FFFFFFFF40
BFFFFFFF00
7FFFFFFD00
1FFFFFF800
02FFFF9000
ENDCHAR
STARTCHAR tcaron
ENCODING 357
SWIDTH 578 0
DWIDTH 16 0
BBX 17 19 0 0
BITMAP
01AAAA4000
0BEAAAB400
3FC0007D00
BFFF1EBE00
FFFF187F00
FFFF1D7F40
FFFF1DBF40
FFFF1FFF40
FFFF1FFF40
FFFF1FFF40
FFFF1FFF40
FFFF1FFF40
FFFF6FFF40
FFFFFFFF40
FFFFFFFF40
BFFFFFFF00
7FFFFFFD00
1FFFFFF800
02FFFF9000
ENDCHAR
STARTCHAR Tbar
ENCODING 358
SWIDTH 578 0
DWIDTH 16 0
BBX 17 19 0 0
BITMAP
01AAAA4000
0BEAAAB400
3FC0007D00
BFFF1FFE00
FFFF1FFF00
FFFF1FFF40
FFFA1BFF40
FFF402FF40
FFFF1FFF40
FFFF1FFF40
FFFF1FFF40
FFFF1FFF40
FFFF6FFF40
FFFFFFFF40
FFFFFFFF40
BFFFFFFF00
7FFFFFFD00
1FFFFFF800
02FFFF9000
ENDCHAR
STARTCHAR tbar
ENCODING 359
SWIDTH 578 0
DWIDTH 16 0
BBX 17 19 0 0
BITMAP
01AAAA4000
0BEAAAB400
3FC0007D00
BFFF1FFE00
FFFF1FFF00
FFFF1FFF40
FFFA1BFF40
FFF402FF40
FFFF1FFF40
FFFF1FFF40
FFFF1FFF40
FFFF1FFF40
FFFF6FFF40
FFFFFFFF40
FFFFFFFF40
BFFFFFFF00
7FFFFFFD00
1FFFFFF800
02FFFF9000
ENDCHAR
STARTCHAR Utilde
ENCODING 360
SWIDTH 578 0
DWIDTH 16 0
BBX 17 27 0 0
BITMAP
001BF90000
00BFFFD000
01FFFFF000
03FFFFF800
07FFFFF800
07F5B5F800
03E102F800
02FBEBF400
01FFFFE000
0BAFFEB400
3F5FFD3D00
BF5FFD3E00
FF5FFD3F00
FF5FFD3F40
FF5FFD3F40
FF5FFD3F40
FF5FFD3F40
FF5FFD3F40
FF4FFD3F40
FF85547F40
FFD555FF40
FFFFFFFF40
FFFFFFFF40
BFFFFFFF00
7FFFFFFD00
1FFFFFF800
02FFFF9000
ENDCHAR
STARTCHAR utilde
ENCODING 361
SWIDTH 578 0
DWIDTH 16 0
BBX 17 27 0 0
BITMAP
001BFA0000
00BFFFD000
01FFFFF000
03FFFFF800
03FFFFF800
07F5B5FC00
03E102F800
02FBEBF400
01FFFFE000
0BAFFEB400
3F5FFD3D00
BF5FFD3E00
FF5FFD3F00
FF5FFD3F40
FF5FFD3F40
FF5FFD3F40
FF5FFD3F40
FF5FFD3F40
FF4FFD3F40
FF85547F40
FFD555FF40
FFFFFFFF40
FFFFFFFF40
BFFFFFFF00
7FFFFFFD00
1FFFFFF800
02FFFF9000
ENDCHAR
STARTCHAR Umacron
ENCODING 362
SWIDTH 578 0
DWIDTH 16 0
BBX 17 26 0 0
BITMAP
002FFE4000
00FFFFE000
02FFFFF400
07FAABF800
07F002F800
03FFFFF800
02FFFFF000
01FFFFD000
0BAFFEB400
3F5FFD3D00
BF5FFD3E00
FF5FFD3F00
FF5FFD3F40
FF5FFD3F40
FF5FFD3F40
FF5FFD3F40
FF5FFD3F40
FF4FFD3F40
FF85547F40
FFD555FF40
FFFFFFFF40
FFFFFFFF40
BFFFFFFF00
7FFFFFFD00
1FFFFFF800
02FFFF9000
ENDCHAR
STARTCHAR umacron
ENCODING 363
SWIDTH 578 0
DWIDTH 16 0
BBX 17 26 0 0
BITMAP
002FFE4000
00FFFFE000
02FFFFF400
07FAABF800
07F002F800
03FFFFF800
02FFFFF000
01FFFFD000
0BAFFEB400
3F5FFD3D00
BF5FFD3E00
FF5FFD3F00
FF5FFD3F40
FF5FFD3F40
FF5FFD3F40
FF5FFD3F40
FF5FFD3F40
FF4FFD3F40
FF85547F40
FFD555FF40
FFFFFFFF40
FFFFFFFF40
BFFFFFFF00
7FFFFFFD00
1FFFFFF800
02FFFF9000
ENDCHAR
STARTCHAR Ubreve
ENCODING 364
SWIDTH 578 0
DWIDTH 16 0
BBX 17 26 0 0
BITMAP
002FFE4000
00FFFFE000
02FFFFF400
07FFFFF800
07F5F2F800
03F803F800
02FFAFF000
01FFFFD000
0BAFFEB400
3F5FFD3D00
BF5FFD3E00
FF5FFD3F00
FF5FFD3F40
FF5FFD3F40
FF5FFD3F40
FF5FFD3F40
FF5FFD3F40
FF4FFD3F40
FF85547F40
FFD555FF40
FFFFFFFF40
FFFFFFFF40
BFFFFFFF00
7FFFFFFD00
1FFFFFF800
02FFFF9000
ENDCHAR
STARTCHAR ubreve
ENCODING 365
SWIDTH 578 0
DWIDTH 16 0
BBX 17 26 0 0
BITMAP
002FFE4000
00FFFFE000
02FFFFF400
03FFFFF800
07F5F2F800
03F803F800
01FFAFF000
01FFFFD000
0BAFFEB400
3F5FFD3D00
BF5FFD3E00
FF5FFD3F00
FF5FFD3F40
FF5FFD3F40
FF5FFD3F40
FF5FFD3F40
FF5FFD3F40
FF4FFD3F40
FF85547F40
FFD555FF40
FFFFFFFF40
FFFFFFFF40
BFFFFFFF00
7FFFFFFD00
1FFFFFF800
02FFFF9000
ENDCHAR
STARTCHAR Uring
ENCODING 366
SWIDTH 578 0
DWIDTH 16 0
BBX 17 27 0 0
BITMAP
0006A40000
002FFF4000
00BFBFC000
01F807D000
01F6E3E000
02F6E3F000
01F807E000
01FFFFD000
01FFFFC000
0BAFFEB400
3F5FFD3D00
BF5FFD3E00
FF5FFD3F00
FF5FFD3F40
FF5FFD3F40
FF5FFD3F40
FF5FFD3F40
FF5FFD3F40
FF4FFD3F40
FF85547F40
FFD555FF40
FFFFFFFF40
FFFFFFFF40
BFFFFFFF00
7FFFFFFD00
1FFFFFF800
02FFFF9000
ENDCHAR
STARTCHAR uring
ENCODING 367
SWIDTH 578 0
DWIDTH 16 0
BBX 17 27 0 0
BITMAP
0006A40000
002FFF4000
00BFBFC000
00F807D000
01F6F3E000
02F6E3F000
01F807E000
01FFFFE000
01FFFFC000
0BAFFEB400
3F5FFD3D00
BF5FFD3E00
FF5FFD3F00
FF5FFD3F40
FF5FFD3F40
FF5FFD3F40
FF5FFD3F40
FF5FFD3F40
FF4FFD3F40
FF85547F40
FFD555FF40
FFFFFFFF40
FFFFFFFF40
BFFFFFFF00
7FFFFFFD00
1FFFFFF800
02FFFF9000
ENDCHAR
STARTCHAR Uhungarumlaut
ENCODING 368
SWIDTH 581 0
DWIDTH 16 0
BBX 17 27 0 0
BITMAP
000069A400
0002FFF800
0007FFFD00
000BDB5F00
001F9F3F00
002F6DBE00
007E7DF800
00BEFBF400
01FFFFE000
0BBFFFF400
3F5FFD3D00
BF5FFD3E00
FF5FFD3F00
FF5FFD3F40
FF5FFD3F40
FF5FFD3F40
FF5FFD3F40
FF5FFD3F40
FF4FFD3F40
FF85547F40
FFD555FF40
FFFFFFFF40
FFFFFFFF40
BFFFFFFF00
7FFFFFFD00
1FFFFFF800
02FFFF9000
ENDCHAR
STARTCHAR uhungarumlaut
ENCODING 369
SWIDTH 582 0
DWIDTH 16 0
BBX 17 27 0 0
BITMAP
000069A400
0002FFFC00
0003FFFD00
000BD79F00
001F8F3F40
002F6DBE00
007E7DFC00
007EFBF400
01FFFFE000
0BBFFFF400
3F5FFD3D00
BF5FFD3E00
FF5FFD3F00
FF5FFD3F40
FF5FFD3F40
FF5FFD3F40
FF5FFD3F40
FF5FFD3F40
FF4FFD3F40
FF85547F40
FFD555FF40
FFFFFFFF40
FFFFFFFF40
BFFFFFFF00
7FFFFFFD00
1FFFFFF800
02FFFF9000
ENDCHAR
STARTCHAR Uogonek
ENCODING 370
SWIDTH 578 0
DWIDTH 16 0
BBX 17 19 0 0
BITMAP
01AAAA4000
0BAFFEB400
3F5FFD3D00
BF5FFD3E00
FF5FFD3F00
FF5FFD3F40
FF5FFD3F40
FF5FFD3F40
FF5FFD3F40
FF5FFD3F40
FF4FFD3F40
FF85547F40
FFD541FF40
FFFF5FFF40
FFFE3FFF40
BFFD7FFF00
7FFE0BFD00
1FFFFFF800
02FFFF9000
ENDCHAR
STARTCHAR uogonek
ENCODING 371
SWIDTH 578 0
DWIDTH 16 0
BBX 17 19 0 0
BITMAP
01AAAA4000
0BAFFEB400
3F5FFD3D00
BF5FFD3E00
FF5FFD3F00
FF5FFD3F40
FF5FFD3F40
FF5FFD3F40
FF5FFD3F40
FF5FFD3F40
FF4FFD3F40
FF85547F40
FFD541FF40
FFFF5FFF40
FFFE3FFF40
BFFD7FFF00
7FFE0BFD00
1FFFFFF800
02FFFF9000
ENDCHAR
STARTCHAR Wcircumflex
ENCODING 372
SWIDTH 578 0
DWIDTH 16 0
BBX 17 27 0 0
BITMAP
000BF40000
001FFD0000
003FBE0000
007D2F4000
00BC9F8000
01F9CFC000
01F6DBD000
02FBFBD000
02FFFFD000
0AFFFFE400
3C7E2F4D00
BD7E2F1E00
FD3D1F1F00
FD3D1F1F40
FE3C4F2F40
FE388E2F40
FE288A2F40
FF24CA3F40
FF25C63F40
FF11D03F40
FF97F5BF40
FFFFFFFF40
FFFFFFFF40
BFFFFFFF00
7FFFFFFD00
1FFFFFF800
02FFFF9000
ENDCHAR
STARTCHAR wcircumflex
ENCODING 373
SWIDTH 578 0
DWIDTH 16 0
BBX 17 27 0 0
BITMAP
000BF40000
001FFD0000
003FBE0000
007D2F4000
00BC9F8000
01F9CFC000
01F6DBD000
02FBFBD000
02FFFFD000
0AFFFFE400
3C7E2F4D00
BD7E2F1E00
FD3D1F1F00
FD3D1F1F40
FE3C4F2F40
FE388E2F40
FE288A2F40
FF24CA3F40
FF25C63F40
FF11D03F40
FF97F5BF40
FFFFFFFF40
FFFFFFFF40
BFFFFFFF00
7FFFFFFD00
1FFFFFF800
02FFFF9000
ENDCHAR
STARTCHAR Ycircumflex
ENCODING 374
SWIDTH 578 0
DWIDTH 16 0
BBX 17 27 0 0
BITMAP
0007F80000
001FFE0000
002FBF0000
003E1F4000
00BD8FC000
00FCDBD000
01F9E7E000
01FBFBE000
01FFFFD000
0BFFFFF400
3FC7F8BD00
BFD3F4FE00
FFE2F1FF00
FFF4E2FF40
FFF887FF40
FFFC0BFF40
FFFE0FFF40
FFFF1FFF40
FFFF2FFF40
FFFF2FFF40
FFFF6FFF40
FFFFFFFF40
FFFFFFFF40
BFFFFFFF00
7FFFFFFD00
1FFFFFF800
02FFFF9000
ENDCHAR
STARTCHAR ycircumflex
ENCODING 375
SWIDTH 578 0
DWIDTH 16 0
BBX 17 27 0 0
BITMAP
0007F80000
001FFE0000
002FBF0000
003E1F4000
00BD8FC000
00FCDBD000
01F9E7E000
01FBFBE000
01FFFFD000
0BFFFFF400
3FC7F8BD00
BFD3F4FE00
FFE2F1FF00
FFF4E2FF40
FFF887FF40
FFFC0BFF40
FFFE0FFF40
FFFF1FFF40
FFFF2FFF40
FFFF2FFF40
FFFF6FFF40
FFFFFFFF40
FFFFFFFF40
BFFFFFFF00
7FFFFFFD00
1FFFFFF800
02FFFF9000
ENDCHAR
STARTCHAR Ydieresis
ENCODING 376
SWIDTH 578 0
DWIDTH 16 0
BBX 17 25 0 0
BITMAP
001BFE0000
00BFFFD000
01FFFFE000
02F6E6F000
02F1E2F400
01FBFBF000
01FFFFD000
0BFFFFF400
3FC7F8BD00
BFD3F4FE00
FFE2F1FF00
FFF4E2FF40
FFF887FF40
FFFC0BFF40
FFFE0FFF40
FFFF1FFF40
FFFF2FFF40
FFFF2FFF40
FFFF6FFF40
FFFFFFFF40
FFFFFFFF40
BFFFFFFF00
7FFFFFFD00
1FFFFFF800
02FFFF9000
ENDCHAR
STARTCHAR Zacute
ENCODING 377
SWIDTH 578 0
DWIDTH 16 0
BBX 17 28 0 0
BITMAP
0001540000
000BFE0000
001FFF8000
002F5FC000
003F2F8000
007E3F4000
00BDBE0000
00BEFC0000
007FF40000
01BFFA4000
0BEAABF400
3FD001FD00
BFFFE2FE00
FFFFC7FF00
FFFF8BFF40
FFFF1FFF40
FFFD3FFF40
FFFC7FFF40
FFF4FFFF40
FFE2FFFF40
FFD155FF40
FFE555FF40
FFFFFFFF40
FFFFFFFF40
BFFFFFFF00
7FFFFFFD00
1FFFFFF800
02FFFF9000
ENDCHAR
STARTCHAR zacute
ENCODING 378
SWIDTH 578 0
DWIDTH 16 0
BBX 17 28 0 0
BITMAP
0001540000
000BFE0000
001FFF8000
002F5FC000
003F2F8000
007E3F4000
00BDBE0000
00BEFC0000
007FF40000
01BFFA4000
0BEAABF400
3FD001FD00
BFFFE2FE00
FFFFC7FF00
FFFF8BFF40
FFFF1FFF40
FFFD3FFF40
FFFC7FFF40
FFF4FFFF40
FFE2FFFF40
FFD155FF40
FFE555FF40
FFFFFFFF40
FFFFFFFF40
BFFFFFFF00
7FFFFFFD00
1FFFFFF800
02FFFF9000
ENDCHAR
STARTCHAR Zdotaccent
ENCODING 379
SWIDTH 578 0
DWIDTH 16 0
BBX 17 26 0 0
BITMAP
006FFD0000
02FFFF8000
07FFFFE000
0FFEBFF000
0FFC3FF000
0BFEBFF000
07FFFFE000
03FFFFC000
0BEAABF400
3FD001FD00
BFFFE2FE00
FFFFC7FF00
FFFF8BFF40
FFFF1FFF40
FFFD3FFF40
FFFC7FFF40
FFF4FFFF40
FFE2FFFF40
FFD155FF40
FFE555FF40
FFFFFFFF40
FFFFFFFF40
BFFFFFFF00
7FFFFFFD00
1FFFFFF800
02FFFF9000
ENDCHAR
STARTCHAR zdotaccent
ENCODING 380
SWIDTH 578 0
DWIDTH 16 0
BBX 17 26 0 0
BITMAP
006FFD0000
02FFFF8000
07FFFFE000
0FFEBFF000
0FFC3FF000
0BFEBFF000
07FFFFE000
03FFFFC000
0BEAABF400
3FD001FD00
BFFFE2FE00
FFFFC7FF00
FFFF8BFF40
FFFF1FFF40
FFFD3FFF40
FFFC7FFF40
FFF4FFFF40
FFE2FFFF40
FFD155FF40
FFE555FF40
FFFFFFFF40
FFFFFFFF40
BFFFFFFF00
7FFFFFFD00
1FFFFFF800
02FFFF9000
ENDCHAR
STARTCHAR Zcaron
ENCODING 381
SWIDTH 578 0
DWIDTH 16 0
BBX 17 26 0 0
BITMAP
00BFBF4000
02FFFFC000
02F7EBD000
02F6DBD000
01F9CFC000
00FD6F8000
00BE3F4000
01FFFF8000
0BFFFFF400
3FD001FD00
BFFFE2FE00
FFFFC7FF00
FFFF8BFF40
FFFF1FFF40
FFFD3FFF40
FFFC7FFF40
FFF4FFFF40
FFE2FFFF40
FFD155FF40
FFE555FF40
FFFFFFFF40
FFFFFFFF40
BFFFFFFF00
7FFFFFFD00
1FFFFFF800
02FFFF9000
ENDCHAR
STARTCHAR zcaron
ENCODING 382
SWIDTH 578 0
DWIDTH 16 0
BBX 17 26 0 0
BITMAP
00BFBF4000
02FFFFC000
02F7EBD000
02F6DBD000
01F9CFC000
00FD6F8000
00BE3F4000
01FFFF8000
0BFFFFF400
3FD001FD00
BFFFE2FE00
FFFFC7FF00
FFFF8BFF40
FFFF1FFF40
FFFD3FFF40
FFFC7FFF40
FFF4FFFF40
FFE2FFFF40
FFD155FF40
FFE555FF40
FFFFFFFF40
FFFFFFFF40
BFFFFFFF00
7FFFFFFD00
1FFFFFF800
02FFFF9000
ENDCHAR
STARTCHAR longs
ENCODING 383
SWIDTH 578 0
DWIDTH 16 0
BBX 17 19 0 0
BITMAP
01AAAA4000
0BFFFFF400
3FF95BFD00
BFD2A1FE00
FF8FFCBF00
FF6FFE7F40
FF2FBE7F40
FF6F3E7F40
FF9F3DBF40
FFD735FF40
FFFB3BFF40
FFFF7FFF40
FFFFFFFF40
FFFFFFFF40
FFFFFFFF40
BFFFFFFF00
7FFFFFFD00
1FFFFFF800
02FFFF9000
ENDCHAR
STARTCHAR florin
ENCODING 402
SWIDTH 578 0
DWIDTH 16 0
BBX 17 19 0 0
BITMAP
01AAAA4000
0BFFABF400
3FFD03FD00
BFFCBFFE00
FFFCBFFF00
FFFCBFFF40
FFE45FFF40
FFE45FFF40
FFFCBFFF40
FFFCBFFF40
FFFCBFFF40
FFFCBFFF40
FFFCBFFF40
FFFCBFFF40
FFD0FFFF40
BFEBFFFF00
7FFFFFFD00
1FFFFFF800
02FFFF9000
ENDCHAR
STARTCHAR uni01CD
ENCODING 461
SWIDTH 578 0
DWIDTH 16 0
BBX 17 26 0 0
BITMAP
007FBF8000
01FFFFD000
01F6E7E000
01F9DBD000
00FCCFD000
00FD5FC000
00BE2F8000
01BFFF8000
0BFFFFF400
3FD001FD00
BFC7F4FE00
FFCBF8FF00
FFCBF8BF40
FF8BFCBF40
FF8554BF40
FF85547F40
FF4FFC7F40
FF5FFD7F40
FF5FFD3F40
FF5FFE7F40
FFFFFFFF40
FFFFFFFF40
BFFFFFFF00
7FFFFFFD00
1FFFFFF800
02FFFF9000
ENDCHAR
STARTCHAR uni01CE
ENCODING 462
SWIDTH 578 0
DWIDTH 16 0
BBX 17 26 0 0
BITMAP
007FAF8000
00FFFFE000
01FAF7E000
00FCE7E000
00FD9BE000
00BE4FD000
007F5FC000
01BFFFC000
0BFFFFF400
3FC001FD00
BFFFF4FE00
FFFFF8FF00
FFFFF8FF40
FFFFF8FF40
FF8000FF40
FF1AA4FF40
FF1FF8FF40
FF1FF8FF40
FF4550FF40
FFD555FF40
FFFFFFFF40
FFFFFFFF40
BFFFFFFF00
7FFFFFFD00
1FFFFFF800
02FFFF9000
ENDCHAR
STARTCHAR uni01CF
ENCODING 463
SWIDTH 578 0
DWIDTH 16 0
BBX 17 26 0 0
BITMAP
007FAFD000
00FFFFE000
00F9F6F000
00FCF3F000
00BDA7E000
007E5FD000
003F5FC000
01BFFFC000
0BEFFFB400
3FC0007D00
BFFF1FFE00
FFFF1FFF00
FFFF1FFF40
FFFF1FFF40
FFFF1FFF40
FFFF1FFF40
FFFF1FFF40
FFFF1FFF40
FFD5057F40
FFD5557F40
FFFFFFFF40
FFFFFFFF40
BFFFFFFF00
7FFFFFFD00
1FFFFFF800
02FFFF9000
ENDCHAR
STARTCHAR uni01D0
ENCODING 464
SWIDTH 578 0
DWIDTH 16 0
BBX 17 26 0 0
BITMAP
007FAFC000
00FFFFE000
00F9F7F000
00FCE7E000
00BD9BE000
00BE4FD000
007F5FC000
01BFFFC000
0BEFFFB400
3FC0007D00
BFFF1FFE00
FFFF1FFF00
FFFF1FFF40
FFFF1FFF40
FFFF1FFF40
FFFF1FFF40
FFFF1FFF40
FFFF1FFF40
FFD5057F40
FFD5557F40
FFFFFFFF40
FFFFFFFF40
BFFFFFFF00
7FFFFFFD00
1FFFFFF800
02FFFF9000
ENDCHAR
STARTCHAR uni01D1
ENCODING 465
SWIDTH 578 0
DWIDTH 16 0
BBX 17 26 0 0
BITMAP
007FAF8000
00FFFFE000
01FAF7E000
00FCE7E000
00FD9BD000
00BE4FD000
007F6FC000
01BFFFC000
0BFFFFF400
3F80007D00
BF4FFD3E00
FF4FFE3F00
FF4FFE3F40
FF4FFE3F40
FF4FFE3F40
FF4FFE3F40
FF4FFE3F40
FF4FFE3F40
FF85543F40
FFD555BF40
FFFFFFFF40
FFFFFFFF40
BFFFFFFF00
7FFFFFFD00
1FFFFFF800
02FFFF9000
ENDCHAR
STARTCHAR uni01D3
ENCODING 467
SWIDTH 578 0
DWIDTH 16 0
BBX 17 26 0 0
BITMAP
007FAFC000
00FFFFE000
00F9F7F000
00FCE7E000
00BD9BE000
00BE4FD000
007F5FC000
01BFFFC000
0BBFFFB400
3F5FFD3D00
BF5FFD3E00
FF5FFD3F00
FF5FFD3F40
FF5FFD3F40
FF5FFD3F40
FF5FFD3F40
FF5FFD3F40
FF4FFD3F40
FF85547F40
FFD555FF40
FFFFFFFF40
FFFFFFFF40
BFFFFFFF00
7FFFFFFD00
1FFFFFF800
02FFFF9000
ENDCHAR
STARTCHAR uni01D4
ENCODING 468
SWIDTH 578 0
DWIDTH 16 0
BBX 17 26 0 0
BITMAP
007FAFC000
00FFFFE000
00F9F7F000
00FCE7E000
00BD9BE000
00BE4FD000
007F5FC000
01BFFFC000
0BBFFFB400
3F5FFD3D00
BF5FFD3E00
FF5FFD3F00
FF5FFD3F40
FF5FFD3F40
FF5FFD3F40
FF5FFD3F40
FF5FFD3F40
FF4FFD3F40
FF85547F40
FFD555FF40
FFFFFFFF40
FFFFFFFF40
BFFFFFFF00
7FFFFFFD00
1FFFFFF800
02FFFF9000
ENDCHAR
STARTCHAR uni0200
ENCODING 512
SWIDTH 578 0
DWIDTH 16 0
BBX 17 27 0 0
BITMAP
029A800000
07FFF00000
0FFFF80000
1F3CBD0000
2F9E7E0000
0FDF6F4000
07E7DF8000
02FBEFC000
01FFFFC000
0BFFFFF400
3FD001FD00
BFC7F4FE00
FFCBF8FF00
FFCBF8BF40
FF8BFCBF40
FF8554BF40
FF85547F40
FF4FFC7F40
FF5FFD7F40
FF5FFD3F40
FF5FFE7F40
FFFFFFFF40
FFFFFFFF40
BFFFFFFF00
7FFFFFFD00
1FFFFFF800
02FFFF9000
ENDCHAR
STARTCHAR uni0201
ENCODING 513
SWIDTH 578 0
DWIDTH 16 0
BBX 17 27 0 0
BITMAP
029A800000
07FFF00000
0FFFF80000
1F3CBD0000
2F9E7E0000
0FDF6F4000
07E7DF8000
02FBEFC000
01FFFFC000
0BFFFFF400
3FC001FD00
BFFFF4FE00
FFFFF8FF00
FFFFF8FF40
FFFFF8FF40
FF8000FF40
FF1AA4FF40
FF1FF8FF40
FF1FF8FF40
FF4550FF40
FFD555FF40
FFFFFFFF40
FFFFFFFF40
BFFFFFFF00
7FFFFFFD00
1FFFFFF800
02FFFF9000
ENDCHAR
STARTCHAR uni0202
ENCODING 514
SWIDTH 578 0
DWIDTH 16 0
BBX 17 26 0 0
BITMAP
001BF90000
00FFFFD000
03FFFFF000
07FFBFF400
07F407F800
07F2E3F400
03FFFFF000
01FFFFD000
0BFEAFF400
3FD001FD00
BFC7F4FE00
FFCBF8FF00
FFCBF8BF40
FF8BFCBF40
FF8554BF40
FF85547F40
FF4FFC7F40
FF5FFD7F40
FF5FFD3F40
FF5FFE7F40
FFFFFFFF40
FFFFFFFF40
BFFFFFFF00
7FFFFFFD00
1FFFFFF800
02FFFF9000
ENDCHAR
STARTCHAR uni0203
ENCODING 515
SWIDTH 578 0
DWIDTH 16 0
BBX 17 26 0 0
BITMAP
001BF90000
00FFFFD000
03FFFFF000
07FFBFF400
07F407F800
07F2E3F400
03FFFFF000
01FFFFD000
0BFAABF400
3FC001FD00
BFFFF4FE00
FFFFF8FF00
FFFFF8FF40
FFFFF8FF40
FF8000FF40
FF1AA4FF40
FF1FF8FF40
FF1FF8FF40
FF4550FF40
FFD555FF40
FFFFFFFF40
FFFFFFFF40
BFFFFFFF00
7FFFFFFD00
1FFFFFF800
02FFFF9000
ENDCHAR
STARTCHAR uni0204
ENCODING 516
SWIDTH 578 0
DWIDTH 16 0
BBX 17 27 0 0
BITMAP
029A800000
07FFF00000
0FFFF80000
1F3CBD0000
2F9E7E0000
0FDF6F4000
07E7DF8000
02FBEFC000
01FFFFC000
0BFFFFF400
3FE000BD00
BFE3FFFE00
FFE3FFFF00
FFE3FFFF40
FFE156FF40
FFE002FF40
FFE3FFFF40
FFE3FFFF40
FFE3FFFF40
FFE155BF40
FFE555BF40
FFFFFFFF40
FFFFFFFF40
BFFFFFFF00
7FFFFFFD00
1FFFFFF800
02FFFF9000
ENDCHAR
STARTCHAR uni0205
ENCODING 517
SWIDTH 578 0
DWIDTH 16 0
BBX 17 27 0 0
BITMAP
029A800000
07FFF00000
0FFFF80000
1F3CBD0000
2F9E7E0000
0FDF6F4000
07E7DF8000
02FBEFC000
01FFFFC000
0BFFFFF400
3F4001FD00
BF5FF4FE00
FF1FF8FF00
FF1AA4FF40
FF0000FF40
FF1FFFFF40
FF1FFFFF40
FF1FFFFF40
FF5FFBFF40
FF8002FF40
FFEAABFF40
FFFFFFFF40
FFFFFFFF40
BFFFFFFF00
7FFFFFFD00
1FFFFFF800
02FFFF9000
ENDCHAR
STARTCHAR uni0206
ENCODING 518
SWIDTH 578 0
DWIDTH 16 0
BBX 17 26 0 0
BITMAP
001BF90000
00FFFFD000
03FFFFF000
07FFBFF400
07F407F800
07F2E3F400
03FFFFF000
01FFFFD000
0BFAAAF400
3FE000BD00
BFE3FFFE00
FFE3FFFF00
FFE3FFFF40
FFE156FF40
FFE002FF40
FFE3FFFF40
FFE3FFFF40
FFE3FFFF40
FFE155BF40
FFE555BF40
FFFFFFFF40
FFFFFFFF40
BFFFFFFF00
7FFFFFFD00
1FFFFFF800
02FFFF9000
ENDCHAR
STARTCHAR uni0207
ENCODING 519
SWIDTH 578 0
DWIDTH 16 0
BBX 17 26 0 0
BITMAP
001BF90000
00FFFFD000
03FFFFF000
07FFBFF400
07F407F800
07F2E3F400
03FFFFF000
01FFFFD000
0BFAABF400
3F4001FD00
BF5FF4FE00
FF1FF8FF00
FF1AA4FF40
FF0000FF40
FF1FFFFF40
FF1FFFFF40
FF1FFFFF40
FF5FFBFF40
FF8002FF40
FFEAABFF40
FFFFFFFF40
FFFFFFFF40
BFFFFFFF00
7FFFFFFD00
1FFFFFF800
02FFFF9000
ENDCHAR
STARTCHAR uni0208
ENCODING 520
SWIDTH 578 0
DWIDTH 16 0
BBX 17 27 0 0
BITMAP
029A800000
07FFF00000
0FFFF80000
1F3CBD0000
2F9E7E0000
0FDF6F4000
07E7DF8000
02FBEFC000
01FFFFC000
0BFFFFF400
3FC0007D00
BFFF1FFE00
FFFF1FFF00
FFFF1FFF40
FFFF1FFF40
FFFF1FFF40
FFFF1FFF40
FFFF1FFF40
FFFF1FFF40
FFD5057F40
FFD5557F40
FFFFFFFF40
FFFFFFFF40
BFFFFFFF00
7FFFFFFD00
1FFFFFF800
02FFFF9000
ENDCHAR
STARTCHAR uni0209
ENCODING 521
SWIDTH 578 0
DWIDTH 16 0
BBX 17 27 0 0
BITMAP
029A800000
07FFF00000
0FFFF80000
1F3CBD0000
2F9E7E0000
0FDF6F4000
07E7DF8000
02FBEFC000
01FFFFC000
0BFFFFF400
3FC0007D00
BFFF1FFE00
FFFF1FFF00
FFFF1FFF40
FFFF1FFF40
FFFF1FFF40
FFFF1FFF40
FFFF1FFF40
FFFF1FFF40
FFD5057F40
FFD5557F40
FFFFFFFF40
FFFFFFFF40
BFFFFFFF00
7FFFFFFD00
1FFFFFF800
02FFFF9000
ENDCHAR
STARTCHAR uni020A
ENCODING 522
SWIDTH 578 0
DWIDTH 16 0
BBX 17 26 0 0
BITMAP
001BF90000
00FFFFD000
03FFFFF000
07FFBFF400
07F407F800
07F2E3F400
03FFFFF000
01FFFFD000
0BEAAAB400
3FC0007D00
BFFF1FFE00
FFFF1FFF00
FFFF1FFF40
FFFF1FFF40
FFFF1FFF40
FFFF1FFF40
FFFF1FFF40
FFFF1FFF40
FFD5057F40
FFD5557F40
FFFFFFFF40
FFFFFFFF40
BFFFFFFF00
7FFFFFFD00
1FFFFFF800
02FFFF9000
ENDCHAR
STARTCHAR uni020B
ENCODING 523
SWIDTH 578 0
DWIDTH 16 0
BBX 17 26 0 0
BITMAP
001BF90000
00FFFFD000
03FFFFF000
07FFBFF400
07F407F800
07F2E3F400
03FFFFF000
01FFFFD000
0BEAAAB400
3FC0007D00
BFFF1FFE00
FFFF1FFF00
FFFF1FFF40
FFFF1FFF40
FFFF1FFF40
FFFF1FFF40
FFFF1FFF40
FFFF1FFF40
FFD5057F40
FFD5557F40
FFFFFFFF40
FFFFFFFF40
BFFFFFFF00
7FFFFFFD00
1FFFFFF800
02FFFF9000
ENDCHAR
STARTCHAR uni020C
ENCODING 524
SWIDTH 578 0
DWIDTH 16 0
BBX 17 27 0 0
BITMAP
029A800000
07FFF00000
0FFFF80000
1F3CBD0000
2F9E7E0000
0FDF6F4000
07E7DF8000
02FBEFC000
01FFFFC000
0BFFFFF400
3F80007D00
BF4FFD3E00
FF4FFE3F00
FF4FFE3F40
FF4FFE3F40
FF4FFE3F40
FF4FFE3F40
FF4FFE3F40
FF4FFE3F40
FF85543F40
FFD555BF40
FFFFFFFF40
FFFFFFFF40
BFFFFFFF00
7FFFFFFD00
1FFFFFF800
02FFFF9000
ENDCHAR
STARTCHAR uni020D
ENCODING 525
SWIDTH 578 0
DWIDTH 16 0
BBX 17 27 0 0
BITMAP
029A800000
07FFF00000
0FFFF80000
1F3CBD0000
2F9E7E0000
0FDF6F4000
07E7DF8000
02FBEFC000
01FFFFC000
0BFFFFF400
3F80007D00
BF4FFD3E00
FF4FFE3F00
FF4FFE3F40
FF4FFE3F40
FF4FFE3F40
FF4FFE3F40
FF4FFE3F40
FF4FFE3F40
FF85543F40
FFD555BF40
FFFFFFFF40
FFFFFFFF40
BFFFFFFF00
7FFFFFFD00
1FFFFFF800
02FFFF9000
ENDCHAR
STARTCHAR uni020E
ENCODING 526
SWIDTH 578 0
DWIDTH 16 0
BBX 17 26 0 0
BITMAP
001BF90000
00FFFFD000
03FFFFF000
07FFBFF400
07F407F800
07F2E3F400
03FFFFF000
01FFFFD000
0BFAABF400
3F80007D00
BF4FFD3E00
FF4FFE3F00
FF4FFE3F40
FF4FFE3F40
FF4FFE3F40
FF4FFE3F40
FF4FFE3F40
FF4FFE3F40
FF85543F40
FFD555BF40
FFFFFFFF40
FFFFFFFF40
BFFFFFFF00
7FFFFFFD00
1FFFFFF800
02FFFF9000
ENDCHAR
STARTCHAR uni020F
ENCODING 527
SWIDTH 578 0
DWIDTH 16 0
BBX 17 26 0 0
BITMAP
001BF90000
00FFFFD000
03FFFFF000
07FFBFF400
07F407F800
07F2E3F400
03FFFFF000
01FFFFD000
0BFAABF400
3F80007D00
BF4FFD3E00
FF4FFE3F00
FF4FFE3F40
FF4FFE3F40
FF4FFE3F40
FF4FFE3F40
FF4FFE3F40
FF4FFE3F40
FF85543F40
FFD555BF40
FFFFFFFF40
FFFFFFFF40
BFFFFFFF00
7FFFFFFD00
1FFFFFF800
02FFFF9000
ENDCHAR
STARTCHAR uni0210
ENCODING 528
SWIDTH 578 0
DWIDTH 16 0
BBX 17 27 0 0
BITMAP
029A800000
07FFF00000
0FFFF80000
1F3CBD0000
2F9E7E0000
0FDF6F4000
07E7DF8000
02FBEFC000
01FFFFC000
0BFFFFF400
3F8001FD00
BF8BF8FE00
FF8BF8BF00
FF8BF8BF40
FF8AA5FF40
FF8007FF40
FF8AA4FF40
FF8BFCBF40
FF8BFCBF40
FF8BFCBF40
FF9FFDBF40
FFFFFFFF40
FFFFFFFF40
BFFFFFFF00
7FFFFFFD00
1FFFFFF800
02FFFF9000
ENDCHAR
STARTCHAR uni0211
ENCODING 529
SWIDTH 578 0
DWIDTH 16 0
BBX 17 27 0 0
BITMAP
029A800000
07FFF00000
0FFFF80000
1F3CBD0000
2F9E7E0000
0FDF6F4000
07E7DF8000
02FBEFC000
01FFFFC000
0BFFFFF400
3F8001FD00
BF8BF8FE00
FF8BF8BF00
FF8BF8BF40
FF8AA5FF40
FF8007FF40
FF8AA4FF40
FF8BFCBF40
FF8BFCBF40
FF8BFCBF40
FF9FFDBF40
FFFFFFFF40
FFFFFFFF40
BFFFFFFF00
7FFFFFFD00
1FFFFFF800
02FFFF9000
ENDCHAR
STARTCHAR uni0212
ENCODING 530
SWIDTH 578 0
DWIDTH 16 0
BBX 17 26 0 0
BITMAP
001BF90000
00FFFFD000
03FFFFF000
07FFBFF400
07F407F800
07F2E3F400
03FFFFF000
01FFFFD000
0BEAABF400
3F8001FD00
BF8BF8FE00
FF8BF8BF00
FF8BF8BF40
FF8AA5FF40
FF8007FF40
FF8AA4FF40
FF8BFCBF40
FF8BFCBF40
FF8BFCBF40
FF9FFDBF40
FFFFFFFF40
FFFFFFFF40
BFFFFFFF00
7FFFFFFD00
1FFFFFF800
02FFFF9000
ENDCHAR
STARTCHAR uni0213
ENCODING 531
SWIDTH 578 0
DWIDTH 16 0
BBX 17 26 0 0
BITMAP
001BF90000
00FFFFD000
03FFFFF000
07FFBFF400
07F407F800
07F2E3F400
03FFFFF000
01FFFFD000
0BEAABF400
3F8001FD00
BF8BF8FE00
FF8BF8BF00
FF8BF8BF40
FF8AA5FF40
FF8007FF40
FF8AA4FF40
FF8BFCBF40
FF8BFCBF40
FF8BFCBF40
FF9FFDBF40
FFFFFFFF40
FFFFFFFF40
BFFFFFFF00
7FFFFFFD00
1FFFFFF800
02FFFF9000
ENDCHAR
STARTCHAR uni0214
ENCODING 532
SWIDTH 578 0
DWIDTH 16 0
BBX 17 27 0 0
BITMAP
029A800000
07FFF00000
0FFFF80000
1F3CBD0000
2F9E7E0000
0FDF6F4000
07E7DF8000
02FBEFC000
01FFFFC000
0BFFFFB400
3F5FFD3D00
BF5FFD3E00
FF5FFD3F00
FF5FFD3F40
FF5FFD3F40
FF5FFD3F40
FF5FFD3F40
FF5FFD3F40
FF4FFD3F40
FF85547F40
FFD555FF40
FFFFFFFF40
FFFFFFFF40
BFFFFFFF00
7FFFFFFD00
1FFFFFF800
02FFFF9000
ENDCHAR
STARTCHAR uni0215
ENCODING 533
SWIDTH 578 0
DWIDTH 16 0
BBX 17 27 0 0
BITMAP
029A800000
07FFF00000
0FFFF80000
1F3CBD0000
2F9E7E0000
0FDF6F4000
07E7DF8000
02FBEFC000
01FFFFC000
0BFFFFB400
3F5FFD3D00
BF5FFD3E00
FF5FFD3F00
FF5FFD3F40
FF5FFD3F40
FF5FFD3F40
FF5FFD3F40
FF5FFD3F40
FF4FFD3F40
FF85547F40
FFD555FF40
FFFFFFFF40
FFFFFFFF40
BFFFFFFF00
7FFFFFFD00
1FFFFFF800
02FFFF9000
ENDCHAR
STARTCHAR uni0216
ENCODING 534
SWIDTH 578 0
DWIDTH 16 0
BBX 17 26 0 0
BITMAP
001BF90000
00FFFFD000
03FFFFF000
07FFBFF400
07F407F800
07F2E3F400
03FFFFF000
01FFFFD000
0BAFFFB400
3F5FFD3D00
BF5FFD3E00
FF5FFD3F00
FF5FFD3F40
FF5FFD3F40
FF5FFD3F40
FF5FFD3F40
FF5FFD3F40
FF4FFD3F40
FF85547F40
FFD555FF40
FFFFFFFF40
FFFFFFFF40
BFFFFFFF00
7FFFFFFD00
1FFFFFF800
02FFFF9000
ENDCHAR
STARTCHAR uni0217
ENCODING 535
SWIDTH 578 0
DWIDTH 16 0
BBX 17 26 0 0
BITMAP
001BF90000
00FFFFD000
03FFFFF000
07FFBFF400
07F407F800
07F2E3F400
03FFFFF000
01FFFFD000
0BAFFFB400
3F5FFD3D00
BF5FFD3E00
FF5FFD3F00
FF5FFD3F40
FF5FFD3F40
FF5FFD3F40
FF5FFD3F40
FF5FFD3F40
FF4FFD3F40
FF85547F40
FFD555FF40
FFFFFFFF40
FFFFFFFF40
BFFFFFFF00
7FFFFFFD00
1FFFFFF800
02FFFF9000
ENDCHAR
STARTCHAR uni0218
ENCODING 536
SWIDTH 578 0
DWIDTH 16 0
BBX 17 19 0 0
BITMAP
01AAAA4000
0BFAAAF400
3FC000BD00
BF8BFFFE00
FF8BFFFF00
FF8BFFFF40
FFC156FF40
FFE5547F40
FFFFFD7F40
FFFFFD7F40
FFFFFD7F40
FFE5547F40
FFD555FF40
FFFFAFFF40
FFFE1FFF40
BFFF5FFF00
7FFF6FFD00
1FFFFFF800
02FFFF9000
ENDCHAR
STARTCHAR uni0219
ENCODING 537
SWIDTH 578 0
DWIDTH 16 0
BBX 17 19 0 0
BITMAP
01AAAA4000
0BFAAAF400
3FC000BD00
BF8BFFFE00
FF8BFFFF00
FF8BFFFF40
FFC156FF40
FFE5547F40
FFFFFD7F40
FFFFFD7F40
FFFFFD7F40
FFE5547F40
FFD555FF40
FFFFAFFF40
FFFE1FFF40
BFFF5FFF00
7FFF6FFD00
1FFFFFF800
02FFFF9000
ENDCHAR
STARTCHAR uni021A
ENCODING 538
SWIDTH 578 0
DWIDTH 16 0
BBX 17 19 0 0
BITMAP
01AAAA4000
0BEAAAB400
3FC0007D00
BFFF1FFE00
FFFF1FFF00
FFFF1FFF40
FFFF1FFF40
FFFF1FFF40
FFFF1FFF40
FFFF1FFF40
FFFF1FFF40
FFFF1FFF40
FFFF6FFF40
FFFFFFFF40
FFFF0FFF40
BFFF4FFF00
7FFF5FFD00
1FFFFFF800
02FFFF9000
ENDCHAR
STARTCHAR uni021B
ENCODING 539
SWIDTH 578 0
DWIDTH 16 0
BBX 17 19 0 0
BITMAP
01AAAA4000
0BEAAAB400
3FC0007D00
BFFF1FFE00
FFFF1FFF00
FFFF1FFF40
FFFF1FFF40
FFFF1FFF40
FFFF1FFF40
FFFF1FFF40
FFFF1FFF40
FFFF1FFF40
FFFF6FFF40
FFFFFFFF40
FFFF0FFF40
BFFF4FFF00
7FFF5FFD00
1FFFFFF800
02FFFF9000
ENDCHAR
STARTCHAR circumflex
ENCODING 710
SWIDTH 355 0
DWIDTH 10 0
BBX 10 10 0 0
BITMAP
02F800
0FFE00
1FAF40
2F4F80
7E5BD0
BDA7E0
FCF3F0
FEFBF0
BFFFE0
155540
ENDCHAR
STARTCHAR caron
ENCODING 711
SWIDTH 355 0
DWIDTH 10 0
BBX 10 9 0 0
BITMAP
6FAFD0
FFFFE0
F9F6F0
FCF3F0
BDA7E0
7F5FD0
3F5FC0
2FFF80
155540
ENDCHAR
STARTCHAR breve
ENCODING 728
SWIDTH 428 0
DWIDTH 12 0
BBX 12 8 0 0
BITMAP
06FF90
2FFFF8
BFFFFE
FFFFFF
FE3DBF
BF00BE
7FEBFD
1FFFF4
ENDCHAR
STARTCHAR dotaccent
ENCODING 729
SWIDTH 428 0
DWIDTH 12 0
BBX 12 8 0 0
BITMAP
06FF90
2FFFF8
BFFFFE
FFEBFF
FFC3FF
FFEBFF
BFFFFE
2AAAA8
ENDCHAR
STARTCHAR ring
ENCODING 730
SWIDTH 368 0
DWIDTH 10 0
BBX 11 9 0 0
BITMAP
01A900
1FFF80
7FAFD0
BD02F0
FCF6F4
FCF6F4
FD03F4
BFFFF0
7FFFD0
ENDCHAR
STARTCHAR ogonek
ENCODING 731
SWIDTH 101 0
DWIDTH 3 0
BBX 3 5 0 -5
BITMAP
74
D0
D0
BC
14
ENDCHAR
STARTCHAR tilde
ENCODING 732
SWIDTH 428 0
DWIDTH 12 0
BBX 12 9 0 0
BITMAP
02FF80
1FFFF4
7FFFFD
BFFFFE
FFFFFF
FD6D7F
F8507F
7EFAFD
2FFFF8
ENDCHAR
STARTCHAR hungarumlaut
ENCODING 733
SWIDTH 419 0
DWIDTH 12 0
BBX 12 10 0 0
BITMAP
00A9A0
03FFF4
0BFFF8
1F8F3D
2F6DBE
7E7DFC
FDF6F4
FEFBE0
FFFFC0
555540
ENDCHAR
STARTCHAR uni030F
ENCODING 783
SWIDTH 419 0
DWIDTH 12 0
BBX 12 10 0 0
BITMAP
0A6900
2FFF80
3FFFD0
B9E3F0
FDB5F8
7F7DFC
2FAE7E
0FEFBE
07FFFE
015554
ENDCHAR
STARTCHAR mu
ENCODING 956
SWIDTH 578 0
DWIDTH 16 0
BBX 17 19 0 0
BITMAP
01AAAA4000
0BAFFEB400
3F5FFD3D00
BF5FFD3E00
FF5FFD3F00
FF5FFD3F40
FF5FFD3F40
FF5FFD3F40
FF5FFD3F40
FF5FFD3F40
FF5FFD3F40
FF45547F40
FF4555FF40
FF9FFFFF40
FFFFFFFF40
BFFFFFFF00
7FFFFFFD00
1FFFFFF800
02FFFF9000
ENDCHAR
STARTCHAR pi
ENCODING 960
SWIDTH 578 0
DWIDTH 16 0
BBX 17 19 0 0
BITMAP
01AAAA4000
0BFA6BF400
3F96A5FD00
BE2A6E2E00
FCF1578F00
F6F3F3DB40
F3E7F3E740
F3E2A3F340
F3E6A2F340
F7DBF6E740
F9DBF6DB40
FCAFFA9F40
FE2FFD3F40
FFD151FF40
FFFEAFFF40
BFFFFFFF00
7FFFFFFD00
1FFFFFF800
02FFFF9000
ENDCHAR
STARTCHAR uni1E60
ENCODING 7776
SWIDTH 578 0
DWIDTH 16 0
BBX 17 25 0 0
BITMAP
001BFE4000
00BFFFE000
02FFFFF800
03FFAFFC00
03FF1FFC00
03FFAFF800
03FFFFF400
0BFFFFF400
3FC000BD00
BF8BFFFE00
FF8BFFFF00
FF8BFFFF40
FFC156FF40
FFE5547F40
FFFFFD7F40
FFFFFD7F40
FFFFFD7F40
FFE5547F40
FFD555FF40
FFFFFFFF40
FFFFFFFF40
BFFFFFFF00
7FFFFFFD00
1FFFFFF800
02FFFF9000
ENDCHAR
STARTCHAR uni1E8E
ENCODING 7822
SWIDTH 578 0
DWIDTH 16 0
BBX 17 25 0 0
BITMAP
002FFE4000
01FFFFE000
03FFFFF400
07FFAFF800
07FE1FF800
03FFAFF800
03FFFFF400
0BFFFFF400
3FC7F8BD00
BFD3F4FE00
FFE2F1FF00
FFF4E2FF40
FFF887FF40
FFFC0BFF40
FFFE0FFF40
FFFF1FFF40
FFFF2FFF40
FFFF2FFF40
FFFF6FFF40
FFFFFFFF40
FFFFFFFF40
BFFFFFFF00
7FFFFFFD00
1FFFFFF800
02FFFF9000
ENDCHAR
STARTCHAR uni1E8F
ENCODING 7823
SWIDTH 578 0
DWIDTH 16 0
BBX 17 25 0 0
BITMAP
002FFE4000
01FFFFE000
03FFFFF400
07FFAFF800
07FE1FF800
03FFAFF800
03FFFFF400
0BFFFFF400
3FC7F8BD00
BFD3F4FE00
FFE2F1FF00
FFF4E2FF40
FFF887FF40
FFFC0BFF40
FFFE0FFF40
FFFF1FFF40
FFFF2FFF40
FFFF2FFF40
FFFF6FFF40
FFFFFFFF40
FFFFFFFF40
BFFFFFFF00
7FFFFFFD00
1FFFFFF800
02FFFF9000
ENDCHAR
STARTCHAR uni1EBC
ENCODING 7868
SWIDTH 578 0
DWIDTH 16 0
BBX 17 27 0 0
BITMAP
001BF90000
00BFFFD000
01FFFFF000
03FFFFF800
07FFFFF800
07F5B5F800
03E102F800
02FBEBF400
01FFFFE000
0BEAAAF400
3FE000BD00
BFE3FFFE00
FFE3FFFF00
FFE3FFFF40
FFE156FF40
FFE002FF40
FFE3FFFF40
FFE3FFFF40
FFE3FFFF40
FFE155BF40
FFE555BF40
FFFFFFFF40
FFFFFFFF40
BFFFFFFF00
7FFFFFFD00
1FFFFFF800
02FFFF9000
ENDCHAR
STARTCHAR uni1EF8
ENCODING 7928
SWIDTH 578 0
DWIDTH 16 0
BBX 17 27 0 0
BITMAP
001BF90000
00BFFFD000
01FFFFF000
03FFFFF400
07FFFFF800
07F5B6F800
03E102F800
02FBEBF400
01FFFFE000
0BEBFEB400
3FC7F8BD00
BFD3F4FE00
FFE2F1FF00
FFF4E2FF40
FFF887FF40
FFFC0BFF40
FFFE0FFF40
FFFF1FFF40
FFFF2FFF40
FFFF2FFF40
FFFF6FFF40
FFFFFFFF40
FFFFFFFF40
BFFFFFFF00
7FFFFFFD00
1FFFFFF800
02FFFF9000
ENDCHAR
STARTCHAR uni1EF9
ENCODING 7929
SWIDTH 578 0
DWIDTH 16 0
BBX 17 27 0 0
BITMAP
001BF90000
00BFFFD000
01FFFFF000
03FFFFF400
07FFFFF800
07F5B6F800
03E102F800
02FBEBF400
01FFFFE000
0BEBFEB400
3FC7F8BD00
BFD3F4FE00
FFE2F1FF00
FFF4E2FF40
FFF887FF40
FFFC0BFF40
FFFE0FFF40
FFFF1FFF40
FFFF2FFF40
FFFF2FFF40
FFFF6FFF40
FFFFFFFF40
FFFFFFFF40
BFFFFFFF00
7FFFFFFD00
1FFFFFF800
02FFFF9000
ENDCHAR
STARTCHAR endash
ENCODING 8211
SWIDTH 428 0
DWIDTH 12 0
BBX 12 19 0 0
BITMAP
01AA40
0BFFE0
3FFFFC
BFFFFE
FFFFFF
FD007F
FEAABF
FFFFFF
FFFFFF
FFFFFF
FFFFFF
FFFFFF
FFFFFF
FFFFFF
FFFFFF
BFFFFE
7FFFFD
1FFFF4
02FF80
ENDCHAR
STARTCHAR emdash
ENCODING 8212
SWIDTH 428 0
DWIDTH 12 0
BBX 12 19 0 0
BITMAP
01AA40
0BFFE0
3FFFFC
BFFFFE
FFFFFF
000000
AAAAAA
FFFFFF
FFFFFF
FFFFFF
FFFFFF
FFFFFF
FFFFFF
FFFFFF
FFFFFF
BFFFFE
7FFFFD
1FFFF4
02FF80
ENDCHAR
STARTCHAR quoteleft
ENCODING 8216
SWIDTH 428 0
DWIDTH 12 0
BBX 12 19 0 0
BITMAP
01AA40
0BFBE0
3FD7FC
BFC3FE
FFC2FF
FFFFFF
FFFFFF
FFFFFF
FFFFFF
FFFFFF
FFFFFF
FFFFFF
FFFFFF
FFFFFF
FFFFFF
BFFFFE
7FFFFD
1FFFF4
02FF80
ENDCHAR
STARTCHAR quoteright
ENCODING 8217
SWIDTH 428 0
DWIDTH 12 0
BBX 12 19 0 0
BITMAP
01AA40
0BEBE0
3FC2FC
BFE3FE
FFE7FF
FFFFFF
FFFFFF
FFFFFF
FFFFFF
FFFFFF
FFFFFF
FFFFFF
FFFFFF
FFFFFF
FFFFFF
BFFFFE
7FFFFD
1FFFF4
02FF80
ENDCHAR
STARTCHAR quotesinglbase
ENCODING 8218
SWIDTH 428 0
DWIDTH 12 0
BBX 12 19 0 0
BITMAP
01AA40
0BFFE0
3FFFFC
BFFFFE
FFFFFF
FFFFFF
FFFFFF
FFFFFF
FFFFFF
FFFFFF
FFFFFF
FFC3FF
FFD3FF
FFE7FF
FFFBFF
BFFFFE
7FFFFD
1FFFF4
02FF80
ENDCHAR
STARTCHAR quotedblleft
ENCODING 8220
SWIDTH 428 0
DWIDTH 12 0
BBX 12 19 0 0
BITMAP
01AA40
0BBEE0
3F29FC
BE14BE
FE14BF
FFFFFF
FFFFFF
FFFFFF
FFFFFF
FFFFFF
FFFFFF
FFFFFF
FFFFFF
FFFFFF
FFFFFF
BFFFFE
7FFFFD
1FFFF4
02FF80
ENDCHAR
STARTCHAR quotedblright
ENCODING 8221
SWIDTH 428 0
DWIDTH 12 0
BBX 12 19 0 0
BITMAP
01AA40
0BAAA0
3F047C
BF8DBE
FFADFF
FFFFFF
FFFFFF
FFFFFF
FFFFFF
FFFFFF
FFFFFF
FFFFFF
FFFFFF
FFFFFF
FFFFFF
BFFFFE
7FFFFD
1FFFF4
02FF80
ENDCHAR
STARTCHAR quotedblbase
ENCODING 8222
SWIDTH 428 0
DWIDTH 12 0
BBX 12 19 0 0
BITMAP
01AA40
0BFFE0
3FFFFC
BFFFFE
FFFFFF
FFFFFF
FFFFFF
FFFFFF
FFFFFF
FFFFFF
FFFFFF
FF047F
FF087F
FF9CBF
FFAEFF
BFFFFE
7FFFFD
1FFFF4
02FF80
ENDCHAR
STARTCHAR dagger
ENCODING 8224
SWIDTH 578 0
DWIDTH 16 0
BBX 17 19 0 0
BITMAP
01AAAA4000
0BFFAFF400
3FFF1FFD00
BFFA1BFE00
FFF402FF00
FFFE1BFF40
FFFF1FFF40
FFFF1FFF40
FFFF1FFF40
FFFF1FFF40
FFFF1FFF40
FFFF1FFF40
FFFF6FFF40
FFFFFFFF40
FFFFFFFF40
BFFFFFFF00
7FFFFFFD00
1FFFFFF800
02FFFF9000
ENDCHAR
STARTCHAR daggerdbl
ENCODING 8225
SWIDTH 578 0
DWIDTH 16 0
BBX 17 19 0 0
BITMAP
01AAAA4000
0BFFAFF400
3FFF1FFD00
BFFA1BFE00
FFF402FF00
FFFE1BFF40
FFFF1FFF40
FFFF1FFF40
FFFF1FFF40
FFF916FF40
FFF402FF40
FFFF1FFF40
FFFF6FFF40
FFFFFFFF40
FFFFFFFF40
BFFFFFFF00
7FFFFFFD00
1FFFFFF800
02FFFF9000
ENDCHAR
STARTCHAR bullet
ENCODING 8226
SWIDTH 578 0
DWIDTH 16 0
BBX 17 19 0 0
BITMAP
01AAAA4000
0BFFFFF400
3FFEAFFD00
BFD001FE00
FF80007F00
FF40007F40
FF40007F40
FF40007F40
FF40007F40
FF40007F40
FF80007F40
FFD001FF40
FFFEAFFF40
FFFFFFFF40
FFFFFFFF40
BFFFFFFF00
7FFFFFFD00
1FFFFFF800
02FFFF9000
ENDCHAR
STARTCHAR ellipsis
ENCODING 8230
SWIDTH 578 0
DWIDTH 16 0
BBX 17 19 0 0
BITMAP
01AAAA4000
0BFFFFF400
3FFFFFFD00
BFFFFFFE00
FFFFFFFF00
FFFFFFFF40
FFFFFFFF40
FFFFFFFF40
FFFFFFFF40
FFFFFFFF40
FFFFFFFF40
FE2C74BF40
FE6D79FF40
FFFFFFFF40
FFFFFFFF40
BFFFFFFF00
7FFFFFFD00
1FFFFFF800
02FFFF9000
ENDCHAR
STARTCHAR perthousand
ENCODING 8240
SWIDTH 640 0
DWIDTH 18 0
BBX 18 19 0 0
BITMAP
01AAAAA400
0BFFFFFE00
257DBFFFC0
911CBFFFE0
CB58FFFFF0
C115FFFFF0
E572FFFFF0
FFE2EBFAF0
FFD201D030
FFC6388A20
FF8A248A20
FF8F01D030
FFFFEBFAF0
FFFFFFFFF0
FFFFFFFFF0
BFFFFFFFE0
7FFFFFFFC0
1FFFFFFF40
02FFFFE800
ENDCHAR
STARTCHAR guilsinglleft
ENCODING 8249
SWIDTH 578 0
DWIDTH 16 0
BBX 17 19 0 0
BITMAP
01AAAA4000
0BFFFFF400
3FFFFFFD00
BFFFD7FE00
FFFF8BFF00
FFFF2FFF40
FFFD7FFF40
FFF4FFFF40
FFF5FFFF40
FFFC7FFF40
FFFE2FFF40
FFFF8FFF40
FFFFD7FF40
FFFFFBFF40
FFFFFFFF40
BFFFFFFF00
7FFFFFFD00
1FFFFFF800
02FFFF9000
ENDCHAR
STARTCHAR guilsinglright
ENCODING 8250
SWIDTH 578 0
DWIDTH 16 0
BBX 17 19 0 0
BITMAP
01AAAA4000
0BFFFFF400
3FFFFFFD00
BFF9FFFE00
FFFC7FFF00
FFFE2FFF40
FFFF4FFF40
FFFFD7FF40
FFFFD7FF40
FFFF8FFF40
FFFF2FFF40
FFFD7FFF40
FFF8FFFF40
FFFEFFFF40
FFFFFFFF40
BFFFFFFF00
7FFFFFFD00
1FFFFFF800
02FFFF9000
ENDCHAR
STARTCHAR fraction
ENCODING 8260
SWIDTH 428 0
DWIDTH 12 0
BBX 12 19 0 0
BITMAP
01AA40
0BFAE0
3FF1FC
BFF2FE
FFE2FF
FFE3FF
FFD3FF
FFD7FF
FFC7FF
FFCBFF
FF8BFF
FF8FFF
FF5FFF
FFFFFF
FFFFFF
BFFFFE
7FFFFD
1FFFF4
02FF80
ENDCHAR
STARTCHAR Euro
ENCODING 8364
SWIDTH 578 0
DWIDTH 16 0
BBX 17 19 0 0
BITMAP
01AAAA4000
0BEAAAF400
3F8002FD00
BF5FFFFE00
FF5FFFFF00
F8003FFF40
FE1ABFFF40
FE1ABFFF40
F8003FFF40
FF5FFFFF40
FF5FFFFF40
FF4556FF40
FFD556FF40
FFFFFFFF40
FFFFFFFF40
BFFFFFFF00
7FFFFFFD00
1FFFFFF800
02FFFF9000
ENDCHAR
STARTCHAR trademark
ENCODING 8482
SWIDTH 578 0
DWIDTH 16 0
BBX 17 19 0 0
BITMAP
01AAAA4000
0BFFFFF400
3FFFFFFD00
BFFFFFFE00
FFFFFFFF00
FFFFFFFF40
FF0178FF40
FFCD20FF40
FFCE44FF40
FFCE48FF40
FFFFFFFF40
FFFFFFFF40
FFFFFFFF40
FFFFFFFF40
FFFFFFFF40
BFFFFFFF00
7FFFFFFD00
1FFFFFF800
02FFFF9000
ENDCHAR
STARTCHAR product
ENCODING 8719
SWIDTH 578 0
DWIDTH 16 0
BBX 17 19 0 0
BITMAP
01AAAA4000
0BFA6BF400
3F96A5FD00
BE2FFE2E00
FCF4078F00
F6F6F5DB40
F3F6F9E740
F3F6F5F340
F3F452F340
F7F6AFE740
F9F6FFDB40
FCB6FF9F40
FE2FFD3F40
FFD151FF40
FFFEAFFF40
BFFFFFFF00
7FFFFFFD00
1FFFFFF800
02FFFF9000
ENDCHAR
STARTCHAR minus
ENCODING 8722
SWIDTH 428 0
DWIDTH 12 0
BBX 12 19 0 0
BITMAP
01AA40
0BFFE0
3FFFFC
BFFFFE
FFFFFF
FD007F
FEAABF
FFFFFF
FFFFFF
FFFFFF
FFFFFF
FFFFFF
FFFFFF
FFFFFF
FFFFFF
BFFFFE
7FFFFD
1FFFF4
02FF80
ENDCHAR
STARTCHAR notequal
ENCODING 8800
SWIDTH 578 0
DWIDTH 16 0
BBX 17 19 0 0
BITMAP
01AAAA4000
0BFFFFF400
3FFFEBFD00
BFFF8BFE00
FF5505FF00
FF5415FF40
FFFD7FFF40
FF4000FF40
FFA0AAFF40
FFF2FFFF40
FFFFFFFF40
FFFFFFFF40
FFFFFFFF40
FFFFFFFF40
FFFFFFFF40
BFFFFFFF00
7FFFFFFD00
1FFFFFF800
02FFFF9000
ENDCHAR
STARTCHAR uni2706
ENCODING 9990
SWIDTH 578 0
DWIDTH 16 0
BBX 17 19 0 0
BITMAP
01AAAA4000
0BFF7FF400
3FFF9BFD00
BFFF67FE00
FFFA9AFF00
FFD359FF40
FF85FEFF40
FF86FFFF40
FFC7FFFF40
FFD3FFFF40
FFE1FFFF40
FFF423FF40
FFFD15FF40
FFFF96FF40
FFFFFFFF40
BFFFFFFF00
7FFFFFFD00
1FFFFFF800
02FFFF9000
ENDCHAR
STARTCHAR uni2708
ENCODING 9992
SWIDTH 578 0
DWIDTH 16 0
BBX 17 19 0 0
BITMAP
01AAAA4000
0904046400
2007B00900
8001C00200
8000C00100
8190C18140
807DDE0140
800FF80140
8002E00140
8001C00140
8001C00140
8001C00140
8000800140
8000000140
8001400140
8003E00200
5003E00500
1800401400
02AAAA9000
ENDCHAR
STARTCHAR uniF6D6
ENCODING 63190
SWIDTH 419 0
DWIDTH 12 0
BBX 12 10 0 0
BITMAP
0A6900
2FFF80
3FFFD0
B9E3F0
FDB5F8
7F7DFC
2FAE7E
0FEFBE
07FFFE
015554
ENDCHAR
STARTCHAR uFFFF2
ENCODING 1048562
SWIDTH 578 0
DWIDTH 16 0
BBX 17 19 0 0
BITMAP
01AAAA4000
0900006400
2000800900
8001C00200
8001C00100
8001C00140
8007F00140
801FFD0140
8078CB4140
8140C08140
8000C00140
8002D00140
800A640140
8000000140
8001400140
8003E00200
5003E00500
1800401400
02AAAA9000
ENDCHAR
STARTCHAR uFFFF3
ENCODING 1048563
SWIDTH 578 0
DWIDTH 16 0
BBX 17 19 0 0
BITMAP
01AAAA4000
0900006400
2000900900
8000F40200
8014ED0100
802DDA0140
800BEC0140
8002F00140
8002F00140
800BFC0140
802CDB0140
8010ED0140
8000F40140
8000900140
8000000140
8000000200
5000000500
1800001400
02AAAA9000
ENDCHAR
STARTCHAR uFFFF4
ENCODING 1048564
SWIDTH 578 0
DWIDTH 16 0
BBX 17 19 0 0
BITMAP
01AAAA4000
0BFFFFF400
3FFFBFFD00
BFFF3FFE00
FFE736FF00
FFCB38FF40
FF6F3D7F40
FF6F3E7F40
FF6FFE7F40
FF5FFD7F40
FFCBF8FF40
FFE447FF40
FFFEAFFF40
FFFFFFFF40
FFFFFFFF40
BFFFFFFF00
7FFFFFFD00
1FFFFFF800
02FFFF9000
ENDCHAR
STARTCHAR uFFFF5
ENCODING 1048565
SWIDTH 578 0
DWIDTH 16 0
BBX 17 19 0 0
BITMAP
01AAAA4000
0BFBFBF400
3FF84FFD00
BFFE3FFE00
FFFF3FFF00
FE6F3E7F40
FF8221FF40
FFF007FF40
FFFD1FFF40
FFFE3FFF40
FFFE3FFF40
FFFE3FFF40
FFFF7FFF40
FFFFFFFF40
FFFEBFFF40
BFFC1FFF00
7FFC1FFD00
1FFFBFF800
02FFFF9000
ENDCHAR
STARTCHAR uFFFF6
ENCODING 1048566
SWIDTH 578 0
DWIDTH 16 0
BBX 17 19 0 0
BITMAP
01AAAA4000
0BFFFFF400
3FFF7FFD00
BFFE3FFE00
FFFE3FFF00
FFFE3FFF40
FFF80FFF40
FFE002FF40
FF8A64BF40
FEBE7E7F40
FFFE7FFF40
FFFD2FFF40
FFF59BFF40
FFFFFFFF40
FFFEBFFF40
BFFC1FFF00
7FFC1FFD00
1FFFBFF800
02FFFF9000
ENDCHAR
STARTCHAR uFFFF8
ENCODING 1048568
SWIDTH 578 0
DWIDTH 16 0
BBX 17 19 0 0
BITMAP
01AAAA4000
0BFFFFF400
3FFEBFFD00
BFF55FFE00
FFF56BFF00
FFF44BFF40
FFD182FF40
FFDD29FF40
FF5D3CFF40
FF4404BF40
FF4000FF40
FF8001FF40
FFD002FF40
FFF95FFF40
FFFEBFFF40
BFFC2FFF00
7FFC2FFD00
1FFFBFF800
02FFFF9000
ENDCHAR
STARTCHAR uFFFF9
ENCODING 1048569
SWIDTH 578 0
DWIDTH 16 0
BBX 17 19 0 0
BITMAP
01AAAA4000
0900006400
2000400900
8000C00200
8018C90100
8034C70140
8090C28140
8090C18140
8090018140
80A0028140
8034070140
801BB80140
8001500140
8000000140
8000000140
8000000200
5000000500
1800001400
02AAAA9000
ENDCHAR
STARTCHAR uFFFFB
ENCODING 1048571
SWIDTH 578 0
DWIDTH 16 0
BBX 17 19 0 0
BITMAP
01AAAA4000
0BFEBFF400
3FFE2FFD00
BFFE0BFE00
FF8A62FF00
FFD153FF40
FFF40FFF40
FFFC2FFF40
FFF40FFF40
FFD153FF40
FF9E62FF40
FFFE0BFF40
FFFE2FFF40
FFFEBFFF40
FFFFFFFF40
BFFFFFFF00
7FFFFFFD00
1FFFFFF800
02FFFF9000
ENDCHAR
STARTCHAR uFFFFC
ENCODING 1048572
SWIDTH 578 0
DWIDTH 16 0
BBX 17 19 0 0
BITMAP
01AAAA4000
0BFFFFF400
3FE406FD00
BE06A46E00
F87A6B4F00
FE8151EF40
FF2EAD7F40
FFE042FF40
FFEBF6FF40
FFFD2FFF40
FFFD2FFF40
FFFFBFFF40
FFFFFFFF40
FFFFFFFF40
FFFFFFFF40
BFFFFFFF00
7FFFFFFD00
1FFFFFF800
02FFFF9000
ENDCHAR
STARTCHAR uFFFFD
ENCODING 1048573
SWIDTH 578 0
DWIDTH 16 0
BBX 17 19 0 0
BITMAP
01AAAA4000
0BFFFFF400
3FF96FFD00
BFD003FE00
FF8001FF00
FF4000FF40
FF4000BF40
FF5D2CFF40
FF9D2DFF40
FFD082FF40
FFE547FF40
FFF56BFF40
FFF55FFF40
FFFEBFFF40
FFFEBFFF40
BFFC2FFF00
7FFC2FFD00
1FFFBFF800
02FFFF9000
ENDCHAR
STARTCHAR uFFFFE
ENCODING 1048574
SWIDTH 578 0
DWIDTH 16 0
BBX 17 19 0 0
BITMAP
01AAAA4000
0BFFFFF400
3EABEABD00
B854855E00
F9FC9FCF00
F9FC9FCF40
FC019FCF40
F8B89FCF40
F9FC9FCF40
F8A88A8F40
FD02D02F40
FFFFFFFF40
FFFFFFFF40
FFFFFFFF40
FFFFFFFF40
BFFFFFFF00
7FFFFFFD00
1FFFFFF800
02FFFF9000
ENDCHAR
STARTCHAR uFFFFF
ENCODING 1048575
SWIDTH 578 0
DWIDTH 16 0
BBX 17 19 0 0
BITMAP
01AAAA4000
0900006400
2006900900
802FFC0200
807FFE0100
80BFFF0140
80BFFF4140
80A2D30140
8062D20140
802F7D0140
801AB80140
800A940140
800AA00140
8001400140
8001400140
8003D00200
5003D00500
1800401400
02AAAA9000
ENDCHAR
STARTCHAR .notdef
ENCODING -1
SWIDTH 1000 0
DWIDTH 28 0
BBX 1 1 0 0
BITMAP
00
ENDCHAR
STARTCHAR glyph1
ENCODING -1
SWIDTH 0 0
DWIDTH 0 0
BBX 1 1 0 0
BITMAP
00
ENDCHAR
ENDFONT
